<mxfile host="app.diagrams.net" modified="2022-01-12T07:49:31.352Z" agent="5.0 (Windows NT 10.0; Win64; x64) AppleWebKit/537.36 (KHTML, like Gecko) Chrome/97.0.4692.71 Safari/537.36" etag="HT2vCMayIemLSKAQSz1f" version="16.2.4" type="github">
  <diagram id="Kq8BG6OPRrUuRE5NDtPR" name="Page-1">
    <mxGraphModel dx="3076" dy="882" grid="1" gridSize="10" guides="1" tooltips="1" connect="1" arrows="1" fold="1" page="1" pageScale="1" pageWidth="827" pageHeight="1169" math="0" shadow="0">
      <root>
        <mxCell id="0" />
        <mxCell id="1" parent="0" />
        <mxCell id="EXckT9lGXdtGZgZZ0evO-8" value="layer.confirm" style="text;html=1;strokeColor=none;fillColor=none;align=center;verticalAlign=middle;whiteSpace=wrap;rounded=0;" vertex="1" parent="1">
          <mxGeometry x="830" width="60" height="30" as="geometry" />
        </mxCell>
        <mxCell id="EXckT9lGXdtGZgZZ0evO-9" value="" style="shape=image;verticalLabelPosition=bottom;labelBackgroundColor=default;verticalAlign=top;aspect=fixed;imageAspect=0;image=data:image/png,iVBORw0KGgoAAAANSUhEUgAAB4AAAAQhCAYAAADMCpIQAAAgAElEQVR4nOzdeXjTZb738U+60JWlCy3IWoEuAgWdOgqICsqiKEXxYpiR0SOLSz2DoKIOo/gIjgp4EDhjHZXCGR9nDuMDQhEXQFHBip7pUSgCbQELsra0rF0pbZ8/fkmapEmabnTh/bquXjS/5f7dSSapk0++39s0MnFalQC0Sl+sX9HcU2g0J0+eVJcuXZp7GgAAAAAAAAAAAK2aV3NPAAAAAAAAAAAAAADQOAiAAQAAAAAAAAAAAKCNIAAGAAAAAAAAAAAAgDaCABgAAAAAAAAAAAAA2gif5p6AM37tfNXN31cdL5YppLhQ1+SfVEhZqVb3jNH+KjJrAAAAAAAAAAAAAHCmRQXA3VShSSdz1OVsgSrOndf5kFAdjOiqq3IOSJLaR3SX/No38ywBAAAAAAAAAAAAoGVqUeW0l7y81K7ACH8lqWPlJRX4+Fn3B1wsb66pAQAAAAAAAAAAAECL16IC4FLfdqrwrp5SVXGJ1KGD9XaYX4sqWAYAAAAAAAAAAACAFqVFJaomX1/J22ZKlZXy9feTV4Dk1UFq165cPl5eulRZ2XyTBAAAAAAAAAAAAIAWqkUFwKqokGzDXZNJly6WK2CQ1PFek26+dFTHs9srJKhCZwu9lHfeR2cLvVVwwaTKqqrmmzcAAAAAAAAAAAAAtAAtKgD2LiuTqeJS9QZ/f1WePy/faMk71KQQ5atrbrHujt8nb5Wq0qu9cgpC9frGq1VY0nzzBgAAAAAAAAAAAICWoEUFwB0ulatdZYX1domvrzpdvCjvEJN1W5XJV95VJZKq5FVxTsHeJlVUekmiLTQAAAAAAAAAAACAK5tXc0/AVlhZiQIuXrTePuvrp45F5+UVWH2Ml8kkqbrdc1mFr8rKaf8MAAAAAAAAAAAAAC0qAI4sKZRXebn1dl5AsEJLS6x1yiaH8FeSqkx+qqwkAAYAAAAAAAAAAACAFhMAe5tM6nn+jN22o5FdFX7hrM0WZ0Ev4S8AAAAAAAAAAADQUhRseEIJyzOaexpXrBazBnBU5UWFF1aHvVV+fir29ZPKyqRyYw3gqiqpyjGzriyTyWRSVVXTBMF9o3rogcnjtWj5KhUWFdd7nAcnj9fOn7K066csSVKXiHAFBwXoQM6RRpnn49Mma+1Hn+tkXn6dz+0b1UPxA2L04Uef222TVKf5DRoQo+CgQKV9/6Pb45b8eY6SV6xutPsOAAAAAAAAAACAJpCXqifuzNG09FmKl5SxPEFT33Ny3NAXtGl5osLM58yfH6WV6fHm8xcozdnYD6xU+sx4h2stkOZt0rLxYXaHZixPUEpvx+0ZWpowVe87zOOFvgu0wNkcHefp7v7YmLIiXbMGuz+mpWkxAXDc6ZPyLy6x3j7WKVxdT+VJkipLbA40VdoFvgE+5fJvZ1JJWdMEwCfzCjR4YKwenzZZC5evrNcYXSLC9cDk8Trw6pvWbWNGDtWggTF68k+LGzzHZ2dO1eiRQ7XWJsCti4l3j1JkZJhdAPzME1O1a3eWDqSs9nicoqJiLXl5jua9+qbbEHhQ/xgFBQW63A8AAAAAAAAAAICWJ35mutJnFih15nzp+WVKjJAR3L5cfUzG6gWKWpGueEmKSNSy9Jvsj5cl0O1mM3KGllqC4vljlDC/es+wocOU9q0k2W/XAyuVnp6uWcrQ0oStGmkNqRdomDlELtjwhMYcmmYEzQ7ztHAX8GYsT9DWuj5ILUCLaAHd2cek2IJTMtlU8e69qqd+nX9MklRRYBPuVpSrwhRkvenfrkIB7S412dwKi4q1dsMWjR45VF0iwus1xoOTxyv3VEGtlbH1MWbkMI0eOVRFxSV6YPLddT6/S0S4Ro8cqk1ffGvdNmhAjPr07lHnQPlAzhElp/xTz8x8SMEEvC1e2fnzOn+mAT/ny5r7LgAAAAAAAAAAgKawc6kSEhKUcOcCpel9TU1IUELCUhlNnY8p59soRZnDXB3PsVb4Fmx4Qim9N2nWYHMb6ISlytAx5XxrO3iGtr43RdOs1bwFSp05Ve8PfUGb0tO1ad4wSVO0Mn2lpkhK+1Z64RPb7elKT0+3rx52kDZ/jBISEjRmfpr03lSb+3JlaPYKYC8vL92Ud0SdzlWv/3uhY4jKvL3V7nSBscE7StJhSVJQu4vKPR+orsGFkqRgvzJFdLyk0xfa1XsOgwbEuF1K+EDOLzqQc0TxA6IVmRvm8rhde7JqbOsb1UOjRw7VPJvq39o8Pm2y/rZ6Q60tpx+cPN7anvpgzi9a8udnFBwUWKd21ZZwetPW6v/Jjx05TCfz8hXZOUyRnV3f34OHjqiwqFh9o3ooKNAIfA/8/Is2bU1Tn949VFRcTJvnFusH/cfg+7SiQWPcqqXfr9T4zo00JQAAAAAAAAAA0DIMnqX09Fk1WkBLUsbyqXr/gZWaZXt83yiFqUCpn6cp7Vtzpe7QF7QpPVFhytBWpSnnuKQIqWBDinLmzVN1fBumxKlTtGD6Ao1JWGDelqapCe9bf19wZ4LD9mF64ZPqimJHdakAfn96gn0baQdTbnb7SLVIzR4AR5cXq//xIzJVVlq37YqK1g1HfrbeDpn4lC4Vz5KqKtUh4KKOnQ1W12CjPbSXynVdVKEyj4bWew5LXp7j0XHPzpzqdv9tE6bX2PbME1N18NARj6t/H582Wffefbt2/pTl8pzgoEA9M/MhDbvhWi1avsoa3j75p0V65ompevuNeVq0fJV1vWFXLOH0ouWrrNsGDYjR6JFDJRlr9brz5POLteunLCVNn6xB/WPs9k28e5QkKfH+mQ1aOxktW2lFc88AAAAAAAAAAABcLgUbntBUGWv32q6fO2WFEQcnLk9XojKUuqGbEh3W8X1/W4ZmDY7XsUNpSnvPHBLbrgPsuCawSxlampDSKPfHaGndKEO1KM0aAPubTLr1WI4Ciwut286GhOqcr58iTp2UJAUm/ErBv7pVF/7VVRUlxxQRfE4Zx69SQvfqcQZedVx+7cJUdrF+6wA/+Xz1OrwT7x6lLpFhenOF+7VvF8z9d+3cnaW1H21xeczj0yarT+8eTiuDnRkzcpjuvft2vbd6g8vwd9CAGD0z8yG1Dw7SI7NfsquwPZBzRE/+abGemTlVS16eo01b05Sc8k+XAewzTxiBtm3174O/Ha+073dq3qt/0YOTx3u0TrGz/Uv+PEe5uQWEvy1WfyUuelx+DSnQjhiqEfXrig4AAAAAAAAAAFqsAqXOHKMFNm2b02yqbtPHG9uch6cZWpowVe9LWmANeM273ktR6uRlSjSfl7E8QVtvtg18c5Q6c6rddWuwHc9hnu8nvC8NfUEv9DW3gLauF5ymBHNQraEvVN/LDU8YLaJr5b7a2NE777yjd955x+m+hx9+WA8//LBnAzVAswXA3jLptvO56p53QjKv/Vvl462MblEa9nOmZK4IjvxDkkw+PvLuGG8OgC+oUj66VBUgH1OJJCki+Ix6hV9U9nHfes3FsVJ2yctzlJtXoJN5+U6PHzQgRkGBAVr70RaXVbaWMNdTY0YO0zMzH9Lmrd/qb6s31NjfN6qHkqZN1qABMTqZl6+Fy1IUFBhYo/JWktZu2KKTeac09rabNOyGa7X2o8/14Uef24WxlnDa1sS7R6lvVE89POslj+ftjGWcRctWadCAGKPFdo37O9Rue26efRtqNDU/9b/vKfVv7mkAAAAAAAAAAIAWJsxcyWswgtp0zRos2Qa8doa+oE3LE6UNKXrfMTDNS1WOpuiFeTlasDpDieZ2zCnvTdE0S5g7eJbSBxcodaY0ZYXlWvaMds6SFK9Z6cuMjeaK46UJWzXS3KY6Y/kCz1tA11p1XPdqY0vA6xgCX67wV2qmANjby6ThxWd1w8FMeVVU95Dd37WnAiovqVOB0d45YEB/BQ+5QZLUrvMoXTz5qQLbFatTQJH253dWXOdfjH1eFzVqQK4OnOihyqr6VQFb7PopS7v2ZClp2m9crtv74G+NdXNdhb9GWPsbpX2/U8HBAbVe0zb8Xbh8ZY398//47xp2w2DlnirQvFff1Pw/Pq75f/z3WsdNvH+mJt59u+4bP0pjbxumh2e9pMKiYms4nfb9Tg27YbDdnJNT/uky+PZE36geemDy3XpzxWqdzMvXmJFD9cDk8U7vs61de7IIgAEAAAAAAAAAAFqEAqXOnC89v0xRNfY5BLw7lyrBHG+Fja+uELaO9N1WpQ0dqXnjR2pKQopSJ8+TXl4gzdskZ9Gr2zV5H5hW68zjZ6ZrmbMdEYlattzdmUZFcc5U5wF0XTiGwJcz/JWaIQD2Npl0U/FZjcjeLZ+yMuv2M2HhOtK5i27Yv0eSZGrXTl3/9KxMPsYUfUJvkVe7EFVePKOo0Hz9eLSH4jofkWQEvoO6/aJekVcp56RXg+f4t//eoCUvz9GgATE1Qt5BA2I0qH+MXdtoR0nTJyv3VIEWLV+p+XMfd3utByeP1wOTx7sMfyVp7UdblPb9j9aA1Nlawy7vy+oNWvvR5+oT1UOFRcUKDgrU49Mna/PWb/XZ1jRrADzshmu1eeu3NVpaD+ofoy/Wr6gx7q49WTVaPwcHBeqlPz6uwqJi61z/tnpDjYrmL9avsK4fjOZSpj1r/qLPGtgC+oHfDFHnZl9JHAAAAAAAAAAANK5jyvlW1vDXEspOWeE8y7KTl6on7lygNElTVmxS1OdpGnb7PIUpTLNWRCnhzjFGxbDDGsEWriqAPeOsQtmmBXSt7ZyHKeqq+l7bnm3geznDX+kyB8ABXiYlnjupQVl7VGVT+VvWoYN2XB2nIT9nKfjCeUlS5xnTFHzDr63HmLwD1C5ijEqPrlbPkNPal9ddR89HqnsHY63gAJ8S3X/jz1q0sZ8uXmp4FXDa9zv1zMyH9Mjs+dbWycFBgXpm5kPatSfLbXiZvGK1TubVvv7toP5GmJyc8k+3awnv+ilLu1T/sLSwqNg638KiYr25YrU2bU2za8HsrO20JB08dMTpeshFDvetS0S4Xvrj4+oSYSwK+8zMh7Ro+ap6zxlNbY9Sn3lTNaP9uo3R47YhmtSlkaYEAAAAAAAAAABahrwc5ShNOd8VaJpsQ9kMLVWaFtyZoAW2xw99QdVr8k7RynRzFe7OpUr4dopWLjfC3oxt5mj22xwdk+QsAnZbAWy+1qbliQ7nvq+p5jWAN6Wna5Z5q10L6Nrs/L9a8G2adGeCtppbSDfU5Q5+LS5LAGwymdTDq0p3nziobjkHZRvPlgUE6vO+/TX4SI5CzK2fAxMS1OXJGqtGy6/XNJUdXyuvynLFRZzQdzk9dd/gPKnKWC84OuKobh3QVZt3BjV4zouWr9Q/3l2opGm/sQaZj0+brPbBQXrq+dfdnnsgx31Z5aABMRo9cqiKikv0wit/qVMl7IOTx6su8fbmrd/WaOlcl1bLtuGxK4MGxGj+Hx9X7qkCSdKHH32uQQNjCIGvAP7ezT0DAAAAAAAAAADQ2Aq+26q0B6Zoyvwxmippys2WPfGaZROwOrJdO1jK0NLp72vKinTFWytzp2hl+ix12/CExiQkOK32dVsBbNNu2rbad9i8TUqvY2AbNn6Z0h3GsVw7Y3mCEhKM44bN26RZLiuGW6YmD4BDfbx0c9FpXb9/r0xFRXb7Kvz89fk11yo+96i6nTwqSfLt2lW9//qfkslUYywvv27yDR+hi3mb1bNTnvblRmp/fjf1CzMCV1NVhe67dreyT/xah3Ib1gq6sKhYL7zyFy15eY6Kikp0Mq9Ao0cO1bxX36z3GrldIsL1wOS7NWbkMBUVl+hAzi91boP8wOTxOnjoSK3VxcFBgerTu4d2/ZTVoDV9a9MlIlxLXp6jzVu/1Zspq5X69+UqLCrWomUrteTPz+jDjz6vNRBHc7hOT+3cqX+vqP1Il7z91KFDo00IAAAAAAAAAAC0CAX65nPphednKXHmLP1+wxMaU1tVroyg1LZqtmBDinLmbdKyq1L1RMICRa1IV7ol2B2/TOk3puqJOxP0hMN5nlQAG2qG0RnLEzT1PccTbFtAS3pgpVZqqs1xRsWy7TjxM9OVPtNyP55QQkJaA1tTX15NGgCPrijSLZl7ZDp3rsa+so4dtema6/TrwwfU5bgREHqHdFL3116WT2iIyzH9uv1G5QVfy6uiTNf3PKxNWXG6OvSEvE2XJEkBPkX6t5sO6s0vonXqbMNbQS9avkrPzHxIkrRo+Sqlff9jvcbqEhGud5a+qMKiYs179U31jeqhQQNjXB4ryWVw++aK1R5V5S55eU695mqrT+8eLsd58vnFOpmXr3mvvlnjcTmQc0S/m/FsrUE1mo9fhw7ya+5JAAAAAAAAAACAFiZMicuXVd8av0zp4+sxyvhlRhtoJWpZemLNAyIct4c5VBDXnW1w656nx9X//jenJg2A2xdeqBn+enkp++poHejaQ2N++kF+Z4y2wT5du6jn0v9Q8PW/cjumT6fr5ddjikoPpSg88LSu7X5MXxyI1+joH6UqI/DtE/qLZt9RqTe3xOpYfv1D4OCgQA27oTrKHzQgWmnf/1ivUPNkXr5du+e+UT1cHhsZEaYlL8/RbROm133SjayouKTWsNlVKE74CwAAAAAAAAAAAFxeTRoAbwu/Sgm++1RVblTnlnQK0ecx8epVUqSx338tr4sXJUmmXlEyvfRnZXSO0Zm9Z1VaYZKXKhXs560u7X3VM6SdOvh5G12hTT7y6/Y7XSr4Vpcu7FNs5yPaf6qLdp+M0sDIn63X7hF8VLNHl+vtr/pr//Ga7aRrM+yGa/XMzIdkMpm0aPkqFRYV69knpqpPVE8lp9RegetMfc5pbifz8vW31RuaexpodKe04ampevdAA4boOFYvvfu4rqOMGAAAAAAAAAAAoMVo0gD4VHmljoRFKrKkSD/2jdXZwGCNzPxJQadOWo/5ofu1Sv71DJ380kdVOuh0HC8vk8ICvXV1mJ+u7xmk0TEdFXf1bFXsmSWvS8UaF/uj3v/fG9TR/6J6djxqPS8yKFdPjy3Re9/9Sml7PVsTuG9UDz0webyG3XCtdu3JUvKK1dY1bJ/80yIlTZ+sJS/P0aataXpv9UdNsr5u36ieKiouafRxgWpH9NO6PdrToDE668AZ6boujTQlAAAAAAAAAAAANFiTBsCStLHvAMX5Vuma/VmKOHlMVZeMauAKL299dM04vT/oPpX4+Lsdo7KySqcKL+lU4SV9f7hIb36Tp24dQjQ8bKbuC12tfgGHNPlX/6v3//VrjY6tUs+Ox6znBnqf16M3bdfQfv30t+29lXf6Yo3xg4MCNfSGwZp49yj1jeqh3FMFWrR8lTZtTbM77kDOET35p8UaM3KYHvzteI0ZOUy7fsrSZ1vT9O33O+vc8rhP7x4a1L/mOsCjRw7Vzt2uq4UbY23fy6FLRLhGjxzqdN+YkUM1aID9fX+PSuPLqIMi+kguvnPhmcAIdQxsrPkAAAAAAAAAAACgMTRpAGwymXTJr6Ou+/FrtT+dqypJJb4B2nlVvNYPuFs5EX3kV1GskKpCBXqVy8+rUhXlZZKXSZUVlfLz89fFKi8VVfqosNJP5T6BKqnyUWWldPRchf773GCtOTRAQ0N3a0LkV7rnut3altVX50r9dU3EYXmbjLBZVZcUH7FPiyb+oh+P9dKyT7razfMf7y5UUGCADh464jT4dbRpa5o2bU3TmJHDNHH87Xp25lTlnirQ72Y86/Fjk/b9j5o4fpSW/LlmmFtUXKLFy1e6PDc55Z86kPOL2/H7RvVU0rTfeDyfphAcFKDBA2sG3Lv2ZKlLZLi6RIbbbX9v9eWaGaS+mr7lZzX/KtMAAAAAAAAAAABoTE0WAPv4B6msywD9K6ifep8o1G0XvtT+zn31ZewIZXbrp2CvEsVW7JeXqUqF5T4q8wnQBa8gXfJtL5m8JZ9KlapSPhVFCrx4Rl3bVUoVUrH8dFbBOufVUcVV7VRe6aOv86/Vt6cH6tbOP2hyry/0y4nOOlsSrF91P6hAn0LrnLxVpEFdf5ZkHwA/+adFKiwqqXM7Z0sQ3CUi3PUxX3zrdPuBnCMa/7s/KDgoUH2ieli35+YVuJ3He6s3KO37H2uda25egYKDApSbV+D2GHdVtzt/ytJJN+e7mt9O81rHloppAAAAAAAAAAAAAJeHaWTitKpGHdBkkim0pwq6Xq8jFSGqqpL6nPtF/QqP6EhEF/l7lapc3jrbLkLnfMN1rrTS47GD2nkppPKMOlzMU7DXJZ2rClKed5jOVQWqssokSerUrlCPRW1QZOkxFRa1U3yXI+odekKqqpAk7T4RpUUbr27Muww0my/Wr2juKTSakydPqksXFhQGAAAAAAAAAABoiEavAK7oNliHOg7WhUvG0IFeF1XVwUun24fokslX+/366PxFSRWSKjwPfyWp6GKlitRR8uqoIN8qRVTkqm/FIZ1XsI55d1FRpZ/OXgzW4v2/0ZN9/qHRnX/Qv37pqV/OhSku4hd1DirUlr09ar8QAAAAAAAAAAAAALRCjR4An+oQowsVPjKZpLCq8+px8ReVegcr0y9W58u9pIvOz/MySX7ekqmyQl5ekqqqVCGTLslH5RU1i5SLyk3KURcd941Uz0vHFFOepZNeXZTrFaEufmc1KDhbEQEnNC72lPad6qXtOf0V6FuujMPtJDVq0TMAAAAAAAAAAAAAtAiNHgBfdeJrlV11m0LKTym0okCH/GOUXxEoldsf52WS/HVR7SsLFXTprNpdPKd2l4rkXVEmX1OVKqukcnmrwjdIZT7tVeIfovNqr1LvIF20KRwuu2TSfnVXiH8X9SzJUseKc7qq6hdVXKhUeaC/fL1KFRd+UNdE/KJ3d9ykCidhMgAAAAAAAAAAAAC0BY3fAvrMCfUqWa+KqCHa6XOtLlXY7/f1kkKrzqtL0X6ZCn6WqfSCKiuqD6qUVGZzvLekQPNPhF+AKoMjVdj5Gh33jlRxRfX0z5T76EK7/upf+L/KP5ijZfujFNuju+791VH1Cf1FZeV++i7TW1T/AgAAAAAAAAAAAGirGj0AlqSq0kJ5nzsqU8fe1m1epiqFmIoUdW6nKvN+VkV5mapUtzi2oqxEKjuk4DOHFRsUruKug3XIu4dKq7wlSeGXTsnr5B5VVlXpUoX00yEf7T9+tWKv6qqru1aq7CLhLwAAAAAAAAAAAIC2q0kCYEmqOr5P/dp1UmZAf7UzVahX6UEFHv9B5aWFDR+7skoVF07Jv/ALXRPWXUc6D1O5yVtdj2xT5cUyu2PLLlZq1yE/7TrU4MsCAAAAAAAAAAAAQIvWZAGwJPkd+R/17emrwKITUv4BVVY2bgVuVVWlKvJ/Uc+i05JfoC4VnW7U8QEAAAAAAAAAAACgNWnSALiyokIBOduafNXdSyWFUknDK4sBAAAAAAAAAAAAoDXzau4JAAAAAAAAAAAAAAAaBwEwAAAAAAAAAAAAALQRBMAAAAAAAAAAAAAA0EYQAAMAAAAAAAAAAABAG0EADAAAAAAAAAAAAABtBAEwAAAAAAAAAAAAALQRPhfO5jf3HADU09lzRc09hUbjH9C+Td0fAAAAAAAAAACA5kAFMAAAAAAAAAAAAAC0EQTAAAAAAAAAAAAAANBGEAADAAAAAAAAAAAAQBtBAAwAAAAAAAAAAAAAbQQBMAAAAAAAAAAAAAC0EQTAAAAAAAAAAAAAANBGEAADAAAAAAAAAAAAQBtBAAwAAAAAAAAALdpGBcV3V6f4R+Xb3FMBAAAtnk9zTwAAAAAAAAAArjwbFeQ20I1W6bqtKu1zGacEAADaBCqAAQAAAAAAAAAAAKCNoAIYAAAAAAAAwJVl86Pq9PRGVTy2VRcei27mydylooy/qryZZwEAANoOKoABAAAAAAAAXFG8D2Y39xQAAACaDAEwAAAAAAAAAAAAALQRBMAAAAAAAAAArgjeb41Up/juav9Wtt3tTvHdFbTZ8eiNCjLvs/2peZyMltLx3dXp6Y32ty0/9yyRd1PeMRfX833azZwBAECbRQAMAAAAAAAAADaMYPhR+TrZ5/u0TdDr6lzH/QeXqL2L8RrK5fWaOnQGAAAtlk9TDGqK66X2cR1c/wdGYb7Obj+hqhLbjd4yRXipKq/c8wtNGKXBCYXa9/wOlUlSwhDF3d9Lfs6OPZahna/vtdvkNz1RV+s77VuRK7/piYrrH+D8OkWHzde4Rr3fiFcnF2PFddrvsD1SkS+PUNcg2yMLdGJPoLq6upYKlDN7i865u98AAAAAAAAA6qzisa06+5gRmrZ/K1sVj23Vhcei7Q86uESB5grhGvs3P2qErZsfVdDmoyoarZrnbpZK1x1VaZ/qbUYYu1H+b2Wr3PF65krjGvo8qQvrnlSFuzu0+VFrNbP9XLPlf89I+VP5CwDAFanRA2DvCaN0zS1htX67rOeQn5W56H9UViJJ3vL7/RhFX1euw7O36LynF1u/RTl9J+vq6T9r34pcY5s1rK1mhLOWW5GKfPlGaX2qzkry6z9Cg9+QyvZ8qZ2zjTE6Pj1ZIQdW69B624tFKvLleHWSpG7xGvxGfPWuohKVBQVIctx+WPueX61cm2vmphvz6WoJke1C7GvU+41unt57AAAAAAAAAI3M9y2jctZpODz6rzr7uhEC+761RN6jHQLag1L5uq3V4a9kBLmvZ6vT0xvlvXmjvB+rJdSty1w3G5W/NecardJ1f5V3E1UdAwCAlq2RA+B+6jas9vBXkkydrlaX2/9Hhz+yhL8d5K0CmTy8UsenJyvKkpV2G6HBT2do51c2B0wYpcF9j9Wo1HVUtufL6vBYknSNQroV6Mzrjtcboa5B5urcCaM0+JZAnfj7d9KEEeoaFKCSr1drnyzbjaDXLbsQOUxxb/Qy/16gM7WcCgAAAAAAAKApZMv7oCRFq3y0Y6Wu2ei7VK6N8j2YLS/JPsztc5fK+9TxHN2looy/qg59ET2c62CR2gIAACAASURBVF26OFrypQoYAIArTiMHwL7yqsOIgZFd5Tf1V4odGOxx8Gtx7vXV2inJ0mY54MBeSUPqOIotc3tn861Ob0w2/1ZiBLpfHVbZ/b0UZd0udb1/hPX3TrdM1mDr9snqer909mvHKmIbVACjJcj6QIu/6qppjwxXqCTlb1fKO1/qtLNj4yZpzj2xdptOf5OsdZqkaTeF6/Q3yUrZlu/8OmEjzNfIVOorHyjbxVgpp0Y6bM/Xd28na3uB7ZGxGn5zvra7upZilTh3klz8XzR7+Yd08KzUqW9vhXlyvDKV+spWRT6cpBvDXc3PzTzytytlrXTPI8MV6u6xVriGW69Rd9nr5mt756Tq58XyuOZvV8o7JzTc08cHAAAAAIArTnWoWuEsyK1Nn+hGq+6tXQPnCgAA2qwmWQPY44v3HapYP986h7+2/KbfqNBDX2rfekkJtR1tsybv/ZPVVZJkaQF9WCU11t81t262cNJe2t11XK3yC7QYMZOUuHe+1n0Tp2k3mdNGa1hbzQgRLbfy9d3bH0gTkxQt6fS2ZC3eJoXenKQ5c40xstfN175r5ikxxvZixnnZkrTvAy3eZ7MrLFyhBfmSHLeP0LRH5ulGm2veGG7MZ7slRLYLsTOV+kqGh3f+vE5cKJVX4FUehr+SFKvEiRlavHa7oq2PkZOw1hy0WliD8lhJBV8q5ZUvjfs2d54xRtYHWrw3vkYo3tiytxuBc+or8+13OHnOAQAAAAC4shnhqtNqXgAAgBauWQNgb78GrkAxYZTi+gdIGqG46V9q387qXX7hgU5OyFXu86uV62SPUQEcbJw7PVFX6zvtW1HzqE5PT1ZXd0W6RYe17/mfrTftWlXfP1ld7y/QiT2iBTSaXfa6+Uq1hK37krX41CTNGW5zgIehZOjNSdXhsSQpU/v2xSruHsfrJWt7gbkqNusDLV6br+EPT5LWJmt7Qb7CJ87TNFm2e1D9ahciZxqhqiQpVnG1nCpJOn9epRVe8g/u4MnRxuOxNtPmeieUOHekzQFG+BxXW3Wtk7A1e2+moq+Z5Nk86ivrA6XuM1dP7xlI4AsAAAAAgFOWtsnZ8t2crVLHNYAlafNGY13d0XfVbNu8eaN8VXO791tLXJ9Tb0blr+/BjfJ/K1vlNea6Ue1o/wwAwBWpWQPgBpkwSoP7FupEUaC0PlWlt05W78GH6zREx6cn66qzjmsAu5C+Q/vSpY5P93KybrDNnBIkS9BsWK2dlkri9cbawH7TE9WVFtBoZtH3zNOceyRLG+Pca2IlnarlLHfM7Z3Nt7KtVabmCtnhIxS670u76tPt7yRbf89eO1+Lrdvna7uk6ImOVcQ2GlgBXFhYrErvQLX3MP9VzCTNmWv8alRExyta0ncenu6MfQhfff9rhuoNdUrffWUE69HKV+ipZCMwd9KKGwAAAACAK4n35o3yfuxJu7bN5aPvkjZvlPdbI9VeW3XBNljd/Kg6Pb2x+rgaNioo/lH7NX03P6r2b2W7Oae+jLV//d/KlvdbIxXU56iKRtvPo4HlNwAAoJVqtQFwx75Szus/y//lCEnGmsDnEoYorrckRapT7wApKF5x0wv0s92Z16j3G/1U8vdUlVo2TRilwX2lsx5e26+/0TbaqaLCWs8vW5GqnU737NWh2Xs9nAXQOE5/84H29E/StBhJrpbVtbJZ89Yc0kqWFtAjFF5j3Vtz62YLj1sNm0PpOt8bT+XpbHGl/Dp1V3BdT83frnV7BmraI7Hy4AGzWRvZeJwkWVtAD4+oGXIb7aIbJvqeedbnIPSmJM2RJFnKu8MVag7/T3+TrMVvn6IaGAAAAABwxakYfZcq3loi74NL1D5+iSSp/HVzgDr6r7rw2Ei1Nwernd5ycv5jW23CVhujn1TpwSUKiu/uZN9fnZ/TABWP/VWlm0fK/6Dk+3R3dXK8nh5VEFXAAABccZo1AL6Yc1jFPXqpUz1mce71LZIi5W+70Vylqwmj1DWoRGePSQFyCFwndFOnojydSJf8b5XUKV5x/aWc2ccU8kY3WcLjkvRcSZFOr+2yAtgjNusQW9m2gJbOfr1ah9bXc3igLrI+sIaTKUoy1qg1O33KWbgZrhsfmacbneyRMpW6zVj31rrm7U01j8peN1/b99XcbhU2QtMeibM73lol+858bVesht+shrWAzi9WmfzVqc5FtplKfcdYRzflbdnNU/mnnMbBoTclaY6Tx0GSstd9aYTc+duVsla655Hhzg+sh+rg2Z1YJc4l/AUAAAAAXIH6PKkLr2dbq3kdVTy2VWcfc1ZFe5d9dW8N0Spdt1W6xwhlLazhcqOLVum6o6p4urtd0FvxmFG57Pt0U1wTAAC0dM0aAJefydShT86p9yPx9QqBnUoYorhbwqRjGTpxtp+utt1+f2ddkkkn/r5FZZLKXs9QyBvddGb2Fp3TNQqRpAnxRjh7yyh1XO+8lazbCmBJUoFyZm/RObttAepqXgM4Z/Zqm0DatgU0cBllfaDFe7tqeFi+NDFJodvnK1Uj6jRE9rr52t7Zw3bF4cM17REj9HTZ4jjrAy3+SrIEzZKkmHmac4+5kniisTbw6W+Stb0BLaALSkolv1CF1eneGmNH3hyufE3StM5btXhddV2tR+zm6p5nAa6jcLv1k922ks7frpR3TtRxfAAAAAAA2pDRf9VZtx8j3KWijKP1GNgIZUtrPa4u47s/tvz1o066G2bL+6Axn4o+Hl4GAAC0CY0cAJ9Q4el4dfKonKxcRT+fkQ6c0aG31Tgh8IRRGmwOf3e+vld+0/vZ7y86pV+e36EyaxWubVBboJKieEXdUqITf1+tXA1R3Bsj5Fd02KgqtuG2AjhhiOLutzSVtan2PZahnc/T3hktR/ZeKfGeOJ1+e7ckc9vg/O1K2SNJ+creky8VfKCUzkm6x+7MTKW+slWRDydVh5hZH2jxXtm0fnbv9Lbqdsg1hHWt9fzqtsaOYpU4t5Y1bc8f1fkyLwVGRNR6HTtZGdLESYo+law9krEmcEy+vjM/fqczd+u08pX69nZNm2h/qjUo72zZYg6q3ZQqu6scro/T3yQrZc9A2j0DAAAAAHCl2LzEXIVMAAwAwJWmkQPgM8p/73/lP22wwtt7uz6sskSn077R8TTz7QN7dejtCl01PtCDb8Y5YxvorrZW3pblF8vvlupq3bI9X8r/6cmK62aEvDvNwa7f9ETF9Q9Q2Z4vtdMa7O7QvvQdxr6Xh9hV6HpSAWzIVe7zq+3WMbVcy559C2gVHaYiGE0u+p5JkvL1ne1Gc5Wusj7Q9oJwRccZq9zaBa5ZGcoOG6jh4eYVcE9tVco2KXFuvPbty5AlPA6/NVyu1sh1W5laK5t1iK1sW0DXXFfXVmFhsSq9A9W+Qx0vGzNJiZJOn7LdGK4bH0mS0f46X6FxsVKejMdxbvXc9u0LV//h4ea3hhPa/vaX0sR5its7X/tkDo8jRipU0uk6TstT+afypYIvte6buAY89gAAAAAAoEU5uETt79mo8nVbVWoT8nq/ZaxhLEkVjz3ppmU1AABoixq/BfTh/To6b7/q3BzlQJaOL6nrSbnKfT7V+DXdPmiVJK3fop011tK1ab9sZrdGcC37zr1e8/y6cHctoEXI366UtZlS3CQN77xV62y3v5Mtf5Vp+MOTFCop9J5J2vdKhuLmTlK0MrVPkrK2GuHs2g+UPXek00u4rQCWZFTyTnKoKM7XdvMawIlz59kE0p63VZbO60JZpbz8Oii41mM9ZbSnzlasEod31fa1ttuTdTBAKr05SYnhksInKXHvfO27xgios/dKUqa2b8uX9IFSr5lXt5bSboTelKRplhtZHyg1b4SGx31pVC9LNiF1dUX3jeTCAAAAAAC0Qtnyv6e7/J3t6vOkih/ztGcbAABoK5p1DWAALUzWB1psDn/n3BOr099std8fFq07HhmuUGsVrm1QG67IsEylrg3X8Ifn6UZtV8oryTodNkLTHIJFz9emtan2jZukOY/U0t65NvmnVVzhr05X1bX815VMpb5iDn/nTlJ0/nZtt9sfrj53Vq9bnLIt3646ObxzuLLXfqDQm412z9+9PV8pBeEa/nAjJbG2z+cjscpe92XNY/JPKV/hiiP8BQAAAACg9enzpC5kRCso/lH5Ouwqf/2oikY3y6wAAEAzM11/S2JVc08CQP1sTv17A0cwqlc1cZK01jHQVXWAaBZ6c5KGn0pW6r5wDbepGLWEm86CXce1Z7PXzVfqvtrm5awC2P5aboWNcFoRXHAkU2cVqj496rj+r8P112mS7tEHNQLd6kDYZh63nlDK2kz7xyZ/u1Le+dIIxx3nmb9dKe/sVv/6VuRaxpasQb6Vw/Np0bCW3AAAAAAAAAAAoCUhAAZasYYHwFeQ80eVk1co306x6k7WCQAAAAAAAAAA2ihaQAO4MnTorqjG6vwMAAAAAAAAAADQQnk19wQAAAAAAAAAAAAAAI2DABgAAAAAAAAAAAAA2ggCYAAAAAAAAAAAAABoIwiAAQAAAAAAAAAAAKCNIAAGAAAAAAAAAAAAgDaCABgAAAAAAAAAAAAA2ggCYAAAAAAAAAAAAABoIwiAAQAAAAAAAAAAAKCNIAAGAAAAAAAAAAAAgDaCABgAAAAAAAAAAAAA2ggCYAAAAAAAAAAAAABoI3zadwpv7jkAAAAAAAAAAAAAABoBFcAAAAAAAAAAAAAA0EYQAAMAAAAAAAAAAABAG0EADAAAAAAAAAAAAABtBAEwAAAAAAAAAAAAALQRBMAAAAAAAAAAAAAA0Eb4NPcEADQfb28v+fv5ysfHRyZTc88GAAAAAAAAAADgylRVJV26dEmlZeWqqKhs0FhUAANXKC8vk4KD/OXrS/gLAAAAAAAAAADQnEwmydfXR8FB/vLyalhwQwAMXKH8/XxlIvkFAAAAAAAAAABoMUwmk/z9fBs0BgEwcAWqqqqSry8d4AEAAAAAAAAAAFoaX18fVVVV1ft8AmDgCkX1LwAAAAAAAAAAQMvT0AyHABgAAAAAAAAAAAAA2ggCYAAAAAAAAAAAAABoIwiAAQAAAAAAAAAAAKCNIAAGAAAAAAAAAAAAgDaCABgAAAAAAAAAAAAA2gify3Whe++6TbcMS5C3t7fSd+7VB+s+U3FJ6eW6vFvXxsfqqccf1Odff6//+sf65p4OAAAAAAAAAAAAANTLZQmAn31iqm6/5UZ5eRkFx7H9onT9tf21aPkqHT5yvN7j/tvvJui3946Vj0/td6O4pFTL3/67tny1o8a+HzMytXN3pibefbuOHc91eowkjbp1iGY+cr9O5Z/W1D/Ms9u3eP5TCgvpaLf92vhYPffENIWHhdjN49jxXPXr06vO8wQAAAAAAAAAAAAAd5o8AE68Y4SGD/mVNfyVJJPJpOg+vZR4xwgtf+fvDRr/VMEZ/cebf9OPGZmSpKf//UFdf+0AvbYsxbrt3343QePH3mo9x11w/NysaXpu1jTr7cNHjmvqH+bp2vhYTf/9vQoM8FevHlfpi/UrrMcUl5Sqna+PfHx87LbnF5zRa8tSJMmuwnjx/Kes49rONzw0RNN/f2+DHg8AAAAAAAAAAAAAV64mD4Cvjuohf792NbZ7eXmpR/cuTX15l4qKS/XWyn+6rbS1VPVK0h9m/E6BgQF6bWmKBg2I1qhbh2jDp1/p5qG/UnhYiD79fLsko0r4vz/8zK6V9LXxsTXGdgyRX5//tCS1mLbYAAAAAAAAAAAAAFqfJg+AKy5VuNxXWVnZ4PE7h4VYw1NbjtsaGqxu2/GDfnvvWLvq4Hvvvt36+x23D7f+/vtJd+n3k+7Sp59v1+t/+ZvT8agABgAAAAAAaEW2fCbNflQqPCdVmSRVNfeMgPoxSQoMkh5/Snp8dnPPBgAANIEmD4B/yNinW4YlqFPH9nbbyy5e1M7dmQ0evz4toBvrWq5Y1v4FAAAAAABAG7DlM2nG/VKVpZiB8BetWJWkoiJp0QLpwnnpuRebe0YAAKCRNWkA3DksRL6+Pvros680Ydxtah8cKEm6eLFcX3z9vU7mFSimX29l7T/UlNNwKijQv8Z6v84cPnLc7vZTjz+orpGdXR6fX3BGK/7vh9bbK/9zvnr1uEqSURk88e7bdex4Li2gAQAAAAAAWos/TLMJf4G2okr663ICYAAA2qAmC4DvHnurpk25R+2Dg1RaWqbv/jdDP+09oPLycl3du4duGZagO0cNV9nFi/p/6zdrlc2auXVR3xbQnlTz2q4B/F//WK//+sd6rfzP+fohY5/mzPuPGsdbqo/zT5/Rb6bNsW6/Nj5WTz3+oD7/+nv91z/Wa/H8p2gBDQAAAAAA0FqUFFf/njRbmvqo1Dmi+eYDNMR330i/udv4nS82AADQJjVJABwY4K87br9J7YODJEn+/n66ddj1unXY9TWO9WvXTmNvG6adP2XW2lrZUXhoRx07kaepf5hn3eZJC+jw0I7y9an9rjsLeSXpuvg4u+pdW/kFZ+o97pavdmjLVztqPR8AAAAAAACXke2Sv489IXXo2JyzARrmxptU/T9qUzNPBgAANIUmCYCvv26Aruriuk2yo04d22vQgNg6B8CREeEqOHOurtNTZES4fjl2ss7Xs3BVAewJy/rA4WEhdtttK5Y//Xy7Xv/L3+o1PnDZ5H2quUnbdHPyqxobIeV98kclrcxyfmz0DCW/codsvxu9+9179dKmO/TimhkauOtd3bfgU4/PrRfzNaKnvqVX7oy03taYl7RmxsCGjg4AAAAAaMtsl/wl/EWbUOXwLwAAaEuaJADuEhGudu18PZ+Ej4/CQ+v+H89hIR21N+tgnc65Nj5WPbt10b9+/KnO17NwVwEsGe2ml7/9d7tqXl8fH+sawLb7nFUsA63B7vRtkrK0IulddVszQ5Hm7WNf+FDTB1mP0or7XtRnlpt5n2pu0rvS1Lf0W9vBBs3QmjUzqo9vtFDWGO/nqW/plW4O2y2B86YXdd+m6j3WgBgAAAAAAAAAAKAVapIAOCDAX95eXk0xtNW//W6COnXsoF0/ZdfpvNtuvkGS9MW27+t9bXcVwLbtpm2rfQ8fOW63LjDQmhnVu5Zbn+qld29UsjVgzdVncx/Tiuw79OKaG2sZ6VO9dN+nGvvCS9ICm6DYJpS1D5QbQ54+m/uiPlOMpif/TkeTjOsS/AIAAAAAAAAAgLagSQLgkpJSVVRWejx4VVWVKirr1m6kf2wfHTx0xOWaueGhIfpnymJrq+XDR45ry1c79NuJd+hfP/7UoGpbTyqAJenHjMwaoe/i+U/puvi4GufYtoDOLzhDRTBatIEzPtSaGbW0ffaIuQW0dmuFHEJYd22hGyB75YvKljT2BaN1tdZ8qBvevVcvrVyqzxLM2wAAAAAAAACgpfv4ISlpvZR8RhrX3JMB0JI0SQD80Wdf6bpBcfrVoGtkMpncHltVVaWjx3OV9t2PdbqGqwpc27VznYXDU/8wr07Xaezz67t2MNDy5OqHb4zwd+yvB0rHaj/+s6XvKluSVj6mlyRZKoA15g6NNR9lXRv4hcaY40BNX/Oh+XdLm2knR5kDbQAAAABAY1ov9XpImr1DmhVbc/fSIdIbkrbskLRQGpUpHV5V98tkL5RGveb6OgBgCckUa7znRNd1gExp1BBJz0lbnm3ARBprHDQunhcAbU+TBMDFJaV69v+8oZh+vdWzW1e3x+afPkOlK9Aa7dqgFdmSFKPuXWUTAOfpaLak6O6yb6gcqbGvfGgOes1r/UbPUPIrdyhCu7ViU+NX+xrz9LCS2DoXAAAAAGiJzB9O120lLAcTPA9Yk0Kkj+swdEPD10/WS8qUemXWM5yR1K+Vhb8tJpAC2rr15teaJGVKn2RK0fV4vxg3QXrjNWlpopP3O/MXXlypT3Xm0iFS9rNS8oS6zrR+rO9JDVDjfraVv11Ont9WXXHbVp4XAO40SQBskbX/kLL2H2rKSwBoFrn67J9GqBo99WYdTbpX1qbox47qZ0mK6u4kTDWvD6wY6/+vzf3kj1qqm3W17WHR3RWpo9ab9msOe2jMS1ozY2D1kC7X+DWH0XUcHgAAAACaxbhV9mFAUogkJ9v2O4SClmpb22Ncfhg7QTp8xmFbLdW8DTVrh3SnuZJ3VEjdPlj/pIGBRbNopYEU0OpYXgfmL1osDZHeGCL1q+V//5bOAs684fB+Gv2ctCXG+N3xPdLy3tuvLnO2Cecu52t03Kr6dWGQzPfTTZFXa/7b5SoYTwpp/UFla35eANSqSQNgAG1T3idLzdW/knSdpq/5UOMt6wEfO2p8eWzTi7pP1a2djRN/0LZsIzS+OjtL2dqm/16ZpWxlKVtStPJ0LEfm8Lg6AG7UFs15n2pu0rvKpuIXAAAAwJUs2ebD2I8fkpJqqbz9OFVSrHSnuw9qzaFFv1V1qFiLrb5m9LPSFklLY2xCj1pCTFtJIbUcUIdqpSbVGgMpNBtLsOIY1DhjCeE8OfaK4PBai5bx3pcUIiUNcf+eF/2sdPhZ4zHVKhdfsEi1eU9x9kWU9dXPh6cV/nWtlLzSNMnfLndsvqxj+15qCYXfeEi6s55dKzzl7r3fVm1/A5vySz+X/XkB4AkCYAB1lntMmv7CDG1b8K51W8Sdr2rNnUa1bnU17Y2avmaGpptv5aVvU7ZiND2hu46ulJSdpWzdoRfX3Kjv73tRPx/7TtuyJWV/p92/bpq5G3OQiwplAAAAAGjhPn7ISSDqbNtrUi/HD4wb8EHrx+uNUNHdh9zZqUbFWvZCKXtC/T4Qj35WSrbdMEE67CbIsv1gPLo1tEJuhYEUmte4Ccbr7+NUSe5C3Uzp48zqc654Tl5rFpbXnKfdBt5YKM1y+PLI0oUyHvNVrs//ONX416Pnw6Elr+V5byta8t8ud5YuNP4d5/CeO26VNG698ZqrbwcHT1ne+12xhNH1CXhb6/MCwCNezT0BAK3PwBmvaqyz5b13vWu0ah5jW/m7Wyvu+6M+y5Nyj2VJY36nsREDdcMYSYrR9OQZGqiBmr7mQ/1Wn5r/O/dTvbRAenHNh5o+qIGTHTRDa9Z8qFfujFSepUpZkja9qBW7JJmvveaV7tpw373mbQAAAADQQo1bZbRSdPyxVPslO9l3+Iw0u44f1C4dIvUKqf75WFL2a/bbLD+W6qhoy1qVmdJS2+Ai0whaHM97I1NGSONkXy9P1ibMlB5/zfgQ+fAZqd9r0qiFdbufl1UtgdQ48+PkSfXfG07u59KFxjXcnV+nQAotwrhE8y+1PLeWL2BEP0drb0uoFf2cdNjFlyqSze+LSSHSUjeti2c9K2m9wzE2X6Rw+Vib3wfr+nzM3mG8nzXXc7h0iIfvv3XUkv92uZPt5ksVlm2W99XWqLU+LwA8QgAMoFHsfvde3bfgUyl6hpJn3Fi9I++oflaWVqTuNlo5Jx7V3Pvu1Uub7tCLa17V2AjJWBv4Xr20KUbTkz/UmjUvaaw+1Uvm4LhBc7qv+scIf2M0dkxMzYPzjLWLP/uf3fW/IAAAAAA0mVhpy5n6t3WdtaMe7Y/N13T24e/hM87HG/esEbZ8vNAmQHAxzjh316itpaalWm5CddVvsjkE9rRl9OXUmgMpNLMJ1WGLu4pQy1rY1sC4lUjy9AsfnjB/iSJpvRGk1tYRYNYOactzRgt1l18eMT/+tl+6WLpQUqw0y837seU9cJanXQnM74X1WQ+1UR/DxtZK/nY5lSntN4/nrGW+5bWW7eL9mufF+TUb/LwA8BQtoAE0UJ4+m/uYVmRLY1+wVOzmqnu0jHWAN0lSjKYnDtTud+/VS5uM416xVvbu1or7XtRn0TOUvMayJu9ATV/zlrrPfUwrUndr7IyB9ZrZwMQZit70rvm/s+7Qi2tmaKD5mtr0oj5bYNuuunqeAAAAANCieLr+n+TBOriq/zqASSHS/traLJtDkSQ3Aaak6g/Wzf/WqQ2k7brAmeaqR/PN5DPmsDWkhayDatPW1XEtXmdm7ZDuXGic87Grx3qCNHuhfVvaugRSyS29TTZquHOC9MZrbtpAW9o/t7Y1NS1VzY3QRtfSBreua31HPysdTjRec71ec/46vXOC8fhmS4r2pI365fyyRSM+ho2tVf3tcsb8nNuuVe/uOLtjeF48GrtezwsATxEAA6ifiDv0ypo7jN/v/NCm5bMkRWrsK47bJM34UGtmOG40WjBPd9zsaoz6ztGjawIAAABAC1Tb+n9Sw9YAbGzjVkmHJedr0FpkVldFfbze85bES4cY4YslpLGs42kb9o5bZQRASSHVVbfN8QHzFRtIodFFJ0rRr0nZ652vOWtt/1zPtbebzQRp3EPSxw0MrpNCjDG2nJG00PgCSF3N3iFtyTQqNj9+zugm4Nhye5TNe5rj2qnJNq9xy/Oh16SPn23i11wjPYZ2zJXUDdXa/nY5yjYvI+cyvDUHw04rfJvieWkkrf15AeAxAmAAAAAAAIDWIqmWNWJdVuvUMYRsarYfrLusarRhud/Rz9l/cJ18xlzN9JC0NNY+KE0+Y/xrqQi2bLscH2Zf0YEUGl+sNC7WaDXr7AsTrbX9s1T9Om20MVyEWx4FWrHSYctjW9cvjdi8Fm2/xJEU0vTvO43xGNpxsk55bSxfznGlrfztqovGeF5qe1xt1ada90p8XoArCAEwAAAAAABAq1LHD15r+4C3Sax3vxbvfnO72lkTpKTXnFc1SvYVv8kuqqhqq2ayVARfTld6IIXG57INdGtt/9zWxUpbVhnvg0kPtf2wbNYOaVZtB7WGv102omOMf12t8WtVW4voBqjtcbV2mjDPo67BvaRW97wA8JhXc08AAAAAAAAAdbHeqCj19KdRPqi1rNnrgY8fknotNMIPl8esN9rVjks0Pqz+2EW76Fk7pMNn3KydW0vQDBux1c9JEo9ZqxNtfq1Y1xY1a7Xtn1uB7IW1v7+OWuhm9MFuxQAAIABJREFUgAnm1vTrpaUeVnG2aS38b1d9xnba/vkyyV4oJWVKsy3LH8Qa3TDqrK09LwAsCIABAAAAAABalQlGKOrpT2NWevaLcb8/KURKknTYTRVS9kLjA+RxibJWAX+80P0H6UuHOP/g2bIGbq8hzs//+KFaAppWhkDqCmZuAy3Zf2GiNbd/bnRugixLlWRSPYKt2TucvLd6WGlpeV5qrSJtI7IXun4/bsl/u5yKdf6lC4ta1whuQtkLpVGvSck7pH7mbeNWSbMz6/E3r7U9LwA8RQtoAAAAAACAVmW91MtFxWxTsVQZjnPzQffSIdLHHrSSXPqapAnVVb3jEmUEkuvN4aQjc4vb6OeMD57tWidPkLbEGq2NRzlpbbw/U8peL/XKbKYWrB5UKLtbt9FVq+bZO5xURWcaj0NtLI93trltMFqPGm2gaf9sb4JNy3QHHrVcbwpN2B64JdqfKSlT+iTTSTDaQv92ufT/2bv3+Kjqe//3LxBbQREDzCiXQr0A0RmD0VpFK5sNJhGkiFhRko5UYbM9Fdx0J/2l+wQ5HjBnm5/JaQTsr80PpDo7yW54iGjZYoihCAVvW9PgpI2KttBwcSYQEUVrQX5/rJnJWjNrJpOQ6/B+8kfIZN1mzfp+Z2Z9vp/Pt425t0sfN3529+CLyGvZHJxe+hq8nwIZQE2i0wb0tddFRBKlDGARERERERERkT6lB7J1QlmGP4+TWbT0tbaDrKHs35+Yb0wHs1JjZQGHHo95kz0072EqEMyyK51kZEGFjylOlnCXivNahYLdv+imTKuwsywglUzG5weviWBGYjiIkt93X9Mfp/RQ2+wuwTLBXZkl2pvO4QfBPnic3fPtpe9d8cwI9tP/db+1asJ/3R8MvM6OPUVBV7wupZPaHsjwixYY93g7pkfog6+LiCREGcAiIiIiIiIiIn1KN2TrLH0NloZ+CWYZ3j7byIIaa8q+jZVtZ6sRHnrcyOSNvGF+ez6MnwQPFUVkLTUamcHxbrID4SBwyPuNppKrs2Efxs1w26y0s02jMq/6slA7/K9NRvnz0GN9Uqi0bqyM0STwXy/QtRnavewcvt8IzI4RJOyD713j8+Enm+DnjfDzSfDziL//Itagp85+XYIVHt5PhZqWtgd8/KKldeoE24oREcfa114XEUmIMoBFRERERERERPqUbs7W+fEkeH+2caM7tL0fp7R/DtnQdmzLUqbCUz+D9x9vnasTWjMcf5JoKUsI33i3ZAwHz1ncm+BniS4PSEmXCl3X/1UULP8cK9jWF4SOPZmux0ajHH147uHGYIWCrtpfJ5/DccFKCqUdCAiGsmJjVmvoo+9dS1+zmZ5gdhvH2ImvS+kkI5N43PrE556G1goYP5/URiZyH31dRKRNygAWEREREREREenNfpxineOvQ9k6pnXG/8wahP0gOIdo1E3lUMZRxLy+ocyin0+C99fHmLfX7jmkQk2cEtHj8+EXjfDj++HHGNsdnw/7IoK/t6+H2zfFnzs3VFZaaH0dQ7+ndnFASrrWbLj9fiP4G7c0eh/xi5ZO2EjkNR5H3H4DjGBYRD9ll/kZEtWOghmaZ+r29YnPW94p59C03580ws/vb0cJ4Yj1Q31vMrx3hbTn9TDv70yF3zsTyPq1Fcyq/a/7jYEJt68H7k+e10VE4lIAWERERERERESkN+vMm/sh7xdBxuOtv/8k4sZ26Mb97euhxuZm7NLXYEYRZNwPGe/FyOoN+vkkEg463r4efoERBC5NjZ2x2xXnpFMlYUBKeo9Q6dTQ/896XXyN25bQDbbxZGQp13sG+vp7V2/QWefQEsDugj7jbHtdRPoIBYBFRERERERERM42dpm1EMzCaQzeLG7jJvH4fNg3wcgSK73DJkDSwfn8OpJp1esoICVdKCnaiEgHdMt7l7SbXheRXkkBYBERERERERERMbQ786uDQV4Rkd4uVlALiB7kob6wR53N7129eUDI2fy6iPQCCgCLiIiIiIiIiIj0BQpIiYiIiEgCFAAWEREREREREREREelympO7d9LrIiLJp39PH4CIiIiIiIiIiEiv16+nD0Ckk+maFhERSVoKAIuIiIiIiIiIiLTldPBn0/4ePQyRM/a3vxk/T8dfTERERPoulYAWERERERERERGJ55xz4NQp4/83X4MiZ9K3KfVXREQk2SkDWEREREREREREJJ57fmj6RcFf6etM1/B3b+65wxAREZEuowCwyFnq7bff5u233w7/Xz/1Uz/1Uz/1Uz/1Uz/1Uz/1Uz/1Uz9j/PyBB2b9gFbKoJS+rh+fpbpgw+aeb1/6qZ/6qZ/6qZ/6GfNnR/WbescCDVsU6aOee+bJDq13+vRpUi66oJOPRkRERERERERERERERDpDyyef0a9fxwYeKgNYRERERERERERERERERCRJKAAsIiIiIiIiIiIiIiIiIpIkFAAWEREREREREREREREREUkSAzpzY4MGnsfif5rHuMvGWh5vPtrCn/cdYNQIJ0NTLuLt+j9S9fzLnPjiy87cvYiIiIiIiIiIiIiIiIjIWa1TA8CTrp/I9268lvMHDbQ8ftm3R+NKvYLK517i2rQr+eHdt+OacBn/z+O/OOMg8NOrV3Ck5Rg/XV7Cj7JnM2/ObQwYEP20TnzxJat+VU7N9tfC6wE8sGS5ZbknVuQyZtQlPP7kOur2NFr+ljFlEg//cw6B5qO26w1LGWJ5PD0tlZ/9ywKGD0uxHMeBgx8z7nJrkDzWcYqIiIiIiIiIiIiIiIiIJKpTA8D9+/enX79+nPjiS1546XeMuGQ4kyddR//+/Tl/0EDm3TWDyudeAiA97Ur+35/9uFOCwCG/rtjErys2tbncj7JnM2qEkwEDBlC7aW348Q8+3MeokRczaOB5FK/ICz++768HWf2/K1jomcOggecx9lsjLeud+OJLvnHugKjtNR9p4fEn1wGQ+9B8Xnn1DX5dsYknVuSy768HeWDJcvIWz+f6dDePP7mO4UNTWOiZ0xmnQkRERERERERERERERETOQp0aAA5p+eRTXq79PVdfNY4brktj4HnfBOD8QQPJ/sHtPPdiDXBmQeCnV69g7LdGAoQDslte2UnxmmfirpcxZRJ3ff9W3tu7j6EpF4aDsqFtvrrrLZqPHuPWf7iBkqeeCWcBP716BYMGDeTx0nVMdI8nY8okXtyynck3XcfwYSlseWVnePuVG1+2BKLT01KjjiMyiBwKOKsstoiIiIiIiIiIiIiIiIh01DmXpl77aGdt7PJvf4sbvpPG0IsuZNL1E5n03YlR5aDPPXcA4y4fy6u7/ptTp06RnnYlqeMuZdcbdfz95MmE9/XClt/x7h/f59q0K2nc+xd++M//xu4369tcb1nuIv564DD/WvA/Of7ZCWZmTmb/gUP8f8se5vxBA/FW/ZaXX/k9l317NDMz/4EXtvwOgJSUIVzjHs/km77DuMvG0r9/f66ccBmDgs9v3GVjw49PdI1n/r2zcA5PYfeb9Yy4eDg3ffcaPtp3gD+820jmP97EV1/9nbvm/wTn8BRShlzI8sef4p36P3H1VeN4Z8+f+OgvTe0483K2uufO6R1ed+B53+jEIxEREREREREREREREZHO8uWXX9GvX78OrdupGcBff/01p0+fpl+/flxy8fCYyw0aeB53zco440zgie5ULhoymP0HDgPWrGA7obLLIaF5dlf822IaP/gzf3zvQ1b822JW/arcNpM4cKTFkhUcS2juXxERERERERERERERERGR7tSpAeD39v6Foy3HorJ+7XRGENiVejkDBgzg2rQr+c26J3j8yXXh4OyPsmcz67Yp/K+nfxMO9EZ6evUKHMOHsupX5eFl6n3v8/A/5zDRPd42CJz70HxGXOyIeUzNR1pY691o2UcoKO2ZO5O7vn8rBw5+rBLQIiIiIiIiIiIiIiIiItLp+k29Y8Hpztzg9Fu/x0LPXVw0ZHBCy5/44kt+8/zLTHSNJz3tSur2/CmhIHDGlEks9MwBYP+BwwxLGcIf3/uQqyZczpGWYzQ0fsis26aw+806/uHm63nut69Y5vod+62RNDR+yIQrxjJggDUOfvLkSb76+0kGDTwval7hp1ev4EjLMX66vCTqmPIWz+f6dLclEA1GRnDuQ/PD8w0/sSKXYSlDeGDJcss6w4emsNAzh7XejTGD1iJmzz3zZIfWO336NCkXXdDJRyMiIiIiIiIiIiIiIiKdoeWTz3pHCWiALa/8HiDhIPCggecx0T2BV3//FldOuJzxV3ybG76Txu92vhl3vcypN4UDvwAPLFnOj7Jnc9GQC6l8bgujRl4MGBm9V024nMmTruXXFZt4evUKzh80kLzlxQmXcn569QpL6ehr0660ZO+aNR9pafM52wWPwShJrcCviIiIiIiIiIiIiIiIiHRUpweAoX1B4E+OHWfXG3XcMWMq3/zGubzy6tttBn8BvnHuuWyufpV5d00PPzZ50rV8cuxTara/xo+yZ4cf3/HaO8y6bQoZUybxwJLlURm5oUDvW3W+cLZvrGxegHf2/ClmELctoX0NH5ZieTxUAhqIyjoWEREREREREREREREREUlElwSAIbEg8CfHjuOt+i0zMm5h7LdG8rudb7K6rCKh7f/Lvz0OEA4A/yh7No7hQ3nut69ELfvrik1MnnQtmVNvomb7a9TtaeSVV9/gxuuu5tcVm6jb08hbdT6umnA5YJSXvj7dzVrvRtss4XgZwGCUtTbPKwxw7oAB4TmAzX+LF2gWEREREREREREREREREWmPLgsAQ/wgsDn4++1vjWL779+k9Jf/0ebcv7FMnnQtgeaj4Xl+I/3xvQ/5h5uvJ2PKJGq2vxYOCuctnk/xmmeo973P9elufjArg9m3T2VL7a6Y5ZjjZQD/KHs2s26bAlizfff99SD3LPhph56biCSfEydOcOjQIT799FO+/vrrnj6cpNC/f38uvPBCRowYwaBBg3r6cCRBagudT22hb1JbiE3X9NlFbUH6MvVXZxf1V9KX9VR/1fj+h6z+pZd63x85efJUt+23Mw0YcA4T3Vex5EEPqeMv77HjSIZzKfZ0jUmiesu1Ir1Xv6l3LDjd1TuZfuv3LEHgUPD39ozJfHuMkfnb0eDv06tXcKTlWDgg+8SKXK5NuxKAfX89aJm7F4wA7bw5tzFgQOKxb3NJ5qdXr2Dst0bGXd4uAzjEfHyxNB9pUUawJOS5Z57s0HqnT58m5aILOvloJFEnTpzgvffeY/To0QwdOpRzzjmnpw8pKZw6dYqjR4/S1NTEhAkTdNOtD1Bb6BpqC32P2kJ8uqbPHmoL0tepvzp7qL+Svq4n+qvG9z9k4eJ/45wB32TAud+Afv26fJ9d4vRpTv79K06d/Btr1/x7jwRdkuZcij1dY5KoXnCtSNdr+eQz+nWwDXZLABiMIPADOXcC8HT583wn3cX3bkhn+67/5skzyPwVOZspANw3ffjhh1x44YU4HI6ePpSkFAgE+PTTT7n8cn3o6e3UFrqW2kLfobaQGF3TyU9tQZKF+qvkp/5KkkV39lcP/euj+Bo/ZMA3vtnl++oOJ7/6G+7Uy3nq/3+02/edbOdS7Okak0T15LUiXe9MAsBdWgLabMsrvw+XhA79LiJyNvr000/59re/3dOHkbSGDh1KU1NTTx+GJEBtoWupLfQdaguJ0TWd/NQWJFmov0p+6q8kWXRnf1Xv+yPfHDi47QX7iAHnfoN63x97ZN/Jdi7Fnq4xSVRPXivSu/Xv6QMQETnbfP311yoR1oXOOecczcHVR6gtdC21hb5DbSExuqaTn9qCJAv1V8lP/ZUki+7sr06ePJVcZWT79euxeVGT7lyKPV1jkqgevFakd1MAWEREREREREREREREREQkSSgALCIiIiIiIiIiIiIiIiKSJBQAFhERERERERERERERERFJEgoAi4iIiIiIiIiIiIiIiIgkCQWARURERERERERERERERESShALAIiIiIiIiIiIiIiIi0ivcvXIVL6zM7OnDEOnTBvT0AYhIX+Rne3EJNQHjN0dmLjl4Kd3qDz6QxdK8qTgA8FGRX83I3FymsI3SkmoCoc1YloOG8nwqDlkfi9RQnk/9xCKy3dbHai7JJeNwSZvrAwRqSyg9nEVhjjvOUiIdZbrmnfGWM9rRwdus17OxCS8F9elxr1G1Bel1fF4KXh7Vet35I/p8szRP1HUXqC2hHA9LpzmNazP0nhIp/N7hZ3txNY48D67gn6LbhY+KYj8ZlvckLw22G3aTXZROvfk961nIaaMdydnFuDYho80+PuK9IIF+3WgzB8goar2mWzcX0b7ibqOOa9o8vlYN5flU7CHcttB7g0jfE9F/mN9TQ+/HTo/NZ84IZ/LZMKF14/Vz+Nle7IX72ui/OtDPiUjfl7dmLa73FnL/auvjd69cxYNXQ93TD5P3YtvbuXvlKn7IZu54ZGvXHGhfNCuPFx5IhXer2jwveWvWcktLaLn5rN90BQ2zH6E45hqZFJfPZdjr0a+dsf51HIn12i1ZSe002BKxfesxRB7fKi7ZGmN7s/J44YEh7LQ9XuM408+P+USCDkUdj+1x33iMX+YUs6GtzSWlRM+lYX+t3bVh2PDI28zYNJf1S7bGXAbQtSIShwLAItJhLk8RGR+XUB783ZGZy9KrfZQ+C8aNzzomFqVHrOUmu8iDs7aE0sPO8E3MQG0JFYfcuKimvNZt3Kxo7/HkFFHo81JQvC3uDVL/YT+OS5LzboF/yzJW8TCPTY/1/PxUFyxm3QfGb+PvX8PDrGLx+veNB8YtYE1hFsbaPtbN/U9GP/UYWVSz7KF1vB/ajGU58K2dy4o/Wx87e7nJyKym9NltuDoaOHKn4/J6qZjY9o06O2oLwWty63gWPPUYWW28CLbX7551zH2s2rLc+PvXxGlbgttDdn2+tQ93RA9EMG4Qh35rvdnrAgJbSyjYaryfFBYZ27Ab7GCs6ucgPmry83HZ3dQOBaAdWWS0HiTZRUXRwebwDWsf9Z12QnoHtYXOYwR/nWR7oKKtPt5XR4MjnQwngJ/tL/tw3eaJvwPnVHIySyiv9ePqwOcg86CLmpJ8amwWcWTmRg2ycGTmUpgTfkenYitk5Pal4G8zuypfZ9i8maTa/m0jLemLmBn9x+Dfa+DWedwc+WI2bqZsx0FGTo61buv294+dw7ybhnfs6HdXstEHrjttjsF6QGwuqyMltFzjZso+uoJFM2IeHAR2Ufl8C+mLbM5N42bK6lKYM+9m4h55YBeVz+9nTJvHZ9r0S2XsaAIGu5gz72bYXcnGT9LjH6uckcC7dZDZGlT1H/bjnBhs186pLC2aSkN5PgUvxxsg6KNmqx+Xp2PtP6HPlf4DBByjrN8XwgNcEthvO/q53qkP9VcR/Ufz7kpqyDDWDeyi8vkGBsfdX3CvZ9D+E1o3Xj8X75xFbaN9/Zz0ErPy+OHVUPfuMdLvyePuF81BlPms33QLY2xXnEvtprkRjyUQrElGweDv0dqdMG0mxbO2xgmkz8c1+gQfbDWCaXevvI4xTW9zf9wdbCXvN2m8cE8ed69uX5Arb8IIPnu3Kuo1Kd7ayC0P2B9r8db9vPDAKopJbECA1Yn4AwmCQUGrNoLYQXevXMWDKW8zbfEz7T2oPiryXNqdp+DgAKy/2wZWp62ldpr5AWt71bUiEpsCwCLSA/w01EHGfcaX/PAN1SIPLnxU5JdQcXHrzfxAbQmldelGVkoMzouDX/LdHgpD9w58Xgq8PvsV9hhBhki2QYQklLWsiu8fWMaq4O/j71/DY9+pY1kpGIHfN7ih6obItVhetQDnlmUsPtB648a/ZRkr/pxFFutYtSX97AoKxLvGqKY0vzrqUftrzJpVH+bNpyD0f0cW96XX8azaQhuCgxxYwJplTSx+aBnYBL78W5a1DnwAYB2L564L/j+L5cuAzOVULXSHt9k06iy6ttspnEEIxjV12ENhhmmBRLIfsbtp66N+j5uJOTYLO91k5xUFt+0Dt3XbDTXVkJlLYa+9CdzV1BY6U3igQJFxnRUSf5BNQ70PR3qW8TdftdG/m/t0M9NACce0XJZ25ADDGXFFthlxDeX5VISyAYP7KZwWyhI0P89qGvDTYBNY6b1BleHcnA5lZZth0Y0cqdxIw/GIRXaUUbaj9dfB7mAAJPAe+48PJj3yRQzsonIHTL7TRd3zm2lMtQssBPc9bzItZRvZPLTtQEgkI/g7mMmTYccru5gQLxjbuJeDg8dwowOgmV11BxmZPjP+Dhw3k+GupGZ3M6kdCVAHgzzHgYbny2yrJ4TOpfFcjocfWzQjtL9GNvvAdaeCv13H+G51zX3hT+cEDjkZmWFdypVTRKHp95jVNmL1VWBbwaN1n8AlCRzuCKd1YNjH/tb+Mp529nO9U9/pr5o/2A/ujPC2mj85zuDLgu3acTPzFt1M40tllNW54gwkaeR133FGTu5Y+2/+5DiDL2qj7zrSwvHBKdb9hwe4TGh7J+3o56Rn5K1Zy/TRwV9GG0EgI2NwPusfSOVo7ULyVhvLPVieB+FMume4f3Z0AEUZwCbhLMeFRuBsNazfFCcgtuQKxny+n5deBJjPjKsHAbdQu+kWm4VNAbIXi7mjvQG2WXncMvoQOxdvDQepL4hYJP2BtdQ+EPzl80Yji/LFYu4Yu5LazPnwYnsDaIOs27R1qJ3blPaKlxEMRAdXda2IxKUAsIh0P181NSOyKHSGggbuYPAXjOysXLYX51NQb9xgcEzzkFFXQnmt28ji+ngbpd6IsqJ7rDcqjJuUHgqLIvftpeBlcAET8+xKj0Us6/X10kCYNZPXajFz10c8NK6zsnP91P0eFiw1TogROLiU5VULcHMD6+YuZt2oKhaknfGOwjZs2MCUKVNwOKx3OwKBAA0NDUyZMqXzdtYRNhmO9oIln4kIlnnzKXBksTSviCnQRplPt9pCPMFMxfH3r6EqOBCh6qlqlj00l50RGYvO6Y+xhmUsPnBvMLAFBKpZ9lAT91YtwL1nXXhZ/5ZVrLt0OVWdeF13RG9uC66cIgpzIHydT3QD285gi9ZSzQ35+cH/OcnIzcX1buRNax8F4QC0qQ2YBji4PEVMrDe1PcyDH7wU7AFHZhv9pNpCp7aF3nxNtzKu6T+km7NkMQbZOLdRmu+NLmXq81Kxx0lGhpNw9q+niGxi9++B2hIKzNd0wu8t5oF0WdTne2mwHI/p+NsMivio2QoZUcEVoz1ysenB3tYWUmcy52glNbth3rxF3Bz+Q+yMunCWKrCjrIwdYGTPDdtF5SuQsWgmw4HUO3dRWbmL4TEDHKnMvPMIlXEDL9HCmW2LUoNb2UxZ5a6YgZTGjw4yeOyNxt8aXzeCRhGBorDBrQGZ4TfNY16Cx2QRzohbZJsR1/hSGTuYHA6KDL9pHotuCmUJmp9nHQc5zkGbwIqCKp3Fz8GAzcCNGBmyQDCQawwEMSQ6hUm8Y4DAYT/YvpOa39dD79lOMnI9UOcnEDC9J5uO21q1oIP9nPor884T7K+aeW8fjLl1ePj3I8cGkzLMulTqjEWWbZgHgljE6qsARk+OkeHbzJFjwEUxD7LVkGGW59t89Hi4v3wv3nrt7OekZxQvXkhxMJuXcGDI+H3ou1Xcsbp1Odas5cFNKxk7+xGKl6ykdtqIGFu1ywBOIPCURO5euYoHL9vPL2c/YsrKfYb7Zx+iuHwt68dGnov5rJ82gs/e3ckGQtm/O5m2mNhZjbPyeGGTORjXRtakSV6mUZK6GCwB5ISyI1c/wrTYf40jwazOuOWBxWAfIB1j89j+M9yTrhWR+BQAFpFuF/jYuMFpzPnrxuXwURG+uR/iJiO9moJiP0vzpjLlNjc13mrq04CLjTJmhtYv/G2N9rbLNA702bmjnGQVVpEV8WjbJaDP0J7fsu7Se6lyhMqKZgWDvwBuFlStobpgLnPfXN4aSDgDGzZsYMOGDWzfvp1HH300HCQIBAL84he/oKHBuI3UY0ECc5atiWXetTAnU/KCUVh3EYU5dnMA+6iwBAcil3GqLdgJhEqUZ7G8qgrLS+LI4rGqLHxr5zJ3rrUMrnP6YyxfO5dlW9bw2HQ/60IBr4htr1p/KcurevaOYa9vC0GBWq9xDRrJom0wZb6Hb/aGSkBn4cQ8OCi0vBdozV4MC2YYZ+Ol5pCTQMBvf6PXpu1FloCu6MvJAH2oLfSJa9pcPWGrfbUEgApLGXIj4BsKgARqvdSMCL5XxCoYgfWaNuZzd+Mvz6d0j3kpn6WyRGgqjtK6dJYWGe8bLk8dBcHjyfg4NF9xEUst/Xtk1YnW5+bIzCXbiZFpF5wDm9pqGtLs3+96k3CgM1gK1cISfBhslFuesQheKmPvZaZgS+Nmyp431t1Y1hquHDx6JDWVu8iIFVRxDGMwDex4qZHUNsuctpZhbc2SBVJnsmjYLirLNkeXMm3czI6mwbiuH044+3fyImYSu4xz8+5KysyBmMHxsvSi193oG8zkRensLdtMo+V4TMffZlCkkdd94IoKrjSyuWwHDFVQpXMY0xuE+byUfpzVrkzYhnIveEKDPxKci9fM7zfe9vfU0ZDjthlYaBxjQ3kJgYxcpjiN6YIc/moqAqH3e/v9hqtBtauf6916f3/VTMtxm4EbMTJkgWAg1xgIEjxAa9n6dmum5Tgc/6QZ7IfFsLlsB8YZOEhZ2Q6M85UB+45z/PhGykLvu6bjtlYt6Ix+TrrFLAdDgaOAUSb2FoZ+foILro4M5B5iSy1M37QSamnN9IOouTbz1qxlekro75GlaJOZuTR2Kg9uWsuDdotNW0vthJ3h4NndK69jDPAZBEtvH2PL7GeA+bF3Zc78DZ7/N8aupHaTNTBvCQo27WTae1cYr83ircG5XYcYwbaxK42gdU7omKzZ3MZ80IMs27EbBDB901qmh38zB/IGMWwqQ5cwAAAgAElEQVRs7KcTej53r1zF9Ka3TQE9u2DniOhz2xRn20mnIyWgO2DJSl0rIm1QAFhE2sl009CbH/wiVUJp8GfoBmJpsRNHjDwqxzQPGcUl1N8WyhgLssl8nBK6we82MhgbyvMj5mcMjjav8xGYZp8pEy5vlpZFhqOainIfhTlusoucRqZxwMgoi7rB4bbJmjzLHTjwZ+CG4DyRWWSNq2bF3Mgyx1ks+N5/MrfgFqoKI0PU7TNlyhS2b99OIBDg0Ucf5dFHHwUIBwccDkePB7wiMxVbRQYLIq6zYElQx8sllH7sYek02F5cx8Q8jyX4Gw6mhagtWIQGIiy4fzzvr7e7Hk0yb4HSuRj/qqgKZ9C3Zs1Xz60GxrPg/ksB8P/3Tt7nfd7YswB3D2YA94m24PMGs3JLKCWXpVe3/ik08MfKGBRhf9Q+KrYeMNYND6iIXMb0fhQsSdlQDqR7yD5cQkW4hKVN2yPL2q7C3GQHS/zaBrDVFjqtLfT2azpUSrSwqI15e03LF9R7WHpJNTUBJ0Y8209DnZNs87yWgejpASyDFXxeKg5lsTTHiQPT56RY1SHcEYMh3B4KPV4KvPn4TXNpW7W2vYbyfGPQBOkxM44d03ItZWPD++klbaE1M24kkxfNJDV1JovCd/HjzanZyN6mkVxx2WbKXrqCRZftNebUXRSjrHJjnAzdxr0cHDyYwU117Aqkxg52mIM9PlNwIsKOsjL2hufWNAK+MNh4RrtraBgy2XiOjTH2Q2tGLhjnqO6iCTS/VMZGyw2lg5bA0cjJi7jxaCUb941hziLjeaZO3ktZ8HhuPBqar3gR8yzP0TjPraVsW5/bYPccZjowMu1egYx5N8PuOg6Onmx6naTzGINQAgFfjEErNp/1fF6jOkZEFZnIDOJ4ZeAbaqoJpHnIxku9D1y277E+6vc4jWkd/H78Dqh/2YcjMzduJZqoQV8J9XMRy6u/Mv0tkf4qlZnmBtq4mcqjN7YrE7bxpR0wOTT4I8G5eM0CRzgO0LSXRlJtspWNY2x8qZIj18/jZkcjm8v2MuzI6+w4Hjy/MfbbvLsj/Zz0pLzMMfA5jJm2lhecVdyRszDu8sWrMQJDgDXgaQq0NO1kWs5ZNsfmkpXUToMtsxe2MW+vaflNK9ny9DFuuXoQn31+AoC7rx/D0dqH4we1mnaaMi/ns37aEOqefoQNL8KGcGax/Zyod69cBeeHXqtDbJn9MMWz8nhhGmyZ3TqP8IZHNnND+VzWL9nK/athwyMPB7OTV/FgCkZ2pzmLOW425lbe+GgmD0bNNWvnBHVPh56bTanxiMEGoef0YEpb2xUw2nnbr4FRXvlu5xBdKyJtUABYRNrJyZS8XAhmT2V8bNyYz8Fr3KC/2hfMGHFSk18XcxuudCc19V4qvL6IwFl0dkvopmiobK5romlxvx+/w42LOhr8Uy03M0LLOyw3Bqbiqi2htNbJ0mmhG6D+YPCrN89vZxU9Z6OZTQlogMyHWfDnVUbZ6MfmUh1cdnHEOosLxjOeS4mcARhg1PSHWVCwmDfuqaJqIcACFoBRbvQ3oy1lprOm22ygnRwORzgwEAoSOJ3OcHDgqaeeOvOddAprpmJ0BrBRVq+Vn+0v+3E4IBDwWzPLzNnwaR4KpzmNYO9EtQU77oWha9F6zcXOhs8KZs7/gB/E2/Cedaw7YGRGVn2nmmUPLaPaZv7U7tLr24LPS0H9KDIcfrgvF0dNPhVRNQriM7IeE7vujGvaSUZuEYURizsvduKaFhE4K8nnD5m5xnuUF7KLYpfWtcyJmOZJqARvb9DX2kJvv6aNuTKNPjFqfvZIwTL+hUBDebVR0vRZL8ZnJo/NsjGuP/82Sr0+HA4/5bXudvbB0YORAjZZy5Zgs38b9YeckO6h8OJqSmv95OA1Mu3uC23WS4GXiGz83sUoQWrc+LfNpoPo8qODXcxJb+Hg6CuYyV52AKTOZPJHZcEsMggHaAAjCHsc160zbfLQjADt4LFzyKCGjW81crNNVl2olGjMgI3N8mUfTWbORXU0HB/M4MHGvt7bN5jJ80zbP95gCeJCsDSsKUtwxzEXc2YMZzimcq2NsbKHzRl8xnlZxGbKdpRR457DokV2AaDh3BwsZdv4Uhl1xwZznDExM46H3zSPRQmdBWk3v48/jMgiYwS4ciL6muBAEpe5a/Fvo/RlPw7cpnL20Zm4DeVxykkHA7sZuW5cZFHz7DYCbpt+zu/Hn5Zu7MN/gMCIdJbmJDbIJrSfdvdzvUxf6a/s1rFk1FoEs5TNL3jjZiPQ3RTxXCIyiOOVgW98q4HjoyczmR3sbYRU28NsZG/TYK6YgREwHgx76w4y2D0nbjl+8wAZIMF+TnrOfFwp+/mgJZVhr1dx5MaZFM/aGgwYBjMIXzfKFeetWcstLVVGlp8poLMhGHSJzvpdG1x3K3k5fbkMUIKC5+TulauoDWU/xmRkO06bDSxZyS3vVvEfzOSHtAbPIpe1L4drZGyP+fwEQ+/J4+4XiyPWjWZsP5PilSPIe8TIMl4fnNfVmpEZNG0VxfsSKy3d9n5jsQ9Ws2QltRP2xi8zDGx4az8/fOAK8uAsKQXc0RLQCZQJN80BrGtFpG0KAItID0on25xZE3Pu09ZMyGxKLFmPDTXVkJ5LBl5Ka3xMyWn9tt86J6WVY1ouSy2PxMtC652c0x+jKvKTTHDOR4CsZbHm4R0PBYtpuqeK7x8wggIPs8oIDnynjmWl8HDhKH47941Yeyb9e+NZ9+Y6eKyayPyyxXNb54qMfQztExkkCAQCvSI4YGVXxjw6A3hk8H9GmdwsrqnzcjDyJpV/G6Ul1RAMwBql0rNYappfVW2hmzmyePj+nSx+wUdWJ5Q27/Bh9OK20FAP2TluAsXGwB9XThEu/zZK68DIgvRDwEvpJblYL8XWOQfD/b7PS0E9cYNNzkucsMdPjd38hpEZTKF1LnaCcypLI7KAHNNyWWoaDBGVaSStOrkt9OZr2ixuMCE4n3p42ZxcwM/29u4k2PcHANdtuWR8XEKFL7fNIIZlTvmosunRy7a+b/jZXgMT0zHakNvDUrePinw/Ls9UHKE5vN0estPywxUjer3UmSxKjV12NDzv7oxUmndXQtMOypoADlJWeQTXkFAgIxigCQZqrlh0Y+x9Nr5Ow/GRTL5pOMNJZ2SZfVadEfhpZldlmSlTNobBLubMW8QioPGlOqOk6Ss1GIHWmTbLxij1GthF5Y6DDB58nJrdE9o5j6W5vKrhuE3WsiXYHNjF3mODYWwGi4a+TuXuZiPItG8Mc24NbXYzZTswBaukMzXU1HFNRi5T/F5Ka/3WwYheHy6PeWCTj4qSOq7JzeJgSayBuwnss9xLQ5rHKB/PVDJG5NsOYgm8W0fgUDoBwF/vwzXRY+n7wkzv7S5PERPrO9rP9XK9uL+yCLzH/iEuXENgwoyIviY4kGSCef3ALirrjjOYkaZy9tGZuI0vlRH7qjMCu647U0nlCHWv7KI51aafCxzh+OgrjH0caeH4kCuYNyOxQTah/bS7n5Nud/fK6+D1hzk8YS3DMAK1d69cRW2mMbfnGx/N5IfOTGAErtEn+GBrdCA3VO51f+1CU5bfVvJyRrB+01pqpx1iy9k2R6clQzeSEcAKW/0IdwB3r2xP+4JQgD79fKDpbe7Y6uCFNfPZ0EYAzLxe7aZbjFLesxeywRxYG2vKnFyyktrM+fBixzK6LeWA29AawAwGKju0x2Q3gmHnR7apREpAj2DY+XCkrc2bS4vrWhFpkwLAItLNWgNlLk9wvsXgzf9w0Mm/jdIaJ0uDNxobylvnNW0oN23Kv42aPW4ycpw4yMKVX832DHdUSbOCl0ex9D4ofxZy7oPykjquMZc+82+jtOSAadR73+PfsozFB+5lzf1/ZhUPc8Obc1lH5wRg7d3Agqpg9i/YZgB3JnOQAOh1wYH2ZgD7DzvJyHESsNz1CJWzNbIapziDmWcjPBTmqS3E52Pd3BVRAxKis+HN8576qS5YbGTER8haVtV6bQc5v3ML439/AD/uLrnGE9Vb24Irx0NU0Ms5laV5gM9LTcCJK82oqmwpJ+uro8GRToYzWHH5cDWlWyG7KJ36PXWEgsfO25yYazLbBml9Xgpe9uMIOONfw+Z5XS2is4j6SiZ8q+5rC9A5wcDeek13GZsS0I7MXDIOG/0xz5ZwEOMaz05gc60DfIz5NBM+jFovf7jEQ47p9nugtpoGR1bUHN6uHA+ufC8VE3tvVl204zTEmqtytPEjnAHWuNkopTojlcaXGtgRXm8kV7S5n9b5eI3YQCozJ++l7JVdTIgz327cYELjZspML2XqjHnGfto8lgiBXVQ+38BxYGT6PG48WsnmxnltBjFaS9SCNavQftm94d+a2fUWXDEW46pKnck8GtlcdpyRk29meOgZBDMXE5svWdrF56WCLKMyhtNDzsclFJRnUZjjZHuxF3+mdVqR1nl/fVScyT73mKZPwOgz6vO9bL/aWmraMS2Xwou9FOTnA26ycwCmsrRoanCJGHMPuzvWz/Udvbu/anxrP2Oun8fNRzZTubvZNJCkkc07DjJysjnTuJHNz+9nzJ3ptDy/136DCWh8aQcHR082ysdzM+lDymwHsTR/sJ/jx6AZaP7oICMvm2np+8JM53fk5EVc8VFH+znpCWPZz0urYeya1sc2PPI2MzZdR/GsZ8jzH+PBG9O4e8kQxny+n5csmX2mACTxSsuOYHp5Hvty2s5OFTs22Z6fN/LL14cw7qMqfslMo6StJXAXx6w0xp0P+2uNzG6rYxx+EVhiemj1I5zJ+N342ZwhsbI6z2DHyWqWg6GfH2Nfh9aLbMNtraNrRaQtCgCLSAf4ORhwM9ENfGz83nqDPiR0I8AXMQrbHCgLfsn3FBlf8kM3G51TybmkhIL8OmPZnCKbG/l+tj9rZEm6gtvNyKym9NltuMIZxMYcWK7bPK2ZLM6pLC1ys704n4rbisgmGBTzQGm+1zqiPBgk6M1lxMI37i9dTtVCN/4txqPuhVWwdi7LDqyxKfvZUa1zSmYtM17bdXP/k9FPPdZa6DVQzbIXRvFYF2RJhoIEDkdvLMjavgzgqGCZ6VordAd/LzECVI701tdPbSEWNwuqrIGq2GVvrayZ6kZ7arJZzv/fO3n/0nt7NPgb0rvbQoRgSVvSPGRcUk25+fGSP3EeX5KRa2QjOXI81OfXMbHIgyv03hGcKxuvl4aiOCWlfV4KvH5jXkO2UZpfQsBuPmuwnQswetBGvP2oLbx/6b2ddLyGPnVNn6mYJaA7mDncQaGBSNSGHthG+VbIyLU7NjcZmU5KXzaVde31bcGmJCmhjDqbxZt2UFa2l5GjIzPq4mt8aSMNuJhjjhyk3oirbmMHMm47yKYE9GD3HNI/2c+YO+fAKxtpwQggJZK3Y2QqQyibMFHNu2vYf1EGE0yF/Jp313FwcPD8mFI8U2dMZm/ZDjY3piqrrtP4qPBiCcSGKlwU5PttBzTZf65szy5b+wHrdtxke+ooKCmByPdidxYZDh81AV/3VRZQfwV0sL9q3MwO0lnkABwzydhdSdlL6SyaMZxdlTs47p6DuSJ967y/jWxO5KnbHuhmdjSNZLJpDmKjz6hh1zjreRp+0zwWDd1MWVkZMJLJMwBuZt6im4NLxJh7OLVj/Zz0jOJHjBxCa/bcMzQ03cIt12fCW8f4bNoQZkwYwf7XH4kIzhgZw5bS0KY5N8euWct04mXCSmJil+015lltZ+awKVBsZFxC3dMP88b11zGm6W2b+Yvns37TFTTYZHHnrVnFJVsTL/lrLRMuHTJ2CBe07G33+bv7+jFc0PJ2+9bTtSLSJgWARaT9fHU0OEaREfr9cB1/CLjJiMgYaYtRBtc6Ej0kPEI8xo2BhvISIzPSdCPDMS2X7MP5lBbD0rypUOulhuhMllCZW2M7PhzpWTjcU1maWUJpXylxCOGSz1nLqqiyyfR1L6zi4S3LmDsXS6ZX0wdZ3JAGHDB+r/v9+1x6jzV4v6DKCPBaC0FnsbxqQTDny091wQpYVmVs91BwEUcWD49axty5l5qW7Ty9NzjQ3jmAI1cPBqT82yjNryaAm+yiIlzBrOCCrbHL3aktdKUDVBesCGZGZrG8qvecj97bFkxCmbZpHgpz3ARqI9qA40ruypuKI5z9br7OnYx0+KjwBjPiQ0FdRxZLTd1V63y9brKLQoMgprK0yElFvlEKuvfe8O1Lur4t9OZrusFrX1Y8zDGquw6lDXaDkaxCc8e7gvNuhmNyTnMWXrQ+Uxo9sIvNH0AiGXWWTNfRk4MZdWUJZ9Q1764MBikiM+eGc/O8ybSUbWTz0G4oGxqzBHQHM4c7qPmTwaTPGA67gw8EdlHjA9eddseWyo3uOjbWxSjrKu1kzI1LOBAbel/FGHRS5Kahjc+T8bZrtAcnGRmtb8DG+y/BqjU2q7o9FHq8FJTk84dw8Dm4vTQPhXlOtheXUFrb3kobifdzvV6v768a2bwDSyB2+E3zmLO7krKy47bz97YOIOmg4LzIrVnK4S0b2crPV0JksDwYxG44flCVBc4yxYsXBgM4W7njxfms3wQNi63LhMq1fvZuMPhrkcm+rQv55fWrWkvHnk2BnNG3GM87phNtl+LtMq2Z25+9W8W02VuDr+Uxtsy2CdbPcjA08rHQ82vaybR2ZJQWL17IvpWreHDTSsYmWhbc9lyO4MFNa3nQ8tghkl8mxTcagzHaZz4zroa6p9s7GEPXikhbFAAWkXZrqPeTcV8WDcX51ATA4QAyPVCeT8EeIM2Dw3LDwM1Ea/VOwDT/qKkcpyMzqzXzxO0xsiEj1XuNOVHzov/oyikiuzyf0nInhTmmm5VON9dQElV20Xwzw1KWNLT/iCyx3sK3di4r/ryANVVVcTMSjbmC/VQXzGXupcup+u4bVI8bzfdDCxx4g50fZHFvGlgn34rPv2UVO7+3hsdsAs/O6Y9RNWodc9f6qOrB+VK7j7XsXceWMQfAzFkURoDWVVtCafG26KwxtYUzVv3Y3Khyua15pqPIKqwiTt6p2LK/nh0XOwl4WzPjHZm5+MvzKd1jBHkLg51ZKKjryMw1DWwwglOB2hJKiz/nJn7P7vCNbfuMxeyiouCx5FPgBdI8ZOM1zSMYKboEtHGgpoxNtYWzUnvmAO40dvNi4rP23cHBFa06YW5Mc4n0NI9N2wrtqpe1hcARjnOQHc/D5EVXsNfXdkZdOFDRuJmyj0JLRGbUpTJzUSqRgVQjGBOvbGgqM+88QuXzZVQejQ6SHNxRRtmOOM9ncEqiz7yLHWRHWRnxDnXkZcbP1OC8m82hPzjMWXjRwiVt5Yw1lAfLO+OlIN8HWN9XAabkFTElGDytgIj+I9bn1NB7aeT+8o3Pn7bvv+bVPRQW+ajIL6Hg8CwyDr0IoWo3wWNylOdTEFVEp3UO4E7p59RfdaC/MubGJRyIbWZX5UZj/vLBLuYsmsB7lRsp88UvnxzNPOfuYFzXt/aNzbsr2egD152L7OckTp3JIjZT9nwZ+93W4zw4ejKL5g1nV+VGKncPb2f1hcT7OeklZuXxwgOpXGDzpzGb1jIdIxC0M2WukZ03u5gNZFJcvjZcCvqzd3eyga3wIvCiUdI1b81aHkxoftok0Z45gDuNtSR3yBhL+ehDNL47hEGvh+Zrns/6TWsZ07STaeaA3uq97J92S2vgrGlnMACXyQ2XDWrj+cXXWuY34ng/b4wuT7z6EdO80nHMyuOFB4Z06Hj6lFlpjKOR/4hzTqzz6B5iy2pgyRVGxm57yj9jZJcP07UiEle/qXcsON3TByEiHfPcM092aL3Tp0+TcpHdx2XpDm+//TbXXdcVH6bbLvXpW7uMA3c8DKXGfI/jx42H7z3MvQcWs2IrkLmcqoWY5pAMZv0Gqln2UBP3Rmb1BrOQAcbf35nlps9MV55j6Tyd8joFqln20Dreb8cqxrWKUeL2Hpuyt/dUsYB1zH3zhj4/iEFtoW9QW0icrunk1uHX1zQvphEQqCMlHFAxBxxs5t+1zKlZyZGLBtPgOxjMrDWCHA3HITRPJC+VseNYrKzbqANrDU7MCAZmKjfSkt7WHMApEduPUcbUdlkz0/6G2cyLGSl8nKFj38sVbc2NeZn1uTTvrqSGjNYATDCjL3r7yU/9VXJL5v5qMjuou2gO84a+Hmy/9kFqy/HGbd8x+rDQVjp0nNfiOvZOVH9qncfcRif0c8mou/qrG6fexfkX9pZBTp3j809beH3bc92+32Q8l2JP15gkqqeuFel6LZ98Rr9+/Tq0rgLAIn2YAsB9k24GdT2d475Br1PX0znuG/Q6JU7nKrnp9ZVkous5uen1lWSiAHDHKTgnXU3XmCRKAeDkdSYB4P6dfCwiIiIiIiIiIiIiIiIiItJDFAAWEREREREREREREREREUkSCgCLiIiIiIiIiIiIiIiIiCQJBYBFRERERERERERERERERJKEAsAiIiIiIiIiIiIiIiIiIklCAWARkW7Wv39/Tp061dOHkbROnTpF//56e+sL1Ba6ltpC36G2kBhd08lPbUGShfqr5Kf+SpJFd/ZXAwacA6dPd8u+usXp08Zz6gFJdy7Fnq4xSVQPXivSu+kbiYhIN7vwwgs5evRoTx9G0jp69CgXXnhhTx+GJEBtoWupLfQdaguJ0TWd/NQWJFmov0p+6q8kWXRnfzXRfRUn//5Vt+yrO5z8+1dMdF/VI/tOtnMp9nSNSaJ68lqR3k0BYBGRbjZixAiampoIBAIaNd6JTp06RSAQoKmpiREjRvT04UgC1Ba6htpC36O2EJ+u6bOH2oL0deqvzh7qr6Sv64n+asmDHk6d/Bsnv/pb384sPH2ak1/9jVMn/8aSBz09cghJcy7Fnq4xSVQvuFakd+s39Y4FasEifdRzzzzZofVOnz5NykUXdPLRSHucOHGCQ4cO8emnn/L111/39OEkhf79+3PhhRcyYsQIBg0a1NOHIwlSW+h8agt9k9pCbLqmzy5qC9KXqb86u6i/kr6sp/qrxvc/ZPUvvdT7/sjJk31z8MSAAecw0X0VSx70kDr+8h47jmQ4l2JP15gkqrdcK9K1Wj75jH79+nVoXQWARfowBYBFRERERERERERERESSz5kEgAd08rFYOIal8L0br2Xc5WPo378/J774kj/saWTHa2+f8bYzpkxi3l3TWf2/K6jb00je4vlMv/WWmMufPHmSyo0vU+9rJPeh+bzy6hv8umKTZZn0tFR+9i8LAHj8yXXU7WmM2ufD/5xDoPkoDyxZbvnbEytyGZYyxPJ4aHvDh6WEHzvxxZccOPgx4y4fa3ucJ774klW/Kqdm+2uJnQgRERERERERERERERERkaAuCQBfNeEy7s+eTZprPAMGWHcx67YpHPv0M7b+bje/+vWGDu+jZvtrZE69iZ/9ywIef3IdxWueoXjNM+G/P7EiF4CfLi+JWveVV9/gru/fCmAJAi/5p2zOPfdcALJ/cLslAJyelspCzxwGDTyPsd8aSe2mteG/nfjiS75x7gAGDBhgebz5SAuPP7kOwBJ0fmJFLvv+epAHliwnb/F8rk938/iT6xg+NIWFnjkdPiciIiIiIiIiIiIiIiIicnbr39kb/O61V7P8f/xfXDvxqqjgL0C/fv24aMhgfjArg8JlDzNo4Hkd3tdPl5fw+YkvmDb5BvIWz+fp1Stsl8uYMonfrHuCjCmTACPo++qut5g86drwMk+vXsH5gwaysviX/K+nf0PquEvJWzw//Pcl/5TNoEEDebx0HVte2cnJkyfZ+NtXaD7SwqCB51Gz/bXw496qzUybvZB7Fvw0Kos4JBREnn7rLQwflkLxijx+tnQBgwYN7PD5EBEREREREREREREREZGz2zmXpl77aGdtbNDA8/gf//IAY0aPaHPZfv36cYlzGKcxMmU/Pf55h/b5wpbfsfvNena/Wc8dM/6R7026lprfvUbmP94EwW0/vCiH/QcO88v1VeH1dr9ZzwtbfkfGlEk8+e8/48SJL/A8+H9z+ONmPvpLE81HWrjnztu4duKV1PzuNVJShnCNezyTb/oO4y4bS//+/blywmXhgO24y8aGH5/oGs/8e2fhHJ7C7jfrGXHxcG767jV8tO8Af3i3kcx/vImvvvo7d83/Cc7hKaQMuZDljz/FO/V/4uqrxvHOnj/x0V+aOnQ+5Oxyz53TO7zuwPO+0YlHIiIiIiIiIiIiIiIiIp3lyy+/6h1zAF9/rZuRlzgS3/mAAbhSL2foRRcyetTFPPnLcvb99WCb65nn1jXPmVv53BYWeuaEM30Bpk2+gf0HDvPT5SVR67266y0ypkyiZvtrlvLRYJSYrtn+Gk+vXsHTq1ew47V3CBxpoeSpZ2Jm9UYen4iIiIiIiIiIiIiIiIhId+rUAPCAc86hf//2V5Xu378faVeN5757v8/KJ37V5vJ1exq5Z8FPyZgyyTJnbihoC5A51cgANgd2I9er971P8ZpnwiWi13o3htfPWzyfqyZczgNLlgPwo+zZgDGX74iLYwe5m4+0sNa7Mfz706tXMPZbIwHwzJ3JXd+/lQMHP46aR7h4RR5gzCcsIiIiIiIiIiIiIiIiItIRnRoAfm/vXzjacozzE5zH9vTp0xw4+DGjRl5Mv379mOiawHevvZo333m3Xfud6B5P3uL5tnMOm4OszUdaePzJdXG39aPs2cybcxsDBgzA96e94QzhX1ds4tcVm3h69Qre2fMnfrq8JGrdvMXzuT7dTfPRFu5Z8NPw4+lpqeQ+NJ9XXn2DX1ds4okVuez760EeWLI8vM7jT65j+NAUS0BbRERERERERERERERERKQ9OjUA3HTwY2p3vMG8u6bzzW+0Pb/on/cd4L29f2HK964H4Jvf/AZDLryg3fsNZfKaPbEiF8A2UGsuER0yaNaQc6YAACAASURBVNBAfrZ0ASdPnqRy48v8umJTzP1dm3alJbBs1nykpc3jtTsmsGYwi4iIiIiIiIiIiIiIiIi0V6cGgAG8v/ktX3z5N3549+0MvuB822VOnfqael8jGzfXsuCHd4aXO3HiC5qPth1A7QonTnwRnks4JFQq2lwaGoiZAZwI8zzEZqES0ABbXtkZFdAWEREREREREREREREREWlLpweAAb4+dYpzBwzg9OnTHP3kU7766isGDRzIkaOf8NG+JmpffYMRFw/nXx78IY5gIPTrr7/mrboG6vY0dmifT/77z9hc/Wq7MmiHXHgBqx7/N3bs/m/bv48aeTHnnntu1OPxMoDBmMc3Mph87oAB4TmAzX8zl4Du6HMXEREREREREREREREREYEuCAC7r7yC2zP/gcCRFna+9g6Vz73EhHHfZvjQFM4775tcc/UE/vXHHoYPS6Ffv36AkRH8+9ff4Rfr/rPd+wuVbn5nz5/aFfwdNGgg/3TfXVRufJljn37Gueeey6iRF1uWGT50CH//+9+jspLjZQD/KHs2s26bAlizfff99aBlXmARERERERERERERERERkc7W6QFg35/2suDh5ZbHmg58zNRbbuC6a65i+NAUzjmnP6dPn+brr7+mf//+HP/sc7btfJMTX3zZrn1NdI8H4PHSde0K/k50j+fEiS9Ybsq6nXfXdDxzZ+KZOzO8XGg+4MjM3EQygAHq9jRGBX2fWJHLtWlXRq1jLgHdfKRFGcEiIiIiIiIiIiIiIiIi0m79pt6x4HRP7fz6dBf33XsH4y8fw76mQ6z4n7+k6eDHPXU4In3Oc8882aH1Tp8+TcpFF3Ty0YiIiIiIiIiIiIiIiEhnaPnks3A15fbqkjmAE/VWXQNv1TUAMGHctxX8FRERERERERERERERERE5A/17+gBC3vvgLz19CCIiIiIiIiIiIiIiIiIifVqPZgCLSN/00Ucf9fQhiIiIiIiIiIiIiIiI9GqXXXZZj+xXAWAR6ZCe6rR6s48++kjnpQ/S69Y9dJ5FpDdQXyTtpWumb9Lr1j10nqW9dM30TXrduo/Odd+k101E4unJZLpeUwJaRERERERERERERERERETOjALAIiIiIiIiIiIiIiIiIiJJQgFgEREREREREREREREREZEkoQCwiIiIiIiIiIiIiIiIiEiSUABYRERERERERERERERERCRJKAAsIiIiIiIiIiIiIiIiIpIkFAAWEREREREREREREREREUkSCgCLiIiIiIiIiIiIiIiIiCQJBYBFRERERERERERERERERJKEAsAiIiIiIiIiIiIiIiIiIklCAWARERERERERERERERERkSShALCIiIiIiIiIiIiIiIiISJJQAFhEREREREREREREREREJEkM6OkDEBGJy+elwOsDRxZL86biiLFYoLaE0q3+treX5qEwx92ph9iTGsrzqSD0nHxU5HtpiLGsy1NEtvmp+7dRWlINmbksnQbbi0uoCbSxrs9LgReyizy4aD3vrdv2s73YC/flMsUZ+j32dh2ZWTi3VtOQ5qEww286HmeHzkfvFToP7uC5C71Wbuu5rEuPe51js17ih2C83oE22pJIlwpdh4CjrbYe6v+D/XZDeT4Ve5xk5Ib6F9sdGG1tRHRfH+qv2tyvSK/RC947bMRsS8E26/IUke1sbevR2mrHYtX6Waqt/itWP2k8TvzPwcHXz7IP02M5eCk9nBX3c3RoP1GfOc8a3fRamei97Uy1fn+Kf91G9seRjyfwuabNY4ixbYzP7v7QtWEnyb7jdrrQ58/geWrr3oH5tYx6n23jO1X0tt240nw0xHrt4r4ndu77d+8XcT8jzUM23tbr3nzOfV4KvH7j3PmD3xnCzOc01EYT/eyhc97959zusKzfA8Ms97D87bv/JXIGjL7dGewX4t/njLz2rJ/ViPF5QqTrKAAsIr2bcxQOfAQCdTT4p7b54THmF29f5AfUJODfRv0hJwS8lF5ifJAAooLlkV9CjRtLbrJzR5k25mRKXhFTwstj+2E94ByFi2oq8vNxeYrIsPzV9OWhxseUHHd4uy7zNv2mG8RuHxVbO/Ws9E5+H38IAGnpxgc8X51xnkK/46Nmqx+opjT/QOwPglHrifQlPipMAaHA1moapsX+0tNQb/TZronGAJf6PYAjHVe89wFftfFFLOClYqK+9Esf193vHbaflRK/eRdqsw0vbyOQN5WlRVMjn1DcmyUSixPHCCAAgcN+IME7qXav5x4vBaYgROI3R/001Pkh4KUAD4U5zrivZYM3n4LIB8+KAWi94bWS9nEy0gENAfB/7Ad3Yq+ZXQAxsLWEgvD3GicZuR541qadJBqsDb0HUE2NbyrZOUUU5kQsk4zfcbtR2+0q9D4buhfhZ/uzwc+ygWpK86ujtuWYlkvh1dssA5sbyvPDAUVMgz9c7xrfkcXKkZlLxuESKkIPpHlYekk1pXXgDwXkb4tez+UpYmK9cX4dwaYcqPUG26Cfmme34Ur696GO6bZz7rcfIJjoe1zg3Tpj3eD3yOyioqhlGuINlhHpTJGfbW3fk4OfoXFyzdVO8G+zfr8T6QYKAItI7xHjw2Dwj9SU5FNjeewsziCJOFeBrV62X53V+ndLxkZ8ga0lFNRlkZ1eR4XpRkb4fJs+1DicU8kuchqB3nofGZeYtlNbncDo+bNT+ItKxM28qN8BI5CeHz36lrbWM8QcBOE/YBzDCKe+9EoPaB0gEs4k2+qjonibfUDAv42aPQBuJrpb+5fIm21hjixmjqhms6ldNHhL2H62vkdIUuj2946LTf8P3rCu2AMHa0oo2BOdKRXYWkLB4eANwq1+HJkeMg55qeEAfj/hG4HSHm0Eye1eQ0cWS++D8vDnQuMz8x8ycyks8oRfR9vPB/5tlOYHs+ImxjsuJ1PycqHYCxOdBEwDB0PC+3E4CQT8Z0FGYje/VrGO4rDRNp0Xq8G1LX61JGsANyjNQ+HEOtMNXV94IGxhUes1YP/9x892gFAmYfj7W12M4/BRkV9CRm4WB0uCGYgeNxVeP/6PfeBO5vbUdSzBoD1eCva4ychMbF3j86dxz8FRkx9u061ttDXTceQZN8F4fUrwPd7srBhU016hAaOjjOE3Pq8xUCMUzNxaTWm5M/57k9+PH9M2pA0dPOeR2fj1MQaz7PFScCiLpbcdoDSYEZyd5qXikJ+AD1C3KN2g9X3EH/wMkMtIiH1vwiw0QD04kL2hvNr++11I0n9+lp6gALCI9D5n8IZn+8U9GTlDmTXxb2QkIvQFNlBbB5ZSR6GyY6b/m7+Q7vFSGvzA0uDNDx9DOOsj6iYXliB+gzefgjT3WTHqzTEtl8JQhnb45k8iJV9aR/p35KagWeDj4M37Q36j/G67tyDSQeFr3jxoJ5fCi70UeO0yF03ZFWnpRtnb4I2EUGDL/kbrVCblYB15azOwyPw+oQEr0pt1+3tHjCSykRm5ZJtGk0WWnA3Uhm58RAcFpaMSeZ1NnwGdU1la5I4uuegLDQZwkzHNGVynmpGhvzunkpFWTcWearZf4jRtt9ry2dLy+dpbjaPIY/kcEagtCZctXhq+oRu8aZv0AYpueq1s+QkcCv6vHdmrZ71EAmfmzw9uD4VFdiX4g1lujiwy3KF1DpDR5vWQbmSChkVu29eahef2UBid4Cbt4MopojAjugR0DTGqFZheh5rge90Uv/lGfTCLC1pv7KdlJVhaOBTENQ9uj1zR/HnZphxx3EHzZ7mPg8HbEU4c5qnEctw4cLOUBN6bQoOmAwfwo+/MbeqMcw4w0WOtcBBZAtrnDf/JlVNEYdc9I5Eorpwill5iLgENuBP5zuOjInhfwpHuxuHfRvkecGR6uKbOe2Zl0kXaQQFgEemVEpnT13zj3nKT9GwSKusYHE12sM3lQzeXfFSUBO/0bi2hYKsTV1pwmfC8Kh6uCa9ovakbr6xO5E3mpaGM4dDNFl9ECeg9Z1fZsoYac2ArMeEbq8GbgtFzL7ctlCGiL7PSnax9hV0lBwjdEGsNJnktg03C2RcZbmxWjuBn+8vBPiUtiyluN1OCZWg1T6L0ZT313mHwUZFfx8RE5qmKVY7UkcXSPI22aJt9EP3/sHf/0VHUef7vn4HACOogku4E8MeuikDSJMZZZ1bnIplAwB+Dw3X2wiR8o3NHcWYOELkneDL3YOQicu5wJPeEKHec0Zmjky+JsN/ly+oqhEAmyO51Xb5fQ0ISyKCsqEDSHcSfgIBy/6iq7qrq6k4nJIEkr8c/kE7Xj1RVd1fXq97vj/f7V8DZ+tAKIizBOqNaBsLHTctGI4RssbVkzMibg6+pxmxzas3X+b4ZMzCzBRFWG8jyXcUss7VALS+pGaTVDP2/r6IFOWbOp1stp4esQNx2oY73Rr+zjX24E4nFqnLDvKhru3mtamNzl8d7aFcZGylM4HwkdlVoRuFaCrqYWuJzfh46t3V4n+8oC9/cnDe+htomj/PZpkpWeIzp7aQW0H0t2ODROcWrQi8UuxI4fNM0QUJ6W+1St7d5HjEEqV9XCQ8lEIbFvAki4Lq5RqRvuK9XZxQWM2G7/bPa6hzhLNYxvs8FKJjpJ9TQn2ssQ50CYBG5LBmBrnHHK7YvZpEPWqMtaE/HPRocVV+2oMPV1jfYYWsH12H7he0ucveF4NCuMlrijJXiOMnJLGTN2kD0xeTmSlZUGlUi9sqgFqyLI262CzHBup5shIEl3NaWOK04XRcPbBeYrIuC3b/jO1IhAs00NkPGgD/+5XLXYrvAldgXeaOdbAH2m3+MMXN8s415RHUaAPCqxsGP73gN9cGA7qiVga+fPzvc3VSO1dbQQpCWBEINS1R7zASXLRAv8InqdGMLZq0xmI2bbSrxFU+MPM923ITb8FsXv62gy+OcOnLzmDX+pfULZ/C7LABGlQOEmoyhRZZZ40AH6ygvSyQcGYj6eV9FLT4Y+cRsaqBl4dDorHNxYndPiqoGDd+4YI3fZ06/rs4xFqa7s0jkRgj7Mu3texuo3REkRCX10xJ9TdgqQDXub88dN4Ipf2bXTw22B51VWg/l4qutwfq8NcJbvy3UNaZzfGc2h1rKG99nf9GgYg/djSr4yvC/RuexGmobun7BuK/1GN9JEunWYPvcI8i+/UFyBvlNo/2+za1rPu7z2cYaakNB6M44zbabyzTur/QP4xwibzbmeZ2f2pJIdboxpE4NKyqDOK/BGdM2NkFGYSEZ4SEiXDcUqbW/9BEFwCJy+bKqW61xHIOV0VUIVqBpXYgaSh+Y4eqBAHlpNawoiYQmVhXABD/OABgi4wOHB+czKnsmuMZCco8lllCVtVebslQ/Pl82C11fnloqSygPnyBZFzH85E0brF+ybG1tgaiWgeGWSUY1t+Mxi+uLkvtCVezxf5vZFwIyA2Q0NRsXHjWOmPSxjIVrna284rFX2jTPIS8L9lXWeI4zCTFu4rEHXgQJhaC2rAwGXeAgQ0v/f3a4xwCekFfIhONl1DZVUpW1lpjFGzbR4Vdif63Y2W9ucVeVukKsZve4z81U/Xkiy9auxecKawuoNC9M1VCfZ94kY69Atc2jsYnwucMxeyWUqzoysr5radlYQmOa7Q3a87mDTT/uKxtrnPCMzAAtTbrBr1vsgby7AthVXebuTEKohvLGQtasLbS939pCwSagqYaWmXPMCdxjAGdTUAgrKpup/XMdGcsTOUnxGANWEuIMhrJZuDYXurjxGYzzWP+uMspDRrtO+42I8fhsHRAIf57WkHgLaK+OOUNj//tmziFjRyXB2cXktZdRhTn8C+Z4sg3Z5GU3UBWjcs5/TyG3bS+jdnsd9Y01kZvnAPc29C4IsMazDZBBMy0NzYRmDu5rS/2+za3D3T0GcFYhBZRQ1VTDxl0BlqUmsPIxb4oU6Tu+2XPIoJLaUA3l5uFtfS8LWR0j8AN+MrLn4Es9araBjnTYiRiMN0fK5UgBsIhcdnzWGGS28ZbCX4JitqCzxmrxaDdjN2ha0EXGkgBnxXQLRzl2HIwvj2Ucc93hbFQdBLgtO0jtDghuryFEkJYdAH5zW/q5zXESEn+s4bjjJwUKzcoQ6+FCls223Rk9RMa2atlYFgnsZwep3dEcaREXvvAaoCB8fFsV3kZ77pYmZ7V2dOV1rEoAKzzwk5dXSEZaGS07vC8kivS+RMcpt335CeSSE6xjXzeX1NLYHLnJwTeHguwGainUcS4D2qX77LDzk3NPgNrKZlq215GV3fUUqgDuDdEX/KOCdYt/Ij7An9lMS7jSNkj9upLwGKX2YTi8AsvoxRs3YvrSsplwvJla981jZpjlLyyEykpaMiMXjdfYbigI7SqjvCF7kN+g2T/7yiFYx0bzxti8hQFjH22vIxQYzNu5F3l8Z/T+PgO+VD/4/EYgFLKN01tSYpzfuIOM8PdVq8LHQ2AOeb5makM11DYn0rJUFcA95RgD2OyaZeX5sfY5EHmNYb2eA+aQSfaANphQMGu/KbLrDjkaA9if6of2Hk2JbzzQdBTfcvc277oC2Gq9n3FPoXkDTg21zbmDoHNc1/ptm8cZ5c0akiK0o4aWRN4WVQEs/cJ+PcMYVseHrTjG7GQWnF3sOP8FYKZxPidyqSkAFpHLhxni+mimqqTGOzBwfFm3BwbxQ8Tw3fhpgyQJCAYJWhfawie6ZjvlYB3lZZGLAhPyiikIV+FZ1RzZZFBDLRAKBSMt5nZAo9mWbt/+oG0M4Ogxs6IuGMYM12MHQNEXxwbnHXCRcRj95BUXkuMPQoNRTbXiuB9fKGiMBeL4guQnIzsA0wrJ2N/1Xeqxl21ULVh3rmPe5VtbVokvkfEcRXpDzO4MsdtndldGViEFAWg0xxX3zyxm2cXPVuSSuZSfHVHMsOJYdgDoetAqVQD3hm5Ulfr93DY7gK+92XgsHBA457HCHEbFHiQYAYefvNl+andEzh+tGwbzZgbw46fWdfOYVX1KR9CsXwviz5qDr7KSFccjAVhLQxBCZkXPoG2l2Q/7ysF2c99DxmercZNG7HEtxaUbFcD4J5J3TwC2m/ss3Hkheh6Jt280b6zZPpEsf5DGLp8/NCpA+1vcYaGsG8xxdsZo8fq+GqyjvOwoPs+3OK9zXWcF8GD8/tsjZlv7yKYwW6j2pIV2sI7ysgZuKy62vR6N60wTvLa31Z0hs9A8JsybNKxudIN1/1zKbe7mzyUvs4batGz8HQkMkKoKYOkXxrVQ4/wOYl7fdH33idmdT+QSUAAsIpcNazwsf2quqzWG+85X82d7u8Ohxp/LsoXQstH9i8gFIaPyx3g0tKuM8vY5rMkLEsRPXl4AH0F8O2oIZRaaJyZWuypjP4R2VLLP6y42sLVaNS5K82fjgnR5mtdJTuzweGicFEXGDcsotL74+MlZXsixkkpaQkHz4kKQkPPbF76ZheTQkzF/DeGQPryPAQIUFAZYUWmOYTaoK3JksHJXbBgX8Ix2bV1fRBUZCC7dZ4c3ox07QGhX18/2/nyPU/YhHrpRVUqAnJm280JH22V3+GCrIvcHuM13FN/yQjKaKyOV2uEL4cb40eGbx2qbyVkYAJqpNQPKvJl+Gs0uMr5AgGVr/VSVVLJxF/h3NDChuJCMskpadtTQMnOw3njWD/sqLPKcyHsDECikILOEqpjn4+LQjQpg/LlGlfZ282fHjceuC8HdudkhUMgac/zsrs9dYtwMoELgvtOdLlXBo4Q8X69AEDJsw5l0XQE8hEV1IjvKsRD4siMbym8NS+VRVddSaVTl+2ZnE/pzJSGMm9qtoSuM8W6DtLjHmbXf1BHef35yHprDvrKawX3j9KXa5jFkLFxrdjpIIACOUYCQSKt2kZ6LXN+Mqjzv9pCE7pb/+myQvqEAWEQuD8E6c7yQAFld3LQeac2T6Adr5CKqe1zbQcUxblgxeR2Ryp9gexCaaqjPK2bZ2lxaNpawosm4QBsOeK0vPo42ZmWsaLefWDvbn4QvRCxfi29jCVU7yljRMITGYU5IpBrL2coLrG3IxhKqmsyTv26dNNovFPq5LTx+su1xry9GgULWFBptrcpLGnSSKX2vq/b83RS3YkNkULgUnx2G2MGVOXV7nHOqhC6Y+2NUSYlTN6pKY7B3azGmxdj3TZWswDg/yFnu7rPYHBmrLHz+YN08ZoaL04yKISsgbgQ4HjQ7+ZgXxporWUGQllpYNttPS/tE/K6bFQaP/tlXuMcIdn0OZixca4yhqPPxrnWnAjgG+4VfY1pzX+8ooxxjHxq6qN41K/DwTfR4eRg33+REPe76cwZLl6vLUGQ/B8ib7YemoHNMdCI3sme4LmRYraML1hZeRCAAQ6UCPNRhbNjwOcJxszo11Q8dXU/vGPLCbKm/cCa0rDN+75tZzDLKKN8RuVEjbvW+P5dlxVBeVkNVScmg/P7R79t8mjlhF9W7xnrFeG9z3DgVi58JeluUvmKdJ/jmsKwYNppjvi+kspvX1xT4Sv9QACwilwd/LssKj1LeMSd8Z2V0i2GzCsE2ho6nWOMihdv5DEIerciMb6XN1JaZXxYz55BDHeUl5onK2sgXnKhxATHHFU41QsL6PDhWZl68inGR2RjbyLiobAQ9AQqKJ1Ib5wJKrIvMg+3LlVGNFSeUtY7pZiuUrXFUT/lm2sYYcfC6KGQtp4uTyUAha9aazy0rYd+QqMaWS6YfWkBHz9r7Aq7jfafbd+mK9J/+/eywLdfW6rLK3knEfk7mm0NeQp/T0a/xjMJBWkXTaxIJfKK7q7hZ+89djZ1j3bTX5GzpbAntaACfn7yHXPvJqjDdUUn9tGLHxde82X5adnjd6GOEyD4CrIm7tgNVP+6r24Pse9k8h4/zuWUf71Q3+Xnpen90HS7Yq7Dt31kCFKwtNn63o4aWmXNsjxeS4Tgvib4xIOGbm93fdX1zWKhz+Jgin19GFyy7mFXftqGWMgrt1x6aObaj0ns683PRHhgXrC3Ev6uM8qjw1hXy+uawbHmk8jTu63bQjgFs3rTvyya0sYTaJvD5IEQAf2MJ5U1Apt82Pjrgm2N0hAs65xPEjw8/eQ/BxpIyY1s5OlrUQKrHzR9ezPeDlo0lVFWWsCLmsFcDUf9v8zD32OngcR3P6DKSCHclZnj4K5GLZvsu48vGbx6n4WKaYF34mb6ZVldFXV+Ty0tS7k8euXCpV0JEeuafXlnfo+kuXLjA2Guu6vFyDx8+zE033dTj6QcrbZeBSfutf2g7i8jlQO9F0l06ZgYm7bf+oe0s3aVjZmDSfus/2tYDk/abiMRzse8RJz/9kqSkpB5N2ycVwOmTb2Lh//Zj/vbGibx3+EP++F//O0c+Ohb1vNGjrmDJony+l5VOe7CT/7r5X9jboG79IiIiIiIiIiIiIiIiIiI9May3Z2iEugX8/d9lkuobx13fv41FD/3U87mPFv6UvJw7SRk3lsDUSSx+NJ/rJqR6PldEREREREREREREREREROLr9QrgyZP+hnFjx4R/TkpKYkKaj9GjruC+2Xdzy99eT3vwBG/U7Ob669IYNiySQY+79hqm3noTHx9LYKT5GJ59upjM9ElUb9nOy1VbYz4vL+dOfv2LBby2vZ6Xq7ayfMnDpE++mV8sfSrmND8vmMcD9+Twuz9torb+bcfvli95mDuyA/x2/R9paDoYtayiXy4k1PlJ1PyffbqYcWPHOB7PzpzCbx5/hJRxY8OPnTp9hqPHOph0842e63bq9Bkqfr8xar1EREREREREREREREREZOjo9QC47dAHfPrZF47w8uzZc7xQVspEW3XvPTN/yIcfHefChQvh/tWff/4lR49fXPg7ZdLfsrehhXtn/pDG5oNRYawlK3Ar586do7H5INmZU7gjO8DehmbP51pertpKxpSbmZ17V8JBa3bmFB4tfJDRo67gxusnsGvrS+HfnTp9hpEjkklOTnY83nniJL9d/0cAihc/zM7d7/By1VaefbqYIx8d4xdLn3IEzinXjuXRwgcTWh8RERERERERERERERERGbx6PQAe892refW/b+ehBXNJGTeWj462c+7c+ajKVd+4sZw+fYZ9+9u49ZYb+ezzL9m0ZRtfnTrTo+ValbRz85cARkXubx5/xLMiFyB98s18eLSdhqaDLF/yMCnjxnLvrOncO2t61HOtQLah6SBPPFXWrfVauqiA0aNH8dvyP5IVuJW8nDt5bVs9d9/1PVLGjWXbzj2AUSXsrlrOzpwSNT93iLzu6eWAESaLiIiIiIiIiIiIiIiIyNDWqwHw6FFXUPrEL/nbGyby3n9+RNt7HwBw27ToIBOMls9t733AJ//jM8aNHcMv//f5fP75l6z5f/5Aa9vhhJZptUv+8Gi7o43yuudf4ecF8yhd/quols3LlzzMxPF+3nr73XD1rxXExmrj/OzTxeGwFZyhcDxvvf0u+Q/ew2+WPRJ+7MG5s8L/twfOhfN/TOH8H7Nt5x7WPf+K5/xUASwiIiIiIiIiIiIiIiIisfRqAJwVmEyqbxwjR44gffJNpE/uejzfG6+fwK226uCkpCRuvH5CQgHw8iUPhwPUlHFjHZWxdr9Z9ghZgVtZ9/wr4cDXUvAP9/PVqdOse/4Vli95OOay7JW/f3ruaU6c/Iyliwq48foJjufZQ+JtO/fQ+clnhE6cpGzDK12GxVaYLSIiIiIiIiIiIiIiIiLSE70aAF915WhGjhzheOzK0aM43tGJzzYmsKXzxEmuHD3K8diI5OGk+lO6XNafnnsagJnzHk1o3f703NPh4PaaMVdz6vQZrhx1BePGjqH6n7aFn5cybqwjxAUcFbnLlzzMlaNH8dyLVY5A116Ra3/85wXzAGMs3/Gpvpjr13niJC9VbnGsrxUuF87/MT+dO4ujxzrUAlpEREREREREREREREREYurVAPj0ma85f/58+OevTp3mwF8Pc+Cv/8mYq69kSN109AAAIABJREFU4oTU8O9CJ05St+c/uGFiGleOHsU1Y64G4Nz5bzh58rMul/WLpU+RnTmFTX98lhSPcNnO3q75hbJSXttWz53fz+Kr02ccbaPdz3X7ecE88nLu5NTpMxT8w/1dVvQCvFy1lZertvKn557m3aYDnmMIW+Fx5ycnWfDIE+HHszOnULz4YXbufoeXq7by7NPFagEtIiIiIiIiIiIiIiIiIjH1agD8r//+LgB//3fTuHDBqP79X/7+dn7wvUz2t/6Vuj3/QVpqCic++ZTxqT4W/sP9JCcPp6nlrxz5+DhXfGckLQff540db3VrufHGzLWCUsuvileTnTmFO7+f1a1l/LxgHvkP3kNycjL/9k4Dqf4Uli95OOZyvdyeOTVmm+rOEye7nN4rPAaorX/bMcaxiIiIiIiIiIiIiIiIiAxNvRoAgxEC/+u/v8tP7v0Rix7+B4YPHwbAbdOmcNu0KZ7TBNIncfDQf1Lx+429vTrd5tUC+t2mA1x95Whe21bP3Xd9D4gdxsYTqwI4Edb4wO5qZ/eYw90JpEVERERERERERERERERkcOn1ANjyd9kZjLriO4mtxPDhTEu/ta9WpVvitYDOzpwSDoB7Il4FMBjj+Fb8fqOjmndEcnJ4DGD772KNOSwiIiIiIiIiIiIiIiIiQ1efBcDjU1O69fxx145h8qS/oe3QB91e1r2zpnPvrOkxf59Ie+X+EK8C+OcF83jgnhzAWe175KNjjnGBRURERERERERERERERERi6bMAeNiwYd16fvLw4YwedUWPltWdMYB7i31MYDt7S+YjHx3jF0ufCv+cSAUwQEPTwajQ99mni7k9c2rUNPblxateFulthw8fvtSrcFnSdhmYtN/6h7aziFwO9F4k3aVjZmDSfusf2s7SXTpmBibtt/6jbT0wab+JyOUoKfcnj1zoixm/tP7/4m9vvC7h54dOnGRN2R/Y33qoL1ZHZFD6p1fW92i6CxcuMPaaq3q83MOHD3PddYm/voeKjz/+WNtlANJ+6x/aziJyOdB7kXSXjpmBSfutf2g7S3fpmBmYtN/6j7b1wKT9JiLxfPzxx9x00009nv7kp1+SlJTUo2m7V6bbDW/vbeTs2XMJPfebb76lofGAwl8RERERERERERERERERkYvQZy2g//hf/zv/+k4DN0wc3+VzOz85qbbFIiIiIiIiIiIiIiIiIiIXqc8CYIC2Qx/QduiDvlyEiIiIiIiIiIiIiIiIiIiY+qwFtIiIiIiIiIiIiIiIiIiI9C8FwCIiIiIiIiIiIiIiIiIig4QCYBERERERERERERERERGRQUIBsIiIiIiIiIiIiIiIiIjIIKEAWERERERERERERERERERkkFAALCIiIiIiIiIiIiIiIiIySCgAFhERERERERERERGRoWPbIkbet46kBJ46rCiVkZMWKUwRkQEl+VKvgIiIiIiIiIiIiIiI9JU2ht93N8MPXcw8HuD8oRf5NoFnDitKJXlb4nO+UPQW55ZO9vxd0nN3M6KiLfGZxXPvi5yteABoY/hzr8EhGDGpLfJ3HVrHiPva+Cahv9PYpqkF/xP+i/OxgbidRWTwUQAsIiIiIiIiIiIiIjLYhQNQw7CiVJLxeOy9Jzj35nIumI8ZISzO58QMHh/g/KEOzjoee43kSYtI6kEAeWHpW5xdagartzjXlW2LGFn0Gt9WdHD+XvM5ONfdsfxJ1rIn882bHXxzaB0j7nuW5EnGPL6hzXxuG9+8+RbfTIq9XsOKjKD3ylf+wLn/8rRzeQNwO4vI4KMAWERERET6TWd9BZvIZ3GO71KvioiIiIiIiPTAtxW24HHbIkYWdRGYbnudYUzmm3v6MpSczIVbgPc8fnXoryQBF25xLX/Scs69CSPua+PCLW1cmPQi5w7NJXnSIobfdzfE+JusYPZC0Vv85/96Jdf1wV8Dl+t2FpGBQgGwiAxsrdWs2p/FygXpl3pNBpAQe9ZXcDxvNfPNzXZgUymbm72e6yO3qIjpjpymlc2ljUxbnc9UWtlcWs2BGEuamh9Zhhjbef80Y5vE3uaQMrMooXAsXpDWWV/Bho5ZHq+N6P0vl05nfQUbdoU8fuN87XUrNA3tZkPFTjqtnwP5juMg9jJtXNPEWvf+C3KN47Yurev1cjLeo0LdeE3ZXzcHNpVSl5rYtI557MLjvdNr3XYy3npeIp9nod1sqDhG7up8pkbNrppVtRNY/PgMUhJeW7kkWqtZVd0a+dnj9eZ8naYz37HPzddD+EUe/Vnt/ozpzuexY9qUWTGOqRB71ldDQVfHebRY7x0Xs85DTmg3G6pggWPf2M/Puhb7PMEl5ntLz48BERERuYS2LWLkpEWuB70ee5YRk551PdbzUHHYttdg0hN8G6eitjdcmDQZtrUZYa/9F++1kcRkvr3FY6JJyznnaNn8AOff/Csj7nuNpPfaYJLr7z60juHbMKuOgY8/jp7nAN3O+97fwt4rH2RRmvVIiJq2PXw4xv4YtH/4Bi/xfZ68wed47JlzN/P8zVOcM/10L88cPcWPM2ZwW89Wy8NBXmzp4A5znvve38JLZ+I8/Yp0Y73ad7Pkq9TodYya9/vcMPF+5lzTG+vq3IbtH77BM198HfPZaVdPN7erMd3eUdMd23nf+1v4lxHOx3prHV8/H1mHR/mPyHomX8+Tk+/AOARs24e9PHP0I9qt2TieZ+6X887HpH8pABaRAcp28TOQdalXZoDxMb1gFhsqqjlgu0gYfaHVCCciP1rhhPW7UoyL0quZDzEuRkosUxesNrelyQwEIuGv+wI/EMhnPtXhENnBFR6l5OSTu76Cza3eF9APVJeyyv5AAoGf9I3owN/12vPiDpAcM5zF4tWr474O495k0FrNqv3OhxINezvrK6jzF5nHXLwbRCpYtcv9mDvksq1PdYjcotWsDC8+0WDXmOfm0go2+7sKk1qp2xVian68J8UPWIzQzsf8fNhctZup8d4PWxs5kJJFrg8gxJ7aVqbm5cdbQfDNYMHMCjbVh5iqCuoBqpXN1TB/9WrzGDKO5VVE3oPDx9HqIqZiBqPrd4cDuM76apqyilhpHgOd9RVsqKgA280Em8ln5WrzWG6tZlV1KZsTCFQPbCplc/ssFq+eQYr5ObRhk8/5+RB+//GR292/3XxPSJnp/lXP13noaWVzRSOZRUVQX8Eq1w09B0pLIz/E+WxPyZnF1NJqNnudUyTEx9Qs2NDVe52IiIhcXlyticMcrZSjf+1uTdwV73F7vcLOOOvkxTNYjTAqfNtIOgTYQtCk99qAyVywHutqrN9Jyzl3aLn3QuL9zjJAt/Nt467nX45u4UWswNfHnMnpvNjyBjVXGIHovve38BLpPH9zrO+kzjDR8lLLFttP43j0ogLhKcy9+n2eadvLk5Pv4LabH+R5QtS8/wFZN5th46dmOGmFvwBpM3j0/S088+G4Xg5Qu8m+TrF8+gF7uZ5H7evZvtsIus/sYUmL+Vhy7wWsWeMeZO7ZN3jJ/Dnt6uk8+d0PeKYDIqF7qmsqY1+mffgGz5y7Orwe7R++wUvnx5HFR7z04d9c2u09hCkAFpEByKqaWs38ulI2X+rVGUhclYGbSyvILSqyXbRLtJojOqjpbGmErHxdAIziCnKbS1llr9ayLqQH8lm52h7++Jj++Gqmu4L1A5u6ubzqUjZ4hGSqrLr8Ha+rYFWz/cJ+BasabdV4HpV5RsVqepevw85dXgGsjceNNd7TRD82NXwYGzeI2B3YVEpduw/SfPhSZzE/bohpq/pdHR0+OUNsjxsm3Nw3PYBjG3bW7+RAyiwWx3xdGO+PBwKzyA0BrlUPV9OZ67qSalbZQju3A/tbScmaZfyudaex7l7r6FrPlJwiFsf5M+Vyl858+/FMOvPz01lV3ciBBelMDd+IUBS5QSt3FikVjRwIzWC6L/oYSMnJJ7exgqaWENNzfJCez0rHIvKZHyhl8/5WSI9fYV7X7CO3yDpmfUzPS6cuvG6247xoAhsqGhP/s8PV60WMX19BU9Rm6eE6DzWh3Wwww9/pPiCniJU51i9j3aDSxftjF++NDp43H+1kg+2mJZ1fiIiIXK7MMW97OLUxDm9PlhlvHF1jvNph3ZmlO8Q0A9WwWyZzgddIeg9bANzGsG1tMOmBcFXwsOeeJQnCY/+Gw1j3/KLWN/p31/38H2GF1QR6gG/na+7gyTOnWPLZXto5xTMnToR/1Xh0C68ftX5qZUlLK1FB7vn3qWmfwpzJDzLHeqxPKoAh7Yb7efT9Lbzefke4OjmVIM9YQXPy9TyZ8WBUMHrbzensbWllH6nsbWkl1rca6++NVOR2n6My+cQWlpwYx9yrE5kyRE1HkDtS7yetfTdLPhvNk6nw0gl4NONBcztalcWXQ3VtiMbTMDfVCLWNKuerzGPjIC+27OHFdmcVufQPBcAiMgBFLp7Gaj0sMfhmsHj1DOP/Zku/qT7oohlsXM42lbYwSBWlJjPINSufsC6MhnazoXQnnSmzWLy6e8G5s3rXvs2zbMsDq9oKv+6yu5x5B6s+cnOLmG9WiSdagetLTWxfd7cCOMURMvRE5PhfkFrBJmaRSzWrSn3eVb/26uHOala52qVHBwy24z5em+SYN7lYoVusKjZzfTzf14xwpSmriJULbDNNz2elbzcbSquj16W1ms3NPnJzzWr/2lbjbyJ2G+dOd6VfzNa8MqCFQoTwkWk/Pn3pZKbsjAS8fbbsY3TiI8W+iPQsplLN/laYmm6+FwCEdndv3r4ZLF4NEGJPr63wUBOp/J3ObjaUxnqf85ZwMNtazapaXDcNtrKhdCdT81ez0tqPGk5CRERk4Di0jhH3GYFnV4YVpTKyi+fEql5NZN7J7z3BuTeXO9sz96ZJt3KBSMWvwagIvlA0N7xcY2xdMxgtSmWkK1hO7G80pg8bLNs5bQbPm0Hd847Aztl22W7f+2+wF+D817z+2V5SzwZ5ydXm2FEBnEgFbAJuu9kIQz3bKp//iGdaPvJY3hQWZRj/vy3Dax16rwV0uDLZ1QL69TNWgO4SblXdyt5R3+fJa0LUtH3J3DGjeelokDsm3h/e9vvej27Nfcm0t/J68s08b1WIn7HfGDCFRRnjqGnbwpKveme/S+IUAIuIDElWC0ojPOgyAA5XfLSGg5gDZgvo3JkeYZJHgDTktTZyACItP62Lqp3OyhlDjFa4eLSOjqOzfqcRWHmNOWwPkRXWX1Ixw9jWalbV9c0Y592tAI43ZnX0tPbjyQpy08MtbzuDxm+MUNloJ7856hj0rh7e3Ow1LrmLGZZZgZVDqJUmsljgmv7Apmrb69OlYycbSlvp9Hqd2Kvh4mzTzaWltvDFCHytEuLO+mqjyjkdiNHVG5whvFXpHdpUygbHfmlVJd6AYx4PAfM93yuE7UrrTuo6feRmxJgotJu6Zrpobw6dwRCkZLmL2y+NBNd5aLFugAyxZ/1OfPn57C+N7oTjaAFtdRx5fDXRYlQM26qxF6+e4TkGcGd9tTP81RjkIiIil7dEWhZ30Zp44HiAb+9dRPK210laOtkIQLe9zjDg21vcY+s+wPlDkxl+3yK4d3L0uMHdNdC3c/tulpgVv92rej3I3jNXccPVX9JIOk+OeJ/XR97P8xnmr3u9AtjWYtpsfwzYQl5XgNu+myVfeU+X9ulenjlxNU/2dyjpFYCH1xP2fXWCdrPNc9rV03n07H/wOl/zuqMKGzizhSUn4OJbal+cjrNfAqnmmL/jyEo+4Wr5DTCOuaPeZ0nbFxoTuB8pABYRGXLMNqbAgdJq5jvaDoc43gnj3ZOk55sVH9E6661WjvHHxhzqDuw3kp0D1aWsMsdonW/bZj6rreYC2FxqNKCxh24bSncydeYsQrsiLbw9WSFVazUbdkFuUeTiuVfQaLTz7M2/VLoj1BGCVKOtvbOjQTrzV2cxtXone3LTvV9TnjcPgOf4uq7wsrsVwBA/TOwMhUjx+RzTGsevbZxwa9mO9rVm0NtazarS6pg3IzjHJXU+Xpfq/luMtrWrPFrHHqjbiS/PNT5yazWbm9OZGvBOXzubjXbTK13b68CmUnPM0i7G7bU9f9X+fBanGmFdSgpAiAONPuY/bltPj/3q2Pat1ca2WOAjBdsNIQpgBqQDmyqM8Lagh0FnaDcbzGEEvG+MMG84SpnFwLnPZyCuc/85sKmCOmaxOD2dlNWxgt2djHfdLOPs2GKbnyMwxvU+bN2wEmKTVXHcWm10pLCHv7abCkVEROTyNqwoleRt8X/vXZn6AOdjjZfbn7oYAxjg23sfgKK2cKBrVAM/wLeegavRPrm3DcjtbFb+7nt/C/9iPuRoYWxqtAV7xhixX9CRPJo7+NJ47IabocUKJiPcgWDWuJ5Wr/qMFtOf7jXHpjW5qmodLauvSPWe7po7+PGJLbzYPqXPK2kbT2xhyYnvkHVF1881KocP8mLbF8y9wUca9/Pkh2/wEt83gnmrLbQVYh89dRFrZgvGT2wxW2Lv4Rnz3yVfGM96pu07pHGV5xxSb/g+c9v2sHfMg86qcft6mg/N8ZqB9BkFwCIiQ4rZ/jQrHTqyWJkbYsP63WR25yQnbntV8RTaTZ0VME0z2rxuqA+xgJ0cCMxiPnCgI8TUac4SwKkLVrMy1zkGMDlmC+94gbutKrGuogIc4zwn3k5Y+ks6863W7G6BaupaQt6vNY8WwOHxOfsoNbECBHsgaTyGUWVme264Wt019ng0o+Ld+yaTSJvRqMp3M7id7y7nBUifRW5tBZtbvYJT51MP7A8ZY6HXlWLPvTvrK9jcHDssn7pgNSsJsWd9afyxh8HcV6tZCRzYtJPconyoqsZoXZ3v8dwYQYoZ9qWkhNhUn67X8IBmVccnUNUeQzjQi9XFwfoscB9TUa9J4zXYG0eTu1tA3JtNvMRaZwFs27eHG8a5P6LPI6JuCmvdSRM+6AzRSYjN4bC41XajkXEMTw25zldERIaKGJ+r+q58qdiGkgG4iHOtwa17IWNXYWZsX9PyXCmbxhg/BZoh/2LTiK7GAAa4dy7fsojhzy3n26VtDK9og3uXdytUTaRFc9f6azv3HSOItMRqAe3jyWuM1saGKSwa18GSr1I92v062yH3qi4rgL0ZYwK/Qc0VF9/y2c0eoFuBd/uHb9B4rqspI39D31fK+pgzeTqY+2XuWSNofpT/MALn737AMx3w6OSreb0lVgWJj6xR3+H1r3bzYssJ17jKJyKtuLmY4F96QgGwiMhQEmrleFY+8/07qevAGJPvcSOQOA5mm+IQByqqSVntbAEbDpZywzNjz/pqjqcBqf36Vww4B+p2wswipnW0GgFTej6LfbvZUOEz2jmaAXHuAszxH2Nxf5n1avWYD7Uwf3U++0t3Mt4Mmvbr5OoyFKKzHXzsZFWpR/VpIJ+V09LZXNtKKCv6115S/D5oDNFJdD7gDGa6aAFttXs3Q5jw/G1tm1cFjGrWDbts4/h6Hbz2scdt87eO5an5sS6Q2Y53x7jXtr93ZlGMaX1ML5jFhooK9hQVMT0Uu0Jt6oIiwD6mfGRM3/mBCuo85++aR7xWy9Z4mo7l9WAcVNvFxal5ReQGK9jcWqQWzwORtS+9Qk7fBFI45jmZzzaeu/V6jnXsWeGwZwDr+ZokznjxPsYneNG0O8MUuMVdZzHOFchnZX6j+Z4SfU5gd6CilDqcx4hX+//oCmDrP8ZwIbn5PjbXZkUdq5EuD/lG+FuxE1/+aoW/IjL0xPpclUskeigZ8fIayZNe6/ppF+07ZCxdzcpJAG0Mv+8P/bBMcLSBvqWNYUzmm6UPeD912yJGFrXxzZtv8c2kyMM9GgPY8/f9sZ3t2kh6r58XGUuscW6BBC9xXNTyoiuAYzEC62c+DzHnmt79HuIYAzjOuoaZ69n+4fs08nX4b0i7ejqPAu1fGG2hDfZgdVyvrnfPpbIow/aZ6FEBLP1LAbCIyFDim8H8HKLGmZy6YDVTCbFnfSsE0pnaDJGx5sBoUxpial46sBuA/ZsqCGUVsYBqNoERHqdMIBdxCtHJLBbk+Ahtsh6KXCidSiQgDgdZKRPiVGL5wtWKdalFLPbvNNu++qgr3UmkotAMm82fD2wqDQdZoY4Qvmm6uH558DE+N5/5C8C7qjudlenQWd8Ycw4O6Ubb6AOhGeG73CNVwc5gJtxWOYFqLWeum8781UXsWV/BhuYeVDhYFX5xx552BhuOkMt8/dBVSOSbweIi2FBRSl3ClRiRiuPF6XBgk8dT+rrVskcL6JSZReR2NJJZVARVFRzHCOPne89BLmtme+NYx7/Phw/XGNahVpo6fWTaXtNxx8NurY6q1E+IbwIpnY2O9w/jxjAfff6R0dN1Hkp8M4wOBq3W54FxgTvcgj/MuwU0dLMCOBSCmbOYimuoAft7+Op08+cQuUWrVV0lIiIyYFzCytRbbr24cXYT9O3SJ7hw37OMKAImPcG3k7yfN2ybEdAmvQfEeE7PDezt3P7hGzzzxddRjzcm2srZa5xbrzC0t/SwAhiAtBk86XjgKlJ7uRrYoYsxgNNuuN9WeW3++sMYYzNfdAvoixUZ7zdrnGv7W0+5VGMtiwJgERExRMYhzOJ4c6Pt8VJqT13LybR8VqYDzGDBzAo2YVxE7KyH8Bhxna1GW1L/JfojLks+pi8w7n4zQrRWNlc0kmldKI3XxrYvhHZT1wydzaWsMoO8lf2zZHEzQ51cn/E62z/NbAXckzaa4TEY88mduZMNda1MN8OlUEeIlNTosZ+jwl/bPOIGpVb1YiCfxVk72VBa6hnaxBpvMqy52qgytomEE1537ttb5iYSNFjjiPpI6Wxlc2lFAu3ffEx/PH7FQGcwBGlZfVflFrP1bQ8rh+Xy0trIAdKZH/Pmh3RyZ/rYULubznTjODhQZ7zejGPXuCErZWbsY/nAfiOc63aQ6ptBbmAnm8PvH8Zne+xK+97T43Ue8kIcqKqgLi3eDTUR3aoAjrpp0LhBpo5ZLF6dT4qjBX46KQp/RUREBpBLUJl66HWGHYIL907un+VNMgLQJCbzzfrlMcJQq1o21vjAF2vgb2dnuBurBXQMfV0BfOYU7YyO/fvPd7PkqDEQcdrVtnPlGNM5xju+Ip34I033gbQZrtDXNjZv8vU8OirGdNfcwZOEaL+ohZ/gw/PjuCMNjHT+BI2nvyZ1jA/4wHzOFBZlGAHvXse043g0fEyEqGlrhXEPmuF7ZB0f/fwNlrR02J4r/UEBsIjIkGde0Ou0qola2ex6RtoP/g+K0glXfdgrSFL8Pjqrq6kL5LPy8XQObCpl1S6jrat4sVVWh6tmIhfXO1sa6Uyb5Qx/rIrAQHqPL8JPXbAaX30FqyqMCqvF6WZAV1raRSWm9JXOlkY6A1l0ri/leN5q5qebrz3fDBbnVbNq/e5wEBjqCEW3WrdXilqVWAA5+eSur2DV+lksfjydznYfmbmu1rH28Nc2ZjRgjPEY45gwWn7aA9h0VmbsZkOF0RJ65bTIc4120R5/eHcqaF1jqk3NX23eiBJbJHg2QuRwlWxot1kN3INxSe2r5BGoH4jRojosZUKPliWDVattLNUI60aKlJwi5neUOl/frtejV5DnaNnucYNFImMSTl1QZLx/mKvXr+2Ye7jOQ5tx00rKplLnmOcxdHsMYI9lTcf4LNhgjpG+MsdnvK+Xlqp9t4iIyIDR/5WpSdtfIwmgYh3Dlia+bG9tDL/vboYfijxijdl7oegtzi2F4fctYpj13Ode45sKjxbQZlhqjBnsNFDHAO6t7dz+xR6eSb6eJ2+4iJXpwwpgozr5KrKu+Ihn2uDJyfaKWSuoJFKB6ppu7tVBnmnb62hN7Bzv+NIy1hPmTnyQ56+JPBbTmVaeabuIVsvtHTQmj2au9fO5DvaeH8eP04BPu7Pe/8HeUdN50mMl0m64n+fbd7Pk/YMex4X0FQXAIjKgTV2wWtWLF8MW6K4MX7DzMT7FfnE6nfm5u9lQarasXG0Fu1Y1nhGyWBcPjfH/jOk3q5VjbKHdbKiG+auLmOpod+sjt8isvFpfQV2nffu2srnZCASMtt0A+czfX8qGUiBlFrke113t4yquXB15ghHQGctZtUkhcH8LdUBu7gym+3zGmLpg7EOA9HxWpturq3zk2kPc/a1xKkV9TH+8CNZXGAFSyiwWm5NGxgF2h8fOGzY66ytYtT7kmn8r+7EFzeHFzWDx6nQ6Qz4IJdiqOh5H6Jtota/1eiHqOHeupxGOddZXsKo0FGcbGqbmzqKuwh20RVfsd2cM4F7jCsfNhTnbR+vmjstPej4rExiWLvZYupEQLpaUixiHN5H5G0/r6XiH3vO/mLGDxdh+bCplVbX5gMf5QEpOEYu7mE9KThddQeznjfb3wfR8Vq42Oi1s9uvcT0RE5PLX95WpF5a+xdml1k9tDNvWBvc+wLfbjGUbY+w+wPlDMcbmtXEEo4cWMXLSZL55s4OzkzDH8H3NNmZvJBw2HjPG6R3x3GTOLXVVxb7XRhJwYVJ0texAGQO4N7ezIUTH+ThtnXvI2U56HI9e1LxDNJ6+KlxJ2v7hGzzjakvtJe3qadxxGuZOnMGca2BO+26WJDSdR9vlBEWqil1/c5zqaCM4j24BnTbyKtpP2McAdq9neo/H2d331ZfMTU2nsW0Lr5+HtGTg6u/D+1tYcsZYpzQO8mJLK8ZVn3HccQ1R4XDaDfcbrbTbd7PkRKT6OrxeUVXO0teScn/ySH+03ReRPvBPr6zv0XQXLlxg7DVX9Xi5hw8f5rrrruvx9IPVxx9/rO0yAGm/9Q9t54HNaFEd46K+R5Vu9POcY/qqSkwuFb0XSXfpmBmYtN/6h7azdJeOmYFJ+63/9Me2NsLUnlSmxplm2yJGFrXxzZtv8Y3HOLru6a1A16jWvchWxY4A2Ahkh+EKcA+tY8R9z4JrecYOC7KxAAAgAElEQVR6THaud1SgHI+xvPM//0dYcXfcvzkRl/V2FpEe+/jjj7npppt6PP3JT78kKSmpR9OqAlhERERE4opUnHtIqBLQa0xfERERERER6WvRrYV7Uplqm2bSE5x7MzKubtJ7bcBkLkSFklY1rjPU/Laig3PP3c2IirsZeehFznq1Z+6mpOfuZmRRW3j+jvB20nLOvQkj7rMv7zWGbSPGeifo0F+xRzJDYTuLyMCiAFhEREREREREREREZBD6tqKDs709U7Oq1gpALxQ5q1bDYei9L3L2zejg8cLStzh7zzpG3LeIkff91RF09sgtk7lwaDLfxKqeDYfAixhZBGeXmuGtx/i/sSQ9dzcjKtpcjz7AyYdvYixDZDuLyICiAFhERERERERERERERBIzaTnnDi2Pejgckt77Ime7Gnd20nLOHbqV5EmLSH5ubs/aFN/7ImcPvdijdfZa/3jzc463G/HVxx8zNrE16L7LZTuLyICkAFhERERERERERERERC5KrJA0tgc431WAKVG0nUUkEcMu9QqIiIiIiIiIiIiIiIiIiEjv6JMK4B/+4Dbu+n42w4cb+fKwYcOYkObjOyNHhp/THuzk3/9HE2/seKsvVkFEREREREREREREREREZMjpsxbQw4YlkX7rTUyckArAiU8+5d2mA4xITiZjys387Y1Z3HlHFj+570esKXuRIx8d69Fynn26GIAnnipzPDZu7Bh+sfQpz2nycu7k0cIHealyC7X1bwOwfMnDzPjhHRw91sEXX51yzM+aJv+n9/Lci1U0NB3k2aeLuT1zasz1OnX6DBW/30ht/dvk5dxJ0S8XEur8JGqdvNY1O3MKv3n8EVLGjXXM7+ixDibdfGOXyxMRERERERERERERERGRoalPAuB/e2cf//bOPpYveTgcAH/51Sl+W/5HAEaPuoL/+6llBKbewk03XscvFs5j5W//315dhxMnP0voeVY4C/BK9T8za8bfc/WVo3m9+nlGj7rCEazOzr2Lp//PJVT8fmNUQOye56OFDwJGmPto4YOMHnUFN14/gV1bXwo/79TpM4wckUxycrLj8c4TJ/ntemNbFS9+mJ273+Hlqq08+3QxRz46xi+WPsXyJQ9zR3aA367/IynXjg0vT0RERERERERERERERESGrj6rAAb45tsLXLhwgaSkJMfjp06fobG5jSmT/obk5GSun5jW7XkvX/Iw986aHv655r+9wN6GFu7IziA52fizrFDVCk0B/vTc09x4/QQAfrPsEQ69f4RTp06Hq4F/8HeZAMzNX+IIcsGoMv7Tc08zO/euhCttly4qYPToUfy2/I9kBW4lL+dOXttWz913fY+UcWPZtnMPYITG1Vu283LV1vC02ZlToubnDpHXPb0cMLapiIiIiIiIiIiIiIiIiAxtfRoAn/z0c7755ptwIGs3ZszVDB8+HIDPv/iq2/Ne9/wrrHv+lZgtoK3Hli95mPTJN4d/94ulTzlaQAMU/XIhv1n2CEW/XMjRYx2cPXeeTX98lpRxY6OC1V8sfYrszCnh33t5e29j+P9vvf0u+Q/ew2+WPRJ+7MG5s8L/t4fYhfN/TOH8H7Nt5x7WPf+K57xVASwiIiIiIiIiIiIiIiIisfRpABzLD39wGz/43jSSkpIIdX7C1jfqejyvcWPHcOP1E6j5by8QOnGSMd+9mlOnTrO3oTnheZw6dTrc5tkKjxc88kQ4KL7x+gnhwNdqz7zgkSdizi8v504m3XRD+OfQiZOUbXiFhqaDcdfDGvtXRERERERERERERERERKQn+i0Avm5CGq9XP09SUhLfGTmCYcOG8dHRdn7/8j86KmYT9ezTxdyeORWAd5sOhCuArTF978gOOFoo/7xgHg/ck8Pv/rQp/NiMH/4dKddew+jRo/jNskccVbpWm+VTp89w5KNjLHjkCX5eMI9ZM34ARMJadxXwtp17aGz+a9T6Fi9+mPGpvph/T+eJk+GKZHC2qi6c/2N+OncWR491qAW0iIiIiIiIiIiIiIiIiMTUbwFwe0eIys3/AkDGlJu5+66/4/qJafxfJb9mx1/epmyDd8vjWKzA16rYBSPkzX/wHppaD9ER7OQ3jz/CW//f/2TkyBFcN97PuXPn6PzkJEsXFZAybixfnTodHhvY4tVSOpZz589TuflfeLlqa8zq3ZertvJy1Vb+9NzTjqDazmrn3PnJSUdlcXbmFIoXP8zO3e/wctVWnn26WC2gRURERERERERERERERCSmfguAz3/zDbX1bwNQW/82hz/4mEcf+ilXjh7Fj6Z/n/cOf8g/b/tLwvNbvuTh8Pi523buCVfMeo2f+73b0vnR9O/zbtMBli4q4Fh7iCtHj6L6n7aFQ2P3OMVWlW2s0LYnbs+c6qjetes8cbLL6WOtR2392+FtK9JfPv7440u9CpclbZeBSfutf2g7i8jlQO9F0l06ZgYm7bf+oe0s3aVjZmDSfus/2tYDk/abiFyOLskYwACvba9n3v25XDl6FKOu+A6Tbr6h64ls1j3/SlTQG4u7ytc+Ru/LVVs5eqyDX/9iAa9tr+flqq2AUU3807mzaDn4frfWK56LCZNjtZy2WkADnuG3SF+56aabLvUqXHYOHz6s7TIAab/1D21nEbkc6L1IukvHzMCk/dY/tJ2lu3TMDEzab/1H23pg0n4TkXgOHz58yZZ9yQLg3vDs08XcMDGNlyq38Gjhg3x4tJ0nnipj+ZKHmfHDO6j4/UaAqHDXzaqeLfrlQlKuHUOqP4XM9ElUb9nuOc1dd9zG39wwgRHJyRTO/zGF83+c0PrGqwAGYxzfit9vdFTzWsv46dxZjt/ZW0A3NB1MaPkiIiIiIiIiIiIiIiIiMrhdsgA4O3MKV44eBcDXX5/lyEfHuzV9Xs6d3Pw31/Pa9npq698mK3ArM354B3k5d7LrrXe4IzvA7Ny7eOKpMiZOSOWBe3I4eqwjZqvkzk9OcurUae6dNZ3z5897hr8p145hfKqPu+/6Hi9VbuHh/AfCYwC7181LvArgnxfM44F7csLbxqr2PfLRMce4wCIiIiIiIiIiIiIiIiIisfRpAHzNd69i+PDhACQlDWP0qCs4dfoMWYHJ/Dx/HuOuvYZvv/2Wf/8fTfzjP+/o1rxn597Fp599Hg5frdA3K3Ar655/hb0NzdyRHSA7cwovV20lY8rN5P/0Xmbn3sXtmVPpPHGSMd+9itern2f0qCscoa8VwFqVvZ0nTvLb9X8k1Z/CkY+OhVtK28Nkd4vmzhMn6fzEOa5vIhXAAA1NB6NC32efLub2zKlR09hbQFvrqYpgERERERERERERERERkaEpKfcnj1zo7ZkW/MP9zJ83h6uuHEVSUlL48XPnzvPtt98ycuQIzp47x/H2Trbv+tduh78iYvinV9b3aLoLFy4w9pqrerxcjW3hTdtlYNJ+6x/aziJyOdB7kXSXjpmBSfutf2g7S3fpmBmYtN/6j7b1wKT9JiLxXOx7xMlPv3TkrN3RJxXA//ZOA8c7Qhz+4GOOfHSsLxYhIiIiIiIiIiIiIiIiIiIufRIAH/nomIJfEREREREREREREREREZF+NuxSr4CIiIiIiIiIiIiIiIiIiPQOBcAiIiIiIiIiIiIiIiIiIoOEAmARERERERERERERERERkUFCAbCIiIiIiIiIiIiIiIiIyCChAFhEREREREREREREREREZJBQACwiIiIiIiIiIiIiIiIiMkgoABYRERGRfhPaVUb5ruClXg0REREREREREZFBK/lSr4CISE+0bCyhqinyc0bhWgoCl259BpYg9evKOHZPZJu5t2eEn7ziYnL89seaqSppIGttIRk0U1VSSUuMJWm/OLVsLKExy9gmsbc5+GYXs2ym3/uXNqFdZWyk0PO5oV1llLfPYc1C9w6I3v9y6YR2lVG+wysMdb724u3rKME6ystqCFk/ZxY6joPYy7RxTRNr3RNep4tmHLe147teLyfjPSrYjdeU/XXTsrGE2rTEpnXMYwce751e61bDBOt5zZWsaMyO//cF6ygvO0re2kIyomZXyYrtE1m2PBdfwmsrl0RzJSsqmyM/e7zenK/TAAWOfW6+HsIv8ujP6os5T3JM65sT45gKUr+uEh7q6jiPFuu9Q+d23RCso/zPsNCxb+znZ12LfZ7gEvO9pefHgIiIiIhcnt49+CrvXP0zfj3ReqSDN/f/hSPX2h+D44e38gJ3suqmVMdjK89O4g9TXGejn7zNyiNf8ZPsWdzea2vawu8ajvMDc57vHnyVF07HefqoacZ6Hd3JY1+Mj17HqHkf4sYb53Hftb2xrs5tePzwVlZ+dibms8eP+ZG5XY3p3rnyR47t/O7BV/nnkc7Hemsdt56PrMOveDuynsk3smranYwHHNuHt1l55AjHrdk4nmful3POx6R/KQAWkYGnuZIqClmzNhD+eUVlCVW6UJggPzkPzaG8rJIW20XC6AutRjgR+dEKJ6zflWBclF5LAcS4GCmxZCxca25LkxkIRMJf9wV+ILOQAirDIbKDKzzyzSwkb10ZVc3er4uWyhJW2B9IIPCTvhEd+Ltee17cAZJjhnNYtnZt3Ndh3JsMmitZ0eh8KNGwN7SrjNrUYvOYi3eDSBkrdrgfc4dctvWpDJJXvJY14cUnGuwa86wqKaMqtavPiGZqdwTJKIz3pPgBixHa+SkohKo/15ER7/2wuYEWXzZ5foAg9dubybinMN4Kgj+XhbPL2LgrSEa/BO/S+5qpqoSCtWvNY8g4llcQeQ8OH0dri8nADEbX1YUDuNCuSvZlF7PGPAZCu8ooLysD280EPT1PatlYQtXxOSxbm4vP/Bwq3+h3fj6E33/85HX3bzffE3yz3b/SuV3imqkqa+C24mLYVcYK1w09LSUlkR/ifLb7Zs4ho6SSKq9zioT4yciG8q7e60RERERkwLjdfyP/fORVfocV+KZy37Rp/K5hK2+OMgLRdw++ygtM4w9TYgWQzjDR8kLDq7afUvjVRQXCGcwbc4iV+99m1bQ7uX3Kz/gDHbx58DDZU8yw8RMznLTCX4CJs/jVwVdZeTillwPUbrKvUyyfHOYdbuRX9vU8utMIuk//hccazMeSey9gzfb/jHlfb+UF8+fxY37EqmsOs/IoREJ395KMfTn+8FZWnv1ueD2OH97KC+dSyOYILxy+6dJu7yFMAbCIDDyBQtYEnD8XZJZQ1dgMAV0ljMtVGVhVUkZecbHtol2i1RzRQU1ofwNkF+oCYBRXkNtUwgp7tZZ1IT2zkDVr7eGPn5zla8lxBestG7u5vMoSyj1CMlVWXf6O1Zaxosl+Yb+MFQ22ajyPyjyjYjXQ5eswtMMrgLXJzE5wmujHMsKHsXGDiF3LxhJqj/thvB9/2hwK4oaYtqrftdHhkzPE9rhhws190wM4tmFoVw0tvjksi/m6MN4fWzLnkBcEXKserqYz13UNlaywhXZuLY3N+LLnGL9rrjHW3WsdXevpm1nMsjh/plzuAhSsDTh/LgyworKBloUBMsI3IhRHbtDKm4OvrIGWYC45/uhjwDezkLyGMvbtD5Iz09/z86RgHbVNfvKKrWPWT849AWrD62Y7zosnUl7WEHteHvM2qteLmbCujH1Rm0XndgkJ1lFuhr85fmBmMWtmWr+MdYNKF++PXbw3OnjefFRDue2mJZ1fiIiIiAxg197JqtNf8dgnb3Ocr1gZ7Az/quHIq2w9Yv20n8ca9hMV5J47xJtHM7hv2s+4z3qsTyqAYfxN8/jVwVfZevTOcHVyGh2stILm5BtZlf2zqGD09inTeKdhP+/SyTsN+4n1rcb6eyMVud3nqEwOvspjwRTmjUlkyg7ePNrBDybOY/zRnTz2yZWsmggvBOFX2T8zt6NVWXw5VNd20PAVzJtofBMxqpyvMo+NFn7X8Bd+d9RZRS79QwGwiMhQ4s9l2dpc4/9mS78MP1zMaJzONpW2MEgVpSYzyDUrn7AujAbrKC+pIeSbw7K13QvOndW79m2ebVseWNVWpKpS8HLmHaz6ycsrpsCsEk+0Ateflti+7m4FsM8RMvRE5PhfmFbGRuaQRyUrSvzeVb/26uFQJStc7dKjAwbbcR+vTXLMm1ys0C1WFZu5Pp7va0a4si+7mDULbTMNFLLGX0d5SWX0ujRXUtXkJy/PrPbf3mz8TcRu4xxyV/rFbM0rA1owSBA/t9mPT3+A23w1kYC3z5Z9lBB+fPZFBLLJoJLGZsgImO8FAMG67s3bn8uytQBB6ntthYeaSOVvDnWUl8R6n/OWcDDbXMmK7bhuGmymvKSGjMK1rLH2o4aTEBERERmcJs7iD2ZQ9wdHYOdsu2z37sGtvANw/gxbP3mbtK87eMHV5thRAZxIBWwCbp9ihKGebZXPH2FlwxGP5WXw62zj/7dne61D77WADlcmu1pAbz1tBegu4VbV+3nnyjtZdW0Hb+7/knnXXskLRzr4wY3zwtv+3YPRrbkvmaP72TpiEn+wKsRP228MyODX2Sm8uf9VHvuid/a7JE4BsIgMfME6apvoom2nOFktKI3woMsAOFzx0RwOYlrMFtB5sz3CJI8AachrbqAFIi0/rYuqIWfljCFGK1w8WkfHEdpVYwRWXmMO20NkhfWXVMwwtrmSFbVdjAnbQ92tAI43ZnX0tPbjyQpyA+GWt6EO4zdGqGy0k6+KOga9q4ermrzGJXcxwzIrsHIINrOPbBa6pm/ZWGl7fbq011Be0kzI63Vir4aLs02rSkps4YsR+FolxKFdlUaVcwCI0dUbnCG8Vekd3FhCuWO/NKsSb8Axj4dM8z3fK4TtSnMNtSE/edNiTJTgeVKoIwi+bHdx+6WhczsPVvV4kPp1NfgLC2ksKaHK9SxHC2ir48jytUSLUTFsq8ZetjbXcwzg0K5KZ/irMchFREREBr6jO3nMrPjtXtVrC++cvoobx3xJA9NYNfIQW78zjz9YlxV6vQLY1mLabH8M2EJeV4B7dCePfeE93fhP3mZl8Lus6u9Q0isAD68nvPtFJ8fNNs/jx/yIX339Nls5w1ZHFTZw+lUeC8LFt9S+OO1ffwlYY/6mkJ3c6Wr5DZDCvCsP8dj+zzUmcD9SACwiA5wZpPnmoPwqUWYbU6ClpJICR9vhIMdCMME9SaDQrPiIFtpltXKMPzbmUNfSaCQ7LZUlrDDHaC2wbTO/1VZzIVSVGA1o7KFbeUkNGbPnENwRaeHtyQqpmisp3wF5xZEXhlfQaLTz7M2/VLoj2B6ENGPMX+dYuQEK1maTUVlDfV7A+zXlefMAeI6v6wovu1sBDPHDxFAwiM/vd0xrHL+2ccKtZTva15pBb3MlK0oqY96M4ByX1Pl4bZr7bzHa1q7waB3bUluD/x7X+MjNlVQ1BcjI9E5fQ01Gu+k1ru3VsrHEHLO0i3F7bc9f0VjIsjQjrPP5AIK0NPgpWG5bT4/96tj2zZXGtljox4fthhAFMANSy8YyI7x9qIcnMcE6ys1hBLxvjBiI50kDcZ37T8vGMmqZw7JAAN/aWMFuDRNcN8s4O7bY5ucIjHG9D1s3rATZaFUcN1caHSns4a/tpkIRERERGaDMyt93D77KP5sPOVoYmxpswZ4xRuzntCdfyQ8wQsDxN02CBiuYjHAHgtn+nlavphotpj952xyb1uSqqnW0rB413nu6a+/kJ8FX+d3RjD6vpG0IvspjwSvIHtX1c43K4RZ+t/9z5t2UynjmserwVl7gTiOYt9pCWyH2ka8uYs1swXjwVbMl9l9Yaf772GfGs1buv4LxXOU5h7Sb7mTe/r/wzrU/c1aN29fTfOg+rxlIn1EALCIDl1V5pTaY3WC2P80OQHs2a/KClK+r47bu3HYVt72qeArWUWsFTFlGm9fyXUEWUkNL5hwKgJb2IBlZzhLAjIVrWZPnHAOYmWYL73iBu60qsbasDBzjPCfeTlj6S4ACqzW7W2YltfuD3q81j/e+8PicfZSaWAGCPZA0HsOoMrM9N1yt7hp7PJpR8e59k0mkzWhU5bsZ3Ba4y3kBAnPI215GVbNXcOp8aktj0BgLvbYEe+4d2lVGVVPssDxj4VrWEKR+XUn8sYfB3FdrWQO0bKwhr7gQ/lyJ0bq60OO5MT7TzLDP5wuycVdAr+EBzaqOT6CqPYZwoBeri0Os86So16TxGuyNo8ndLSDuzSZedG4XV3j79nDDOPdH9HlE1E1hzTXsww+hICGCVIXD4mbbjUbGMZwRdJ2viIgMFTE+V/Vd+VKxDSUDcBHnWtIbtD8GOiOItMRqAZ3KqmuN1saGDH7tP85jX4z3aPfrbIfcq7qsAPZmjAm8lTdHXXzLZzd7gG4F3scPb6XhbFdTRv6Gvq+UTeW+aT8Cc7/M+9oImn/F20bgfM1hVh6FX037LlsbjsecR/aVV7D1i538rqHTNa5yZ6QVNxcT/EtPKAAWkQHJuujZ7QuLQ12wmWPZhRSk1lDbjjEm33IjkDgGZpviIC1llfjWOlvAhoOlvPDMqF9XybHxQFq//hUDTkttDcwuJqu92QiYAoUs89dRXuY32jmaAXHeQszxH2Nxf3nyavVYCNuhYG0hjSU1TDCDpkb1VrkMBQkdBz81rCjxqD7NLGRNVoCq7c0Es6N/7cWX6oeGICGi8wFnMNNFC2ir3bsZwoTnb2vbvCLTqGYt32Ebx9fr4LWPPW6bv3UsZxTGukBmO94d417b/t7ZxTGm9ZPz0BzKy8qoLy4mJxi7Qi1jYTGA7XUVGdO3ILOMWs/5u+YRr9WyNZ6mY3k9GAfVdnEx455i8jrKqGouVovngcjal14hp38iPo56Tua3jeduvZ5jHXtxz5M8X5PEGS/ez4QET7W6M0yBm87tuhCso5ZC1hQ2mO8p0ecEdi1lJdTiPEa82v9HVwBb/zGGC8kr9FO1PTvqWI10eSg0wt+yGvyFaxX+isjQE+tzVS6R6KFk5FLS/hjSYo1zCyR4ieP/Z+9ew+Mozzzh/50I8AFjbHe1JDvGGROCJbUlC4YQJ+tISGrLEAgeZ0ZG0mpgAvGQy47QXnKuZlYIrSz0TvTifl9Z2FcYQhhAKwl7Z7zOgWChA3K8GcdhByGpWzJh8eCDLKmrbUOMD9gC9kMduqq6qk86tvz/fQF1d1U9XV0nP/dz38+YthecAWxFClhXfTSC+xZFWvY6Mro5gEO0VSW3c+jY++jGZfU7JC+4B48DGPpYKgst0QZWbePa7tgl40eZeYE/TTKAaXIxAExE8cfTGJSBRhGy56AoF0HzTKYV1yENPnTt8ADpDqT1AoG55gCpTKkPaesdADoBAD1Nbvgyy1GMRjQBUvBYWAonSM8HEfkozrXD16S8FOgoTUMgQKwGsoSlITKx7Gq2YltSOcoSW+Wyr3a0uVoRyCiUg83y394mlxrI8g37YM9g5/r0YMcSZwmKigHzrG4Hah2A2NFtuQYdh1Q22uvLUUdVB7KC9YEZtaxyBNla+riuA0V15eja4UZ9bwwZDkqGX8i5p/WBDd31Xj5/EC5IZM9BWTlQ73ahLeJMjEDGcZkD8DaZfGSiSy2blIAW1pXDOdyN1eXlwKtunIYUjC8yXwNNa3J5Y6vj326HHYY5rH0evCvasVpzToecDzvW5yT7Ughit+76IQ0Ms2PCbxl8tgvPniNVMPAo9wOpQ1Utwa8yLwENRJkB7PMB6/KRBsNUA9preJ1D/tsHZ3kds3mIiIiIZpChY/tR9fHloNe7Iy3lbDbPrVkwdLzEmAEMAFiah2rdCzciaZyzgXXCzAGcvGKDJvNaMnTMYm7mMZeAHqvAfL+ZdsP+Vz4yVXMtEwPARBR/vD1SpxM7CMdXYB7CTJzu7da87sKBi4twNrkEtQ4AyEHxOjeaIHUiih2AOkec6JHKko7vgLk4Z0d2sTQiXAqiedDs7sZqpaM0VBnbieDrRFsvIPa6UCEH8monZ8tkJAd1nHbpPOvJkEsBx1JGU52DsQTOda2ob/MgWw4u+YZ9EJKC534OCv5q1hHykVzJXkwvQVlmK+pdLtOgjdV8k6reRinLWCMQnDAbKa4tmRtJoEGZR9QOQfSg2eWOoNyYHdnbQo9QF0d8QHLmxGW5WZa+jTFzmKYXTze8cKDIcvCDA851dtQf6ITokI4Db5t0vknHrjQgS1hnfSzH/Jxkz4EzvRXN6vVDurdbZ9qPHz7bxcoH76tutCWHGlATEFUGcNCgQWmATBvyUVZXAkFXAt8BgcFfIiIiohlHH9y1KgFtYaIzgC9dwBDmWb//UTs2H/cDAJIXrAq7nG6+4zmr8KPxaGM0luYZgr6auXkTluNxq6+6aA2qMQKr4syR8eP4qA13LwVwTPq7+8JlJC1KVF4AkIYfZUoB3iO6ZW14XD0mRvDbvj7A/pAcfA+08fGP9mNz95DmszQZGAAmovhkEjjgXDuxkjv0RCWbyINmwyeS17hQ7oCa9aHNIBES7RAbG9GWXoLabQ54m1yoeFMq60pmNJnVatZMoHNd7OuGmJyvD/4oGYHpjpiP77TiOtg73KhwSxlWZQ45QOdyhcnEpIki9nVDTM+EuMOF0+vrUOSQzz17DsrWN6JiR6caCPQN+4JLrWszRZVMLADILYFzhxsVO/JRts0BcciO1U5D6Vht8FczZzQAaY5Hi2NCKvmpDcA6ULuqE/VuqSR0bUbgs1K5aJMvHk0GrWFOtbSSOnkgirVA4FkKIqtZsr5OORs4hnlJtU0yCah7LUpUqwROcENaHs1cqgHKQAohtxxFwy79+W04H80CebqS7TE+J6UVl0vXD7l5k1qOmc92MZAGrQhNLv2c5xaingPYZFvZkO4F9fIc6bW5dum67nKxfDcRERHRDDH08VuoSliO6hVjWMkEZgBL2ck3InPOcVT1AdWrtBmzSqASgQxUw3IbFoygqu+wrjSxfr7jqSW1E9iw/CG8sCjwmqVLfY8o4FIAACAASURBVKjqOxZ7qeXBIXQnzMMG5e8rQzgyasODSwGcjabdh3Fk3j2oNukCSV6xAS8MtmPzUa/JcUEThQFgIoo7Y5lfjgw0Ad1atcPOjiWCtnPagSJnJ+pdcsnKOiWwq2TjSUEW5dYt/T7S8s0s5WjN14n6RqCorhxpunK3djjL5cyrHW60idr960FzrxQQkMp2A0AJinpcqHcBEPLhNOl31c6rWFsX+IAUoJO2U9HEIPBk8w0DTmcOsu12aU5dQPoNAcBRglqHNrvKDqc2iNvjCZEpakf2tnJgh1sKIAn5KJMXDcwDbAwe6wdsiB1uVOzwGdbvQQ80gWZ1czkoq3NA9NkBX4SlqkPRBX0jzfZVzhcEHef6dkrBMbHDjQqXL8Q+lKQ589HmNgbagjP2o5kDeNwYguPyxvTlozm4Y/pxlKA2gmnQrJ91AkE4K8KYnpPCr1/6WKzzHZqvn892Y5NWXAc0uVDRKL9g8jwg5JajLMx6hNwwVUG0z43a66CjBLV1UqWF5kQ++xERERHFrxEMXw1R1jlG+nLSNjw+pnWPoPvCjWom6dCx/agylKU2k7xgNe6+AGxYnof7FgH3DbZjc0TLmZRdjlAgq9jwnUNkR0uB8+AS0Mk33Ighn3YOYGM7V8U8z+475z/BhqWr0N33GvaPAskJABasAY6+hs2XpDYlw4ufdfdB2rwNdy9CUHA4ecUGqZT2YDs2+wLZ12q7grKcaaLNynnw0S+muhFEFJt/fWVnTMt98cUXWHjzjTFv99ixY1ixYixDwGYm7pf4xN9tcnA/xzepRLVFp75Jlm7w5/Rz+jJLjKYKr0UULR4z8Ym/2+TgfqZo8ZiJT/zdJg/3dXzi70ZEoYz1GnHuo08wa9asmJZlBjARERERhRTIODcRUSag2Zy+RERERERERERENBG+NNUNICIiIiIiIiIiIiIiIiKi8cEAMBERERERERERERERERHRDMEAMBERERERERERERERERHRDMEAMBERERERERERERERERHRDMEAMBERERERERERERERERHRDMEAMBERERERERERERERERHRDMEAMBERERERERERERERERHRDMEAMBERERERERERERERERHRDJEwWRvaeH8usr79l/jyl7+M//1uP/b+zwO4eOnyZG2eiIiIiIiIiIiIiIiIiGjGm5QAsOuJHyAv65v40pekhOOVt/0F7spMw//b8M84fvL0uG1n29aH4cxeg5Z9B/By8/6Il8tMX4knn3gUJwaH8ZOn3Zafc2avQenfF0P0n8UPfvy07r1nt5dj8cIFuteV9doWL1Rfu3jpMgZPj+C2W5ebbuPipcto+KcmtHUdjrj9RERERERERERERERERETAJASAH7z3Hqxdc6ca/AWAWbNm4eu3LseD996DhheaYlqvWXBVUVJwP0oK7te9pgRWMxxfx715a03XaVu8EB37Xwx6/Y32Q+j43RE8VrIRc+fMxvJlS3Sfu3jpMq6/LgEJCQm61/1nzuGnO38BACjf8jDaDx7By8378ez2chw/eRo/+PHT2Lb1YdyV6cBPd/4CtkUL8VjJxpj2BxERERERERERERERERHRhAeAV/zFMsy+4fqg17/0pS9h2VeSYl5vd+9RbHr0J+rf27Y+jKxv3xU2ezbD8XU1MNvdezTkNpQgMwD8+IdFmDt3Dn5a/wtkOL4OZ/Ya/OqNLnznW3fCtngh3mg/BACmGciZ6SuD1m0MIu/Yvg0AWBabiIiIiIiIiIiIiIiIiGI24QHgz0Y/s3zv888/H7ftpN5+K46+/x9hSyfv2PVKyOxhLW055keKNqBw43o8Wfao+v7GB/LU/9dmFSsZyG+0H8KOXa+YrpsZwBTvjh07NtVNmJa4X+ITf7fJwf1MRNMBr0UULR4z8Ym/2+TgfqZo8ZiJT/zdJg/3dXzi70ZE09GEB4Df6R1A1rf/EjcvmK97/dMrV/BuX+gM3FBeem47li9bonvNmFVrpM38VbKHlcBuW9dhy2CtQjxzDu7dr0SVOUw0U33lK1+Z6iZMO6dOneJ+iUP83SYH9zMRTQe8FlG0eMzEJ/5uk4P7maLFYyY+8XebPNzX8Ym/GxGFcurUqSnb9oQGgIXFC3FycBh797ei8Pv3Yf6NcwEAV65cRVvXH9De9QcsX7YEx0+ejnrdP/jx0+r/v/Tcdpw59zF+8rQ74uWd2WtQ+vfFAIC3u71wZq+B/+zHaunmZ7eXIz31tqByzuVbHkZyomC5Xv+Zc3ixcZ+ubUqguqTgfnz/gTwMnh5hCWgiIiIiIiIiIiIiIiIiGncTFgC+N+8/4eGHvocDnf+G1Y7bceTfe3H0T/+Bq1evYsVXlyHDcTuyvv2X+Kv7c9He9Qf8sybIGg1n9hoItkUhs39HR0fVQO6z28txR3qKWt556ZJEFG5cj4uXLuP7D+ShcON6JCQk4PjJ08j/68fVdbzcvB8vN+/HS89txzu9A6bBZqWcs//sOd38xJnpK1G+5WG0HzyitoEloImIiIiIiIiIiIiIiIhovE1IAHjunNl4YH02Ft58EwDgpvnzsCr1NuRlfROAlOXa3TsA8cw5fPnLX4bznjU48u+96H8v+lr5bV2HLef9VbJ8j77/H2oWrxK4faRoA7ZtfRhXro5ix65XkOH4Ou7NW4u3Dv0Rq1JvQ/97H1hu8470FMtgs//MubBttspUDvVdiIiIiIiIiIiIiIiIiIjCmZAA8F13OLAkScDV0c/wyYWLGP3sM/W9y5c/xcvNv8TcubNxy1eS8as33kLBhvW4c3VaTAFgZb7dCxcv6cpCa4O/2oDrtq0P4968tfCfOYcnt9cDAJ584lHcvGA+hkZELFgwH290/B7ffyBPVxJayyoDOJr22hYv1L2ulIAGgDfaD4Wdj5iIiIiIiIiIiIiIiIiIyGhCAsBJdhtmzZqF//mbDpw4OYQXX92Hsh/9ZyQKi+Hzn8ON8+ag8Pv34fMvPseefQdw4eJFJAqLYtpWd+9RbHr0J9i29WF07H8R/jPn8Lt/+3d8795s9Pa/HxSo3bHrFezY9Qqc2Wuw/R+2Yu6c2WrA9dnt5Vi8cAFebt4P26IFKCm4H7ZFC4KCsaEygAGo5aW12bzXJSSocwBr39OWgO7uPRrTPiAiIiIiIiIiIiIiIiIiAiYoADxnzmx89tnn8J85hx8Ub8DvDr+Dy5c/BQB8+umnuPzpFXz+xefAF1Kw9Pz5C2PephLYfaRoAwo3rsdHH59H87+8HvQ5JQPYLEi7eOECnDn3sbq+Hs+fUPr3xUi9/VZddnGoDOBHijbge+uzAeizfY+fPK2bF5iIiIiIiIiIiIiIiIiIaLxNSAD40qXLmD37enznW3fiH+t/gbysbyJRWAwA+PTKVXx65QpGRz/D6OhnOPfRn3F1dBSfff7FuGz75eb9eLl5Px4p2oCfPl2Gtq7DugxeJVCseOm57Vi+bAkAKRjd8q9vqO9ZzckbSQYwEMhO1np2eznuSE8JWkZbAtp/5hwzgomIiIiIiIiIiIiIiIgoahMSAP71gS7ckZGCOzNS8dJz23XvOVK+BkfK19S/nyx7FKdOj+D3f+ge1zYogeBwtJm9kYj280axzh1MRERERERERERERERERBTOhASAL166DNd/+/9x+21fxS1Lk0N+1n/2HDNdiYiIiIiIiIiIiIiIiIjGwYQEgBXvvf8h3nv/w4ncBBERERERERERERERERERyb401Q0gIiIiIiIiIiIiIiIiIqLxwQAwEREREREREREREREREdEMwQAwEREREU0af1cDdneJU90MIiIiIiIiIiKiGWtC5wAmIpow/S2obumX/xCQU1qKtcKUtiiOiDi0swFDzhoUpEqvDOypxF6P2WfN9m0/9lb2YFVNIVLQj72VLRiw2FJKYWAbJO3nvlXSPrHe54AttxRbssMf0P6uBuxBoeln/V0N2D2Sh6pNxh8g+PenqePvasDuDrNgqP7cC/VbBxEPYndDO/zK345C3XFgvU0NwzJWbY+4TWMmHbedSeHbpSddo8QozinteTOwpxKdiZEtq1tHByK4L/Vjb2U7kpXP9begui8j9PcTD2J3w2nk1BQiJWh1LahuW4ItT2TBFnFraUronmFger7pz9NUFOh+c/l8UE/y4Hu18R4Tzf1Yt6wtz+KYEnFoZwtQFP3zl9W1YyxtJhiuIaGfz4DA/tU+m4RcN68vQXTHrHweWz9/yYz3aAA2Ryrg6de9ZmR2PgzsqcReRHtfnInCXxON50TQs3a467Lxd7O8Npo1T7+s5bUtkucAU9p/m1lvN6o2ExERjafhg9h6IRG7bl0ZeOnE63jm6q261/DR23hmBHjs9ruQpH1t8CLuT8vCat1KRbS+dwgnFmzED5MwDqT1/Xo0uqWS5q/FU7dIzxTDJ17Hi/iG+rf04kFsPXNGv9DsVP33HmNbk+avxWP4I545/6n0QsIyPKXuw6P4ufcD3LL0u8jH23hm8CSGldXoPge8+8E+vDiqf43iHwPARBSH+rG3LwNVNYUA5E7ShhbYzDrEyYSAtUV52N3QggHNPgvujJCCE4E/lU4J5b1KSJ3SNSgApE6GZmATOxYikrKpRt6XMrnjKdAhZezMAuAoRAFazDtqDZ1GtuxC5OxswN5+806mgZZKVGtfiCDgRxMjOOBvOPfMGDsqdSvMw5aampDnYchBBv0tqO7TvxRpsNff1YBOe6l8zIUKQDSgusP4mjHIpWlPi4ic0hpUqZuPNLArrXNvZQP22sMFk/rR2SEipTBkFMS8k1UmBe0EFBQCe5sPIiXU9bC/BwO2DOQIACDiUFs/UpyFoRoICFnYlNuAPV0iUiYl8E7jrx97W4CCmhr5GJKO5WpNEEc9jmpKkQI5yLPzoNpx7+9qQW9GKarkY0B6DmoANIMJ9qIQVTXysdzfguqWSuyNIKA6sKcSe4fzsKUmCzb5PrR7j6C/P6jXHwE50X53+ZpgyzW+FXubSZaah5y2BuzuKsWWbOn5DOJB7PWmokB7rHSIume+lE2F6KtswCEOpoyJLbcUm9CCPRCg3EeAFlSbDfKTA3BbarKCg32bTD4fZtBeyqYaFOypRHUlrunnuLDXRM0zQ1W2IAdGtc8F4a7LIg419yC9tEZen3xt3InwAVU5CCsU1mBLKuRrm/F80zzzOzKi/O7KYKFUrNJvOPY2ExERjbekVDzw3iFs/QBq4DPplu/isQ/24ZkTi6WA6fBBbD0DPJaWZRl8HD7xeiDIqTizD1s18dWMxbEGhAXk374R+WbbvGQPGRTVt+sQtnql/0uavxZPXQ99oHX4ILZeiKV9wTIWb8QDV17Hi9Bs76YP8cwIIAV+R3BXWqJhqcXSPj7xOp65Ol/9TsMnXseLo4uRgZN48cRX9UFsimsMABNRHEpFgaaTxJaWAVtHD/wiAN6fQjOMBN9b2YCc0lJNJ0CkGT3BgRq/twfIKGSHQhBDINdTiWptZoLSke4oVAc1SASsfaIGaw2B9YE9UW6vpRK7TYJkzKya/oY6G1Dt0WbqNqC6R5O9YZLJIWWspoY9D/0dZgFYDZMOSPNlgl9LUQ9jOQBhbN+wACQJEBLz1KCEOU3Wb01w8EkfxDYZMGFkHPQA6Pahv6sdA7Y8qYPWsj0tGHDkIcfkfqNmfcltrUILqjVBO6OBvn7YMvKk9/rbpbabtdHQTlt2KbaE+Jo03aWiQHs8IxUFhamobunBwKZUpKgDEUoDA7Ry8mBr6MGAmIW1QvAxYMsuRE5PA3q9ItZmC0BqIap0myhEgaMSe/v6gdTQGeadHgE5pcoxK2CtMxWdats0x3npEuxu6In8a6vZ66VI3tmA3qDdEmObSUPA2icKMVTZjoFs5RlNAHoC12lbbimqaozX3VQUFPagurMfa1f1WA8uQj92V7aDlXeCiSMihFUCBvY0BIKMRv0tqG4b/21LAwrl4F5XdBUrZopw10T1/q7sGyELOY52zfUl3HVZwNonSjXvS4NpezXXZSsDne3wOwoDzxapecixaa7XajWQGhR0VmJvFN9bqVJSVdiO6hbju7G3mYiIaPwJyL89FSe8H6D1I+DEYD/Uf0lcDgRMAeBF7z4AxkDuJ/jNiaN46pbvYpf6yfHOAI5dktyudz/Yh7fnSe2RsoGnKxE9l4AHEqVgvBTAvhGPpWVhNY7i595D+Pnw1O9XGh8MABMRXUsEOesAUMv5pQjAWGbj1Jep1ASDruFMBD05kCtnE0AJvIoHsbuyHX5bHrbURBc412fvavd5hmZ7gJLBADt7eaYz88CqgJycUnWwS6QZuEJiZL91tBnAtuxSVGVHtGoLgeN/U2ID9iAPOWhBdaVgnvWrzR72B2dSBQ9g0Bz3ocokWw5yUYJuVlkxcntMr2tSx3tvRimqNmlWmlqIKuEgdle2BLelvwV7PQJycuRs/7Z+6TvBusyqv6sB1drS3SzlODOJIkQISNcen0Iq0m3tmoDBRG37NPwQYNNuIjUDKWhBXz+QkipfCwBAPBjduoUsbKkBABGHxq3BFEwJZJkPitHeb3TXUTUAn4oq/bgdCUtAh9CPPk8qkhMbpCkD0vqxu7IH6VEGyYOmBrHlYcsTwc/RVtM4pCgZphREHBGBJEF37KasSgU0g1smaMvwDwO2DN0FHSkZAjp7+uHPzoJNE3wOVbLdTMomOWPZaswGERHRtLISP0yTyx7frC9/rA2c6gwfxDMXAOBTDJ//AK3D5/H2GU0JY8CQAbxYDmJOgY/exm8uL8b9t0p/Dl/9FLhuKhoSgeF+/DrhVuy6WS77fFm731bih2mL0frePmy9MNZS1TQdMABMRHFPGVnNkczRUEqdSR15YQPAarnHfjUQMyCXgM7JtZhHq89sRdew/h4MAIHSckomtr9dzqjRsiiFC5PS0SH4u9qlgJXZnMPaIDKD9VPKMhjb34Lqzljmggsv2gzgUHNWBy+rPZ6UQG6qWlrR75PekYLKUjn5vUHHoHn28F5PBJlncrBMCVjpiP3oRQY2GZYf2NOiOT8NRtqxu7IffrPzRFuKO8Q+3VtZqQm2SAFfJYXY39UiZTlL03Za0gbhlUxvcU8ldut+l37d9YSZ/vFAPh4c8jXfLAgbTn87Ov0CctIsFhIPotODMOXNAb9PBGwZ06OYSoRtJpmmwot0T5FeVq8BhgDuwJ5K9JkuJxhK+VNYI6ch2pYgJ7sQKV0NqG6Qnqo7GyrRKX/ElluKLXbIQUjt9AjSc3VKYQ1WQfM8ECJbOHhAlhzs12bLy/ema/YeoLsmmgVhwzFcl00MdEqDOFNCrlbEkB8QpslAzMjaTERENN6O4udeOeM3Ibr5Zd+9cAaJ1y3DyGXgsaVz8Zsz8/FU2kb53cnMAPbhRe8+DFvO3XsUPx88icTFG3XB58Tr5Zvu6Ek84z0ZeGO2sSzz5Bq58gmARHnO38XISDijZl4HLMYDcz7A1vfOc07gOMcAMBHFJe3od5tVqTWyIJcxBTBQ2YICXdlhqaMi2bhIaqF5Rgik30Iq5Rh6bsxr3UCfFNkZaKlEtTxHa4FmnwlKWc1NwN5KqRiONui2u7IdKbl5EDsCJbxNKUGq/hbs7gBySgM9f2aBRqmc53h+U4qGOCICiVL5P33mRyoKajKQ0tKOQzkW2SmmgwcA0/l1DcHLaDOAgdDBRL8owiYIumWl41czT7iybV2pRjnQ29+C6soWy8EI+nlJ9a93Jhq/i1S2ttqkdOxAZzsEp2F+5P4W7PWkIsVhHn31e/pN7zMDeyrlOUvDzNur+Xx1XyG2JEod0zYbAIgY6BFQoM3yMvlddfu+v0XaF5sE2KAZEMIMvbg0sKdBClQUxRilEQ9itzyNgPnACHnAkS0P8TPOJx7bPMXkCi9StYgAfcUQwwCRVebL2bLzgMoWDPB5LjKJGUgfbkFnfxYK1OCsydy96i1Gc9/TzAE8MNaBkx5NtYwYqsvMGGGvieGFuy77uxqw14MQVUOmn3hsMxERzRRy5u/wQWz9WH5p+CC2njmj/9hlTSZvwjI8dftXMTJ6A26ZB4wAwM134f4z+7DVa/h3u2EOYFgGacdg9Ebcn/YNjLx3CFu9H+CBpd9F/s3KmyJa3+sH5JLVUkYtACzGY7cCGMY4zwEsBb5/PQrgzD65lPYhPCP/d+t56VPPvHcDknCj6RoSb/kGHnjvEN5esBG7tJHd4YPY+vFcXcDXOCcyxR8GgIkoLmlHv/u7GlBdCc5HFhG5/GlGKjCSgaocEbt3HkR6NEO5QpZXJVPiQXQqAaZVUpnX3V0iNqEdA448FAAYGBGlcnSaFMCUTTWoytHPAYxsuYR3qIC7Jiuxs6EB0M3zHHk5YZosqShQSrMbOVrQ6RXNzzWTEsDq/JwTFDVRBt9oA5LSa/I1WPNZNVvdMPd4MCnj3XyQSaATPSjzXQ7cFhjTeQFpjr22BuztNwuc6j860CdKc6F3yhlxmu+612MdLE/ZVIMqiDi0szL03MOA/FvVoArAwJ525JQWAs0tUObsDP6sRQet3LFts4nY05XKcziuKVmAsc+nqg6Gs6rioNwLjMdU0DkpnYPjcTQZqwWEHGxixqrNFJOwGcCm5DmBQ8xhTlqBQUd+X7u+PLMagBeQkzvWM8ykrLejUJ16ICU3D2KP5nnxGhT2mhhWuOty4DcwDoozv/bF0ASDoJLfUX836zbTOLK4r/LfylNFW2kB4Nz1U42/B5lIytIFHq1KQCfd/l3go7fxtvz36ltTkeEdwV0mZZ6HT7yOZ67eOjElixPmIgkCVt++EfnDB7F1cB9+fUYJNAvIv32j+tHVt25U5yl+94N9+Pm8jdh1u/ZLZWnmMY6FgPzb1wJy9vMDV17Hi/gGHsMf8SK+gadu+hDPjACP3T4fv/ZaZXsIyJhzA3594SB+7j0TmI8ZAHBGl62sn4uZ4hEDwEQU92zZpSgYqcTezn6sZapIaGI/hjIKUWBvR+cIpMyPJ6SAxBAglykWMdDQAluNvgSsGljKUVeGQztbMJQEYGqrl0x7A53tQG4pVo30Sx2uqYXYIhzE7gZBmvdLDhDnbII8/6MV4z+elFLcCkEKLLUBBTWF6KtsR7IcaOrjA9s0JJUlFNCO6kqT7FNHIapWpWJvWz/EjOC3zdjsAtAjSuU8De/pOyfDlIBWyr3LQRh1/ZqyzdUOKZt1d4dmHl+zg1c797hm/cqxnFJo1UGmOd51WWya75tbarGsgLVFedjd0IBDpaVYK7agWlP2XitlUykA7dx7gTl9CxwNagnPUEJ2qhpKeUrbi2EeVE3nYoqzFDm+BuztZ5nWuKT8lmZBTmEJbDhtupi2jKhyPlsde0rQwDQAa3pOIsR88QKSI+yki2aaAqOQbaaYhM0AtpJaiIK+BgyIWeygjYSwBLZhEdgUKgO4RXr2jn0jgbnuIQfxV0nzPQMA7FnYlNGA3XuEa3JaD+trogCb1TOwbUlg4Euo6zIA/ZQWwc8tVte+ZBukf2MZGeYkthJc8jsaodtM48jqvkpTJHgqGZpK/D1ovJmVK5bNnoTNJ2VhV5KUhfvMicV46hYEMnLNXDZkKCurmb8WT90y1Q/aifhhmub+ZZIBTPGPAWAimjFsiVN944wDQhYKshE0z2TKphqkQMShnf2AIxUpHkB6UFd6UEQM9IhIcaYCOAgA6NvTADGjFJvQIpUN7O/BgG0JckB6IvzIw6ZsAaJSX1HuZBIKpTlRlQCx2jGj7ZAKIqjZip2Jpdhib5ezegR0VrYjkFEoB5vlvwf2BOaiE0dECKt4vkwPApJzClGwCTDP6k5FVSrg7+qxXINOqlQ2WttpH8gK1ndOqmWVI8gW0sd1U1FQU4pDOxuw2xNDp6KS4Rcyi0U/2EHXoSufPwgXJBKysKUU2N1Qic6IOz8DnfZbUoGBPSYfmehSyyYloG25pcgZ6UF6aSnQ3IAhyIOfJmL7NMHk8sZWx78gQIBhDmuxH71+AemaczrkfNj9LUGZ+hERlsDm79EH/fp7MAABE37LiLXNFFJsGcDysvLgGFWEAatrm3Ifz1NfUaqubDIdISVXkUgqRAEAv3YuedsSy634uxpMK1rYsktRsKcS1XtizYCNT+GuiUKiAH9PP/zZgfv2QF8/kJQh/x3muqxMnxN1ZQIp+Kybn1n+N1V0cxLHItY2ExERTbCP3sYzgycxbHzdGCi1LOW8GI9ZZgCPa0tDkLJ+lfLI2v8HIH/Hi0icfQbAYvQgcWIyk2MSCKBnLF4JaY7mD3DL0u8GvsNHb+OZM/Px1LRpM40FA8BEFHf8XQ3otJfqy3p6BOTkMKA1FoH5rjIw5OnRvF6JtouLcC6pEFWpAJCFTbkN2AMp+OLvAgARh9r6AX+/VJbUPkVfYloSsHaTNKJO6vrrx96GHqSX1kidVKHK2E4E8SA6PYDfU4lqOZBXNTlbJiM5qJMjKJk8cilg0VD2OxL9SoZrIXJy27FbUxFBHBGDBsioncfabWjWETJQqmTJOAqxJaMduysrTYM2QWULjbTzFcoCmX9mI8W1pRlrIshKU+YRFWDz92NvZUME5cakDKtQ/D5R02k8ASw7a2PMHKbppb9HysayDM6kIidXwO62g/CnysG6Tul8k45dOXiQa30sD/RJAyyiDqQKWchxtGsqqkj3dutM+/ETc5tJR5pX3vr9gT2V6PQAgIAczYg98+WMA3Eim+/8WqMEbW25pbBBhLTf5JGWLZUYAGDLlf5U78XKPLUQgdIaVAnSgKPg7Pfge2i4wVspm2qkIHDltZL1Gf6aaMvOQ0qHPE9zKuRnYQE5pfIFJ9x1WXleK40+kJqSkwdbQzsO5aTKz/3t6PSnomCiqxyMoc1EREQTzhDctSoBbW6KM4BDGD7xOp45/6k0529aFoY/2Ie352VhFw5KcxeP2/zEZ3BidDHuSgJwQvq759KnSFwg7wJegQAAIABJREFUAPhQ/ow89zKOqiW0JdoAemD+4vybATUqf/NdeOzPr2Ord8Q02E7xhQFgIoo7tuxCJO+sRHWL8grnEBkbZW4oZT/2Y6/hE0l3/xeUKhkkLf26DiqbXYC/pQWdjkJUPZGKgT2VqO5gR6E1TWZ1fwuqW6T5R5UOOr+3B/6kPH1njZIR6EiNuSMvZVMNhK4GVDdIGVZbUuUAXWXlGOZKo7Hwe3vgd2TAv7NSLhMpn3tCFrY4W3TzL5p2zmszRR2FqFKOq+xC5OxsQPXOPGx5IhX+YQHpmgEyQZ3HmjmjAWBviGNCKrGoDcCmoirtIHY3SCWhqzQlRS3LFkaTQWuYUy2lsEYeiGItEHiWgshqlqx4UM4GjmFeUm2TTALqAxYlqlUhMrnoWiSVUTdSBlIoU1vozm/D+ajLFFRoS7abDLCIZE7ClE2l0vVDbt6klmOOsc0EqM9ySalI6WjAbpRii3YwS2pgEN/aTWbL5SGnR15O/b1ZsjES+nNEsNhnIg7tFIEMBAZ51dTo7oFSNZ7g5Yb8cgl2TfWLqqBBg/oy7SmbalC1qgXVEQ18mhlCXRNtSEVBaZ70rALA/N+OIa7L8uCbzobKoGkhwl4jhSxsKTyNanXZybymxdhmIiKiiTJ6Es8M3oAHlt41hpVMhwxgLVEtAZ00fy12pQXusWqWszLn8bAcCMYYS0APj6AnYS4eUP6+OoK3Rxfj/iQAH0WxmhN/xNtz1uIpk8B70i3fxa7hg9j6wdFplL1MsWAAmIjikH4OLBoDTUC3StN5lWzTdoKkoiDnIHZXyqXRapTArnZeqUCnlTQHlrT8XpZytCYexO4WoKCmFCm6LBslI0EJzGv3bz/2eqSAQKCjsBAFfZXYXQnAlgezRHjtvIpVNYEPSAE6aTvXWrnA6UAcAXJysrBWEKQ5dQHpNwTkznq5NKQfkLK1NEHcvv4QmaIC1j5RCuxskAJItjxskRcNzANsDB7rB2z4uxpQvVM0rL8ffdAEmtXNZWFLTSr8ogCIEZaqDkUX9I0021c5XxB0nOvbKQXH/F0NqK4UQ+xDSUpOHjobjJ3KwRn70cwBPG4MwXF5Y/ry0RzcMf2kFqIqgpia9Vy64Z+BbGOYhzfiZ6yY5zs0X/9Y5g4mSNl+SfL5vkm+r4ec5x0ABOT85wz0Ig9bNmXBhizY9lSqwf+Qy10jQcWxCKqCYcuTg25Z2PJEqCUD9zNlOen2rz/ndOvX3OdVEV5r4t84XLPC7qsxzu8azXV/vNbPOWmJiGiaGb7yyThmwMoM5aSlksaTTQguAW1FCQSP0bsXPsEDianoeW+fFHhOADD/G8AH+7D1MoDZqUjCUfzc2w+ph2Yx7roZQcHhpFu+i6cAKTB9Rqq/nTQ/NTD/b1IWdo29uTTFZuU8+OgXU90IIorNv76yM6blvvjiCyy8+caYt3vs2DF85StfiXn5merUqVPcL3GIv9vk4H6Ob1KJaosgp0mWbvDn9KVEmX1CU4XXIooWj5n4xN9tcnA/U7R4zMQn/m6Th/s6PvF3I6JQTp06hRUrVsS8/LmPPsGsWbNiWpYZwEREREQUknlpSllEWSYsJUpERERERERERDRZvjTVDSAiIiIiIiIiIiIiIiIiovHBADARERERERERERERERER0QzBADARERERERERERERERER0QzBADARERERERERERERERER0QzBADARERERERERERERERER0QzBADARERERERERERERERER0QzBADARERERERERERERERER0QzBADARERERERERERERERER0QzBADARERERERERERERERER0QzBADARERERERERERERERER0QzBADARERERERERERERERER0QyRMJUbvyszDTnfuRuv7TuAnLXfwCcXLuJ//PLNqWwSEREREREREREREREREVHcmtIA8PfuvQdr7spAZnoKbpo/DxcvXsbxk0P44zt9U9ksIorAqVOnproJ0xL3S3zi7zY5uJ+JaDrgtYiixWMmPvF3mxzczxQtHjPxib/b5OG+jk/83YhoOprwAHB+zreRmb4S589fwC/feAunTo8AAJYvW4KPPj6P0dHPMDo6is8++xyfXLg4pm05s9fgsZKNeLFxH9q6Dpt+JjN9JZ584lHYFi/Uve49+gFu/9pyJCQE75LjJ0/jd4ffQeHG9WjrOowdu16x3H7p3xdj7pzZAIA32g9ZflbxSNEG5GXdDffuV9Dde9R0faL/LH7w46d17z27vRyLFy7QvW723S5euozB0yO47dblptu/eOkyGv6pyXJ/EVlZsWLFVDdh2jl27Bj3Sxzi7zY5uJ+JaDrgtYiixWMmPvF3mxzczxQtHjPxib/b5OG+jk/83YgolGPHjk3ZtickACwsXgjnPd/C7490Iy/7m7gjPQXnP7kAz9H/gzvSU/Dx+U/w8EPfw/JlS3Dsw1N44h9+ioc23otNf5WPmv+6BS37DuDl5v1Rb7et6zDW5XwLhd+/N2xAUwnOKkHTE6dOo/TJfwQAvPTcdvS/90FQ8Pbl5v146bnteOm57Thz7mPckZ6ie98smGoVcD5+8nRQUFcrM30lHivZiLlzZmP5siXo2P+ibjvXX5eAhIQE3ev+M+fw052/AACUb3kY7QeP4OXm/Xh2e7m6vW1bH8ZdmQ78dOcvYFu0EI+VbAy5n4iIiIiIiIiIiIiIiIgofox7AHj5siX4Lz8qgSPla/jr7zkxZ/YNAIAb583F1scKseCm+bh46RIG/nQMs2ffgJsXzMcD67PhSPkaro5+hv9z7ATe/+DDmLf/Zue/4bGSjXBmrwkZBL43by3uzVure+2l57Zj+bIl6ve4N28tRkdHdQFps6CtEuR9u9sTtM3u3qPY9OhPov4eP/5hEebOnYOf1v8CGY6vw5m9Br96owvf+dadsC1eiDfaDwGQsoSNAfPM9JVB6zMGkXds3wZACiYTERERERERERERERER0cwwIRnA8+bOwaxZs7DgphvV12bNmoVFCxcAAG64/noc/dN/YMR3BvfnZ2Hzw38NADg5OIwdu15Wy0SH8kjRBhRuXG9ashkAnix7FE+WPar+rQRyezxSmWVjBrBCW7Y5M30lyrc8DEAKDs+bOwc/3fmLoFLNsdi29WFdAFoJyALAO70Daslp7XfY+ECe+v/aZUsK7kdJwf0hS04zA5iIiIiIiIiIiIiIiIho5hv3APDxk6fR3TeA5cuW4IsvPkfH747gn5v241vfWI3iv/kuFi+6GadOj+B//PJNPFbyfZz76M94bd8B5Od+CwAg2BZGFAB+uXm/aZnoZ7eX45alSZaBWiU71iwDWKEESV9s3Ke+9oMfP41HijZg+z9sxcHfv42sb9+lzvWrMK5TKcls1o4du17Bjl2v6AKy3b1H8dJz29XPiGfOmc4NbPadtEFsIiIiIiIiIiIiIiIiIro2jWsA+J6138CPf1ikZv72v/chdv28BRcvXcYv33gL8+bNQUnBA1jx1a9g36v1+Lc/vou/+btyAMC//rptPJtiKVRJZm3w9cLFS/CfPad7Xxt01mbaaktAGzNwt219WJfdq6WUcQ6lfMvDSE4ULN/3nzmnC1Rry1iXFNyP7z+Qh8HTIywBTURERERERERERERERHQNGNcAcMKXv4zrrgus8vKnn+oCjKL/HEY/+wzX4zpcd10C5s+fN56bj4g2QKrlP3MOV0dHQy4bKtBrRcn0faRoA/Ky7g7K6H12ezkuXLyE7t6jyExfiXlz56D/vQ/UYPNLz23HO70D+MnT7qB1K9nD/rPndEFtpXR1+8EjeLl5P57dXs4S0ERERERERERERERERETXgHENAP/pg+NoP/gH3JmegqVLErEkSUBm+ko14HlXZhrmzL4Bly9/iqPv/wd+f6QbG+/PxYGO3yPr23+J0dHP0NZ1OOLtWQVzAQRl3SoB0B/8+Gn1tWe3S9nHSnD1pee2Y/YNN2BV6m24cPFS0Dptixbiuuuug//sx6ZzEGtLQBvLP39nzR14t+9oUDnnxQsX4My5j0N+zzvSU3TZu1r+M+dMX9cyCx4DQFvX4aj2NxERERERERERERERERFNb+MaAD5+8jR2Pv/f4Sr9AZYk25Fkt6Fy2+Po6/8TEoXFWPHVZZg1axZ8/rNoeKEZf//I3+CuzDTcs/YbWL5sCT777DNcuvwp/tcf3oloe9pgriLcHMAA8Ly7En/49z4AgeDq8ZOn8dzPm9W5dI99eAo/fboMLfsOqGWfMxxfx9WrV9HjOYoMx0pcuHgZP3tpT1AQVcmyVTxStAHXX38dOn53JCgD9+YFN+F3h0N/X6sM4EgoWcu2xQt1r2sD5G+0H4o4o5mIiIiIiIiIiIiIiIiIpq9xDQADwJ2rU3Hn6lTMmjULALDgphvxn755h+4zy5Ym4aG/Wo9Tp4fxl6vTcOtXlyEhIQEfnhzEOz39490kncz0lVh4802wLVoAIBBcfXZ7OXZs36YLhjqz1+BHP9gEQJr/N/X2W3FicBjdvVIAOFLfvHMV2g8eQYZjJZzZa5CQkIDc79yN1NtvxUcf/1kNMNsWLcTcuXOClg+VAQxI8/g2/FOTLhB9XUKCOgew9j1tANoqQE5ERERERERERERERERE8WncA8D//m4/fvPm7/Dgfffgf3d78dVbluJrf7EMV65cxYHO3+PO9BSc/ejP+PrXvoqv3rIEH544jR+7/h/8XfFf4cF778G/vPL/oeVffovGvb8Z76YBAHK/czfmzp2jBmLf6R0AYF4mWVsi2Zm9Jihbd97c2Xiy7FE8WfZo0LJKaeZHijbgL5YvxW23Lof/zDk8ub0eGY6VKNy4HleujqLhn5p0y129Ogr/WX1J6FAZwI8UbcD31mcD0Gf7Hj95WjcvMBERERERERERERERERHNfOMeAAaAV1/7FV597VcAgJr/uhVf+4tlOH/hIv7XH97Bzuf/OwCg9qlSJNoXY/6Nc5HhuB0LF8zH559/Dp94Fh//+ZOw2wg1/y8QPAcwIJWoBoCDv38bO3a9gm1bH8a9eWtDZtcqyymB38HTI+rrkZSAfrl5v5rhq7AtWogLFy/jVwe60NZ1GM9uL8cd6SkApMBxj0efmRtJBjAAdPceDQr6atetpd0/xvmKiYiIiIiIiIiIiIiIiCg+zcp58NEvpmrjj/9dATben4cvf/lLAKRA69P/uBunNEFWIrL2r6/sjGm5L774AgtvvjHm7R47dgwrVqyIefmZivslPvF3mxzcz0Q0HfBaRNHiMROf+LtNDu5nihaPmfjE323ycF/HJ/5uRBTKWK8R5z76RJ1yN1pfinmr42Dxoptx5epV/PKNt3Di1BDmzpmN5ETbVDaJiIiIiCaQ2OFGfYdvqptBREREREREREQ0Y01ICehI1bpfwFeWJOLU6REIixfiwsVLajljIqLI+NC1w4025KNsWw6EqW5OXJD22en1dSiSqtXD2+RCc6/ZZ+1wlpcj2659zYNmVzcy6kqQBg+aXY3wWmwprSSwDZL2c0+GtE+s9zkgrCtHWa7d/E0NscONJpSYflbscKN+OB+1xcYfIPj3p6kjdrhR/6ZZMFR/7oX6rYP4OlHvboWo/J1eojsOrLepYVjGqu0Rt2nM5Gt9cvh26UnXKF8U55T2vPE2udCWFNmyunW8CZNrp1nbWrFE+ZynERU9maG/n68T9e5BOOtKkBa0ukZUHFjKe2E88DSiotET+NvkfNOfpw4U6X5z+XxQT/Lge7XxHhPN/Vi3rGD1fOVD145G4G/DHefBrK4dY2kzwXANCf18BgT2r/bZJOS6eX0Jojtm5fPY+vlLZrxHAxDSHUCvR/eakdn54G1yoRnR3hdnovDXROM5EfSsHe66bPzdLK+NZs3TL2t5bYvkOcCU9t9m1tuNqs1ERETjabAdm88n44WVgTvV0LH9qLpym+41nD2MqkHg8VVrkKx97fgFPJiZhzt0Kx3Bb/vewvFFD+FHS8ejkdL69o9Gt1TygntQvSIRgPSdnsca9W8A0nf3+fULzVml/95jbGvygnvwOA6j6mM5rpawHNXqPvTiZ93vY/nyDbgPh1F1/DiGlNXoPge8c/Q1PH9V/xrFvykNAANQyz2LZ85NcUuIKC55WqV/7PNfslGwI/tv81HvboRX01EQ3BkhBScCfyqdEsp7Lkid0nUoAqROhleBYnYsRCStuE7elzK54ynQIWXszAKQXoIiNJp31Bo6jYTcEjh3uNHsMe9k8ja6UKF9IYKAH02M4IC/4dwzY+yo1K0wH2V1dSHPw5CDDDyNqOjRvxRpsFfscKMtsVw+5kIFINyoeNP4mjHIpWlPow/O8jrUqpuPNLArrbPZ5UZzYrhgkgdtb/qQVhIyCmLeySqTgnZ2FJUAza92Ii3U9dDTDa+QCacdAHzoOuBB2vqSUA0E7DkoXudGU4cPaZMSeKfx50FzI1BUVycfQ9KxXKEJ4qjHUV050iAHeXZ0qh33Ykcj3s0sR618DIgdbtS73YBmMEEzSlBbJx/LnkZUNLrQHEFA1dvkQvNQPsrqciDI96H6Jrv+/qBef+xwRvvd5WuCsM74VuxtJpkjH84DbtR3lKMsV3o+g68TzX0OFGmPlTd9ume+tOIS9Ljc6Ao7aIXMCOvKUYxGNMEO5T4CNKLCbJCfHIArq8sJDvYVm3w+zKC9tOI6FDW5UOHCNf0cF/aaqHlmqM21y4FR7XNBuOuyD12vdmN1eZ28PvnauAPhA6pyENZeUocyB+Rrm/F80zzzp2dG+d2VwUIOZOg3HHubiYiIxtvSVdjQ9xY2H4Ua+ExesQGPH30NVcdsUsB0sB2bfcDjmXmWwcehY/sDQU6F7zVs1oxvz7THGhBOxH2rHsJ9Ztu8kBgyKKpv11vY3C39X/KCe1B9A/SB1sF2bD4fS/uCZdofwoZP9+N5aLZ38zFUDQJS4HcId2caW22T9vGx/ai6cpP6nYaO7cfzV23IxHE8f2yFPohNcW3KA8BERLHzoLnRA0GwhxwxTxqGkeDNLjec5eWaToBIM3qCAzViXzeQWcIOhSCGQG6vCxXazASlIz29BLV12uCPHdnb6pBtCKx7m6LcXqML9SZBMmZWTX+n29yo6NVm6rpR0a3J3jDJ5JAyVh1hz0PxTbMArIZJB6T5MsGvpamHsRyAMLZvyA4k22FPyleDEuY0Wb91wcEnfRDbZMCEkXHQA6Dbh2JHK7xCvtRBa9meRnjT8+H0ATA0Xc36kttai0ZUaIJ2Rt4eD4TMfOk9ZTCTWRsN7RRyy1EW4mvSdOdAkfZ4hgNFJQ5UNHbDW+xAmjoQoTwwQMuZD8HdDa8vB9n24GNAyC2Bs9uNd/t8yM61A44S1Oo2UYKidBeaezyAI3SGeVuvHc5y5Zi1I3u9A21q2zTHeflS1Lu7I//aavZ6OZbscOPdoN0SY5tJw47sbSU47WqFN1d5RrMD3YHrtLCuHLV1xuuuA0Ul3aho8yA7o9t6cBE8qHe1wjy78trmG/bBnmGHt8kdCDIaeRpRcWD8ty0NKJSDex3RVayYKcJdE9X7u7Jv7Dlwprdqri/hrst2ZG8r17wvDaZ9V3NdtuJta4WYXhJ4tnDkwylortdqNZA6FLW50BzF91aqlNSWtKKi0fhu7G0mIiIaf4m4b9UqHO9+H789Cxw/3gf1XxKXAgFTAHi++zUAxkDuJ/jlMS+qV2zAC+onxzsDOHbJcrveOfoajsyX2iNlA09XI+i+AGxYKv2LQQpg34jHM/NwB7z4Wfdb+Nng1O9XGh8MABNR3PI2NcKbXoKypFbUR9EHeU2zy1kHgFrOL80OjGU2Tn2ZSk0w6BrORNCTA7lyNgGUwKuvE/WuVohCPsrqoguc67N3tfs8U7M9QMlgQCJ7eaYz88CqHU5nOYrkjKBIM3DtSZH91tFmAAu55ajNjWjVFgLHf3GSG03IhxONqHDZzbN+tdnDYnAmVfAABs1xH6pMsuUgFyXoZpUVI7fH9Lomdby/m1mO2mLNSh0lqLV3ot7VGNwWTyOae+1wOuVs/wMe6TvBusyq2OFGhbZ0N0s5zkw+H3ywY7X2+LQ7sFpo1QQMJmrbgxBhh6DdhCMTaWhEjwdIc8jXAgDwdUa3bnsOyuoAwIeucWswBVMCWeaDYrT3G911VA3AO1CrH7cjYQnoEDzo6XVgSZJbmjJglQf1rm6sjjJIHjQ1iJCPsm3Bz9FW0zikKRmmFMQ37AOS7bpjNy3DAWgGt0zQliEOAUKm7oKOtEw72ro9EHNzIGiCz6FKtptJK5Yzlq3GbBAREU0rafhRpnzXXaS/+2oDpzqD7ag6DwCXMfTx+/jt4J9xxKcpYQwYMoBtchBzCpw9jF9esuHBldKfQ1cuA9dPRUMiMNiH/dfdhhcWyWWfL2n3Wxp+lGnDb/tew+bzYy1VTdMBA8BEFJ88jWjulf/B3BGmVCqZUEqdSR15YQPAarlHjxqI8coloJ3rLObR6jFb0TXM0w0vECgtp2Rii61yRo2WRSlcmJSODkHsaJUCVmZzDmuDyAzWTynLYKynERVtscwFF160GcCh5qwOXlZ7PCmBXIdaWlGUZv+Qg8pSOfnmoGPQPHu4uTeCzDM5WKYErHR8HryLTBQblvc2NWrOT4PhVtS7PBDNzhNtKe4Q+7TZ5dIEW6SAr5JCLHY0SlnO0rSdlrRBeCXT29fkQr3ud/HorifM9I8H8vGQLl/zzYKw4Xha0Sba4VxlsZCvE229CFPeHBBHfICQaUxunxoRtplkmgov0j1Felm9BhgCuN4mF3pMl7MbSvlTWMOD8AlL4cwtQVqHGxVu6am6ze1Cm/wRYV05yhIhByG10yNIz9VpJXXIgOZ5IES2cPCALDnYr82Wl+9N1+w9QHdNNAvChmO4LpvwtkmDONNCrtaH0yJgnyYDMSNrMxER0Xjz4mfdcsZvQnTzy75z3o+k65dj+BLw+PJ5+KXvJlRnPiS/O5kZwCN4vvs1DFnO3evFz44fR5L9IV3wOemGRAB9wOhxVHUfD7wxZ2pn2B3+9BMAypy/NmQm+NXM6wAbNsx7H5v7/sw5geMcA8BEFH98naiXOzXSAJZ/jppcxhSA19WIIl3ZYamjYolxEUeJeUYIpEwEqZRj6Lkxr3XeHimy4210oUKeo7VIs8/sSlnNYqDZJaW0a4Nu9a5WpK3Lh+/N1tDHvBKk8jSi/k3AWR7o+TMLNErlPMfzm1I0fMM+IEkq/6fP/HCgqC4TaY2t6HJaZKeYDh4ATOfXNQQvo80ABkIHE0WfD4LdrltWOn4184Qr29aVapQDvZ5GVLgaLQcj6Ocl1b/elmT8LlLZ2gqT0rHetlbY1xvmR5YHFKWlm0dfxV6p3LSxpKe3ySXPWRpm3l7N5yt6pKoVbaIdggAAPni77SjSZnmZ/K66fe9plPZFsR0CNANCmKEXl7xNbilQ8bcxRmnkZyKkl1gMjJAHHAn5iJ9xPvHY5ikmV3iRqkUE6CuGGAaIZJgvJ+TmA65GePk8F5mkTKweakSbJwdFanDWZO5e9Rajue9p5gD2jnXgZK+mWkYM1WVmjLDXxPDCXZfFDjeaexGiasj0E49tJiKimULO/B1sx+az8kuD7djs8+s/dkmTyZuwHNWrVmD46mwsnw8MA8CiNXjQ9xo2d/fplzPMAQzLIO0YjN6IBzPXYLjvLWzufh8blm/AfYuUN0fw274+QC5ZLWXUAoANj68EMIhxngNYCnzvHwXge00upf0WquT/bv5Y+lRV32wk40bTNSStWIMNfW/hyKKH8II2eD7Yjs1n5+kCvsY5kSn+MABMRHHGh65XW4F1zEyIjVz+NNMBDGei1ulD/Y5OrI5mKFfI8qpkyteJNiXAlCGVea3v8KEYrfCm56MIgHfYJ5Wj06QAphXXodapnwMYuXIJ71ABd01WYpvbDejmeY68nDBNFgeKlNLsRumNaOvzmZ9rJiWA1fk5JyhqopSe1AYkpdcgZeZqPqtmqxvmHg8mZbybDzIJdKIHZb4rlSCM6byANMfeATeaPWaBU/1HvT0+aS70NjkjTvNdm3utg+VpxXWohQ9dO1yh5x4G5N+qDrUAvE2tcJaXAK82QpmzM/izFh20cse2IPjQ1OHgORzXlCzA2OdTVUvBWlVxUO4FxmMq6JyUzsHxOJqM1QJCDjYxY9VmiknYDGBT8pzAIeYwJ63AoCNxpFVfnlkNwNvhXDfWM8ykrHd6iTr1QNq6fPi6Nc+L16Cw18Swwl2XA7+BcVCc+bUvhiYYBJX8jvq7WbeZxpHFfZX/Vp4q2koLAOeun2r8PcjE0jxd4NGqBHTyqg3A2cM4Iv99x8pVyOwewt0mZZ6Hju1H1ZXbJqZkccI8JCMRd6x6CPcNtmPz8dew36cEmhNx36qH1I/esfIhdZ7id46+hp/NfwgvrNKsa2meZh7jWCTivlX3AHL284ZP9+N5rMHjOIznsQbVNx9D1SDw+KqbsL97yHIdmfNmY//5dvys2w/9rIp+Xbayfi5mikcMABNRfPG0Sh0fQaU2pYypqDsarzU+D05nlqAosRVtw5AyP7ZJAYnTgFym2AevuxFCnb4ErBpYcqorQ9eORpxOBpA0qd8i7njbpEELGcMeqcPVUYIyeyfq3XapjLkcIHYWQ57/0YrxH09KKW6FXQosHQCK6krQ42rFEjnQ1MN6LdOQVJbQjlZUuEyyT9NLUJvhQPMBD3yZwW+bERLtQLdPKudpeE/fORmmBLRS7l0Owqjr15RtrlDmYH9TM4+v2cGrnXtcs37lWE4rseog0xzvuiw2zfddV26xrB3Zf5uPercbXeXlyPY1okJT9l4rrbgcgHbuvcCcvkXpbrWEZyghO1UNpTyl7cUwD6qmczFtfTmcI240ezgYKi4pv6VZkNO+FAIGTRfTlhFVzmerY08JGpg+F5mekwgxX7xz7nOdAAAgAElEQVQdSyJ8tIpmmgKjkG2mmITNALbiKEFRjxteXw47aCNhXwphyAcUh8oAbpSevWPfSGCue8hB/AxpvmcAQGIOijPdqG+yX5PTelhfE+0QrJ6BhaWBgS+hrssA9FNaBD+3WF37lgiQ/o1lZJiT2Epwye9ohG4zjSOr+ypNkeCpZGgq8feg8WZWrlg2ZxI2vzQPLyyVsnCrjtlQvQKBjFwzlwwZyrLkBfegekXihDY1vGT8KDMv8KdJBjDFPwaAiSi+mJQiFjvcqO/OZJZCJOw5KMpF0DyTacV1SIMPXTs8QLoDab2A9KCu9KD44O32IW29A0AnAKCnyQ1fZjmK0SiVDfR0wysshROk54OIfBTn2uFT6ivKnUx2uYy5EiBWO2a0HVJB7Gq2YltSOcoSW+WsHjvaXK0IZBTKwWb5b29TYC4637AP9gz26E4PdixxlqCoGDDP6nag1gGIHd2Wa9BxSGWjtZ32gaxgfeekWlY5gmun/t8rDhTVlaNrhxv1vTF0KioZfiGzWPSDHXQduvL5g3BBInsOysqBercLbRF3fgY67cscgLfJ5CMTXWrZpAS0sK4czuFurC4vB1514zSkTuEi8zXQtCaXN7Y6/u122GGYw9rnwbuiHas153TI+bA9jUGZ+hGxL4UgduuDfp5ueGHHhN8yYm0zhRRbBrC8rDw4RhVhwOraptzH89VXlKorxaYjpOQqEsklKAIgage4CtapFmKH27SihZBbjqImFyqaYs2AjU/hron2JDvEbg/E3MB929vjAZIz5b/DXJeV6XOirkwgBZ918zPL/6aKbk7iWMTaZiIiogl29jCqjh9HUG6qMVBqWcrZhsctM4DHtaUhSFm/Snlk7f8DkL/jBSTN8QOwoRvJE5OZHJNAAD3TngZpjub3sXz5hsB3OHsYVb6bUD1t2kxjwQAwEREB0M53lYnTvd2a1104cHERziaXoNYBADkoXudGE6Tgi9gBAD50HfAAokcqSzrVg9imFTuyi6UR4dKzrAfN7m6sLq+TOqlClbGdCL5OtPUCYq8LFXIgr3ZytkxGclDHaVcyeeRSwD5D2e9IeJQM1xI417Wivs2DbLkT0zfsg5AUPPdzUPBXs46Qj/lKlkx6CcoyW1HvcpkGbYLKFhpp5yuUBTL/zEaKa0sz1kWQlabMI2qHIHrQ7HJHUG5MyrAKRRzxaTqNJ4BlZ22MmcM0vXi6pWwsy+CMA851dtQf6ITokIN1bdL5Jh27cvBgnfWx7O2RBlhEHUi158CZ3opm9foh3dutM+3HT8xtJh1pXnnr971NLrT1AoAdTs2IPfPljANxIpvv/FqjBG2FdeUQ4IO03+SRlo0ueAEI66Q/1XuxMk8tfEB5HWrt0oCj4Oz34HtouMFbacV1UhDYda1kfYa/Jgq5+Uh7U56n2QH5WdgOZ7l8wQl3XVae18qjD6SmOfMhuFvR5XTIz/2taBMdKJroKgdjaDMREdGEMwR3rUpAm5viDOAQho7tR9XHl6U5fzPzMHT0NRyZn4cX0C7NXTxu8xP7cXzUhruXAjgm/d194TKSFiUqL0CdexletYS2RBtAD8xffN8iQC1EtWgNHv9oPzZ3D5kG2ym+MABMRHTNU+aGUkbOe9Bs+ETyGhfKlQySRo+ug0pItENsbERbeglqtzngbXKh4k12FFrTZFZ7GlHRKM0/qjwCin3dEJPz9Z01SkZguiPmjry04jrYO9yocEsZVmUOOUDnco1hrjQaC7GvG2J6JsQdLrlMpHzu2XNQtr5RN/+iaee8NlM0vQS1ynGVWwLnDjcqduSjbJsD4pAdq52G0rHazmPNnNEA0BzimJBKLGoDsA7UrupEvVsqCV2rKSlqWbYwmgxaw5xqaSV18kAUa4HAsxREVrNkfZ1yNnAM85Jqm2QSUPdalKhWhcjkomuRVEbdSBlIIeSWo2jYpT+/DeejGDQVBvQl200GWEQyJ2Facbl0/ZCbN6nlmGNsMwHqs1yyA2lvulGPcpRpB7M4AoP4sovNlsuHs1teTv29WbIxEvpzxG6xz3zo2uEDMhEY5FVXp7sHStV4gpc7Lcol2DXVL2qDBg3qy7SnFdehNqMRFRENfJoZQl0TBThQVJ4vPasAMJ9/MsR1WR580+Z2BU0LEfYaac9BWckgKtRlJ/OaFmObiYiIJsrocVQdn40Ny9eMYSXTIQNYa0QtAZ284B68kBnIiFGznJU5jwflQDDGWAJ6cAjdCfOwQfn7yhCOjNrw4FIAZyNfzdCxwzgy7x5Um3RXJK/YgBcG27H5qHcaZS9TLBgAJqK4N7a5ka5xmoBurabzaomg7QRxoMjZiXqXXBqtTgnsaueVCnRaSXNgScs3s5SjNV8n6huBorpypOmybJSMBCUwr92/HjT3SgGBQEdhCYp6XKh3ARDy4TTpz9HOq1hbF/iAdO5I27nWygVOB75hwOnMQbbdLs2pC0i/ISB31sulIUVAytbSBHF7PCEyRe3I3lYO7HBLASQhH2XyooF5gI3BY/2ADbHDjYodPsP6PeiBJtCsbi4HZXUOiD474IuwVHUouqBvpNm+yvmCoONc304pOCZ2uFHh8oXYh5I0Zz7a3MZO5eCM/WjmAB43huC4vDF9+WgO7ph+/i97dx8cR33n+/5j1iQ8OTx4eiTjBFJmd0EjyUK5RXKoPT5WRhJKQqj4sLfsSF5tUhvCYcte4VNiS3uvUXSF7Kp1Bd2yFXSTAyR3E11LSPfEl72EXYweIh3fU9zEVRGypBHclH2CwbY0PSYQngzxKd8/unumu6dnNBo9WfL79Q9oZrr7N909v2739/f9/gKmsgiSeS5d7zygQYx5zMOby/qtj+U732Hw+uczdzBkZfttsH/vO+3retZ53iUprOpvl+tV1WjPzqgMRWUcbkoG/7Mud4UEFecjrQqGUWMH3aLa81i2JVPXM2c56/Lv/c151u+6zifl2NesfAvQZ826r+Y5v+tc+v2FWj9z0gIALjPnPn5/ATNgbb5y0lZJ46VWkF4COhMnEDxPv3nvfW3bWKrR8eeswPNaSTfeK732nB7+SNK1pdqgSf1wdFzWE5qQvnSL0oLDGzZtU6tkBabjCeu1G0tT8/9urNLT828ultma6De+c2m5GwEgPz//6aG8lrt06ZJuvumGvLd76tQpbdq0Ke/lVyv2y8rEcVsa7OeVzSpRnSHIGZClm/45bylRsk+wXOiLMFecMysTx21psJ8xV5wzKxPHbemwr1cmjhuAbObbR/z+nfe1Zs2avJYlAxgAAABZBZemtOWUZUIpUQAAAAAAAGCpXLXcDQAAAAAAAAAAAAAALAwCwAAAAAAAAAAAAACwShAABgAAAAAAAAAAAIBVggAwAAAAAAAAAAAAAKwSBIABAAAAAAAAAAAAYJUgAAwAAAAAAAAAAAAAqwQBYAAAAAAAAAAAAABYJQgAAwAAAAAAAAAAAMAqQQAYAAAAAAAAAAAAAFYJAsAAAAAAAAAAAAAAsEoQAAYAAAAAAAAAAACAVYIAMAAAAAAAAAAAAACsEmui3/jOpeVuBID8/Pynh/Ja7tKlS7r5phvy3u6pU6fyXhYAAAAAAAAAAOBKsGnTpryX/f0772vNmjV5Lbs2760CuKJ99rOfXe4mXHbeeust9ssKxHFbGuxnAJcD+iLMFefMysRxWxrsZ8wV58zKxHFbOuzrlYnjBiCbt956a9m2TQloAAAAAAAAAAAAAFglCAADAAAAAAAAAAAAwCqxZCWgqyvu1b+/v1JXX71WvzkxpR/+pHepNg0AAAAAAAAAAAAAV4RFzQCO3LlJ2+6P6rprr1HRn2/Sn//p7dr0+c/qfygrkiR9ecsX9eUtX1yw7ZVvvku9P/6+fvKDJ3L6fHXFvXqh56mMn/923TYd+dlBVVfc63n9+080qvfH31f55rs8rz+2+1uB63La9djub6Vt/8jPDurbddtyai8AAAAAAAAAAAAAZLNoGcBlJXdqzyN/pc9tLNRXon+h6669RmvWrJEkGaFb1N72mIru3KSLF/+7wqFb1Pt/vTSv7T22+1uqrrhXPUde0j91Py/JCrA2/Iedeu23/01//712z+fLN9+lh+of1Gu//W9af/ON6v3x9/WPh36s0C0366H6B/Vs15GM2/r777Xr+0806h8e/Y7+8dCPNXriNf3kB0/o+uuu1T8e+nHObS4r+XO98+4fku0FAAAAAAAAAAAAgPlYtADwtq9F9bmNhVqzZo3+7I7bPe/dcP11urvUyp799Kek++/7dzo+OqFTv3trztsp33yX/uHR7+iDDz9Szf/4SPL1x3Z/S1+t2qLfnJgKDP7+w6Pf0ekz08n3vv9Eo574n3br5/93f+B2nGDyddde43n9yScey/h30LadbX1hc1Hy78Hnn03+/4cfXVDHfzqs/uFXZvvqWGFe+vkPJUlf+cu/XeaWAAAAAAAAAAAAYLVatADwP/X8s2777AZ9/rZbs37ugw8/0n/+55fzCv66g7Kh9Td7AqmS9K8Dx/TkUz8NXGbkvx73vOdk9X616t8Gbqt/+JXAoOxju7+le8pLkpnAfj/5wRO6/XPWPvhq1RZt/Yt7dObsTGBwuLriXj1U/2BuXx4AAAAAAAAAAAAAfBYlAGysv1l/fsftuvrq1OrPnIvrf+9+Xqd+95a+81f/XvfeU6arrrpKf3LVVbrllpt0++du1Rtvnp3TdoKCsj/5wRPauCHsKQXtVvuXX5WZeFtfrdqir1Zt8bz3mxNTerbrSMYgrJNVHMSfCfzGm2f1N3/3Pf3N330vmXF8fHRCTz71U33/ica5fE0AAAAAAAAAAAAAyMmiBIAP/C//MZn1KkkXLnysI78Y0C+P/VqS9I8Hf6wfHPif9fnbbtU113xa9du/rr98oGrepY+deXj/4YmDnmzcn/zgCZ3//bv6+++162/+7nt6bPe3kvP1Op/7yQ+emHX9Tz7107SM4tkygN0id96h3h9/XzPm2/r4k0/y+IZYaZyyz5leoxw0AAAAAAAAAAAAFtKilYB2++PF/6533nkv+feHH13QO+/+QVL28tC58mfYuj22+1syQreo5+f/Out6ZuKJjO9ly/6V0jOApVQW8N99t06h9Tfrgw8/0o7v/H1yDmB/yWrJ2jcAAAAAAAAAAAAAkI9FCQCf/N1b+sy6G3TjZ27QVVddpeuvu0abi/9cw//1uCTp3/6bL+jzt22UJF26dEkXPv5EZ6dNvff+B3Pelnse4KCyzpJV2jlbZnH55rt0/XXXZt1OUPavZAWGI3feob/5u+8FLveTHzyhU797S9dfd61ir5/0tIk5gFc/d4avk/lL1i8AAAAAAAAAAAAWy6IEgPe3Py1Jam97THeX3qWrrrpKX6/Zqj/ddJt+/867Ko38uW78zA2SpD+894H+1//tZ/p//t/fzHk77uCvJP3rwLFkkPbbddtU++BXdCL227RAq+P+6n+XzNxNnP+9Bv/LrxS65ebAzzrrW7s2eJcFZfP+5sRUcg7g0sifzfn7AQAAAAAAAAAAAMBcLFoJ6Ae+UqE/3XRb8u8/+ZOrVHzXHWmf+8y66/WNr1boN2OxOZc/7h9+JS2z1wkKf+rqteo58pL+qfv5jMu/2P9ftM8OVktWtm7s9ZPa8Z2/l2QFfR3/1P182roe2/0tbf2Le/Thhx8Flp8GAAAAAAAAAAAAgKW0aAHgDQUhferqq2f93Jo1a3Tjjet0y8035j3/rT87150JnKvqint1042fUeLtd3P6bMN/2ClJ6vhPh9U//Ip+8oMnNPj8s4GlnYMwB/CVh9LPC8nUsUMdGvJM220o2tCgLcZytWklsfbfueo2bY9Yr0z1NqtvIuizQfs1pr7mMZW21apIMfU192gqw5aKalPbgCUx3KFe1WpXhSHrWAwo9GitipKfiKmveUAbMp7P6ccv6P2hzNPaByupVcsODtaCMEfU2TGmzbn0SeaIOrulHY9uVSjg7aneZg0VVMkYHJCy/Z5y3GZiuEOdg+YsjYpoe5v7nPS3p8E+f6XZz9fM7yeGO9Q5U5XjeWf1NWale9uZ+ded3u6g9efWr0mZ+7a5faeAZQeVw7XMt09jPWodL8u+TXNEnR1nFQ06rrEetfbfql0ZzkEsgliPWntiqb8D+l/vb9X/m/T38+nXav91fS7XY8+yoaoM54apY4d6pLq533t5r4ML0+YrTuC1w92PzS7n/ipjH5H/OQAAAIDL06snj+j49Q/qu4XOK6aOvn5Mp290vyZNn35Rz+qLevw2w/Pavj/eoafuuMu70neOa9+ZD/X14q26e8Fa+pqemZzRPfY6Xz15RM9mC6tcE7HaNT2i3R8UpLcxbd0nddvG+1Vz00K01bsPp0+/qH3vfZzx04Xrttj71Vru+LVbPPv51ZNH9Iurva8tVBtfuJhqw0P6daqdaz+nx++8R9Yp4No/Oq59Z97UtLMaz+fs43LR+xqW1qIFgJ/+6X/Wuhuu1733lOn//OeXtenzn1XV1n8jSXrr7IyeeqZb367bpquvXquDP+zSW2dn5rR+d9D34sWLs2b7uo1N/H/a+hf3JMs/O95486zOnJ3RCz1PJctKv/HmWfUPv6LHdn8rOb/whx9dSAZ+Hc4cwN9/ojEZ2H3jzbM6//t39YXNRbp48aInuMwcwMD88WAwX4a21FWps6NHU66HhOn70woypP50ggzOe82yHkq3abs0ayALQQxtqZZae2OpB7CxMU2FyhTN+z7O0JZH27RloZqIuTO2aleD1NnRrKEFGZwS0fY2Q33NHTqWaV3GVu2oHFNn94iKsvwGQxUNaqnIsin7Qb9/E1O9zRovbVOp//OmKTPL+ZoYHtBUSZW2G5ICA6s9anUFfEIZA7xWAKyvuUN94dn6/piGBk0V1Wb70GyBksxB8JT0wRihiioVNQ/oWDTiPU6xHrX2mBnPBSvYZ2h7rdQ3yzH09hGmjvXHVFRdm7Wl1vnRod5hU0U5BNCxmGLq65G2t7XZ55f1u2hVKgicPB/aGlQkOzB6aCQZgEsM9+hEWYNa7GOZGO5QZ0eH5BoU0KdatbQ515UetfY0qy+H+6ap3mb1TVdpV9tWhexzvLPX8AYJkwFsQ9G5fne7DwhV+t/Kv81Xnpj67AE/Gu5Qq29Qz1Rzc+qPLIO7rP6qR32l+e5jQ0VlmvW6AwAAgJXj7vWf0y/OHNEzcgK+hmrujOiZyRd19BorIPrqySN6VhE9dUemf1t6g4mOZyePuP5ar4fmFRC+Sw+sO6l9rx/X43feo7vveFBPydTRk79T2R12sPEdOzjpBH8lqXCrHjp5RPtOr1/gAOocuduUyTu/03F9Tg+52zk9YgW6LxzT7kn7tbULF2AtW/+gHvjkRTlpi4Xrtujxz/xO+2akVNC9wLeUdSwLT7+ofX9cl2zH9OkX9ezF9SrTm3r29OeXd39fwRYtACxJ7Z2pLNxv123TxYsXtXbtWn300QUdH53U8dHJLEtnF1SSOVdBpaP97/s9+dRPc8oqziX7N9NnZmsXAMybOaLOjgE5SUN9zR2KNjS4Htrlms2RHhxJTI5JZbU8AAzi2+9Sh1oHZWdWVSna36G+WJu2R1LBnPntx6BAmxWILJoMyADNmOGFvBlbtattqxXE6OhRKJeMrLTzxDZhny+SprpH9KnCAb0UmLEvSQPqdA/ccLiDAFkyPhNxUyosS8vySkwb2hAQ6ZkaGlAiofRthqq061FDQ4OmkkHeklq1tLWlthWYfWbq2KHm7BnsPc1q9b/mOocTwwOaClVpV8aAhtXPTZVUKWpKU0OprMOp5mYV1c4STE0KGkwTUWlJj4YmTW1xZ0n3xFRU25Y5+DtTlQx8tahHra5gn9/UeEyhsirrvdiAta+C9onk2S+higbtyvGbYTFFtL0t4v27NqLWnjFN7YioKDmAoSE1QCtapVDHmKbMrdpipB/LUEWtomMdOuGcd5FatXg2UavtJc3qG49JkeyZ4kMThqINzrlnaEt1REPJtrnO14Zb1dkxlvvXTmahN2jDoQ6dSNstebb5SuOv9uAZ1JNpYMsslUFm6VM9/NnrkvzXHQZoAgAArGA33aPHL3yo3e8e17Q+1L7z55NvjZ05ohfOOH/FtHsyprRA7sWTOjp9l2rufFA1zmuLkgEsFd52vx46eUQvTN+TzE4uUFz7nEDz2s/p8eIH0wKjd98R0fHJmF5VgY5PxpTpXzXO901l5M6dJzP5/BHtPr9eD6zLZUlTR2fiuqfgfhVOj2j3u9fp8QLp2fPSQ8UP2vvRySy+HLJrTY19JD1QYAW1rSznG+xz4zU9M3lMz0x7s8ixNBY1AOz24tERvfHmWa39kz/R6TPnlmqzAFYlU+fmWt4WFicoJSWDQEWGNFtB2Gy8ZSpTgSpKCru49ntQ6ctkEKlWGkpEcijNrYwBn9SDV3fmqS+bOy0YOL+vByk46C7rIXpbpvKpqQfync0DKqqskn9wRXCp1K360o70FmQqq5r2ubiZCiD6WzVjKlTgX97UuYSpqQ47q8wOSBfV1koTmdubGO6QWZnKUpQUEDxwZQDb52Uygz1b2eKMg1Wc4FmmAQ32cXL9BkI72tSyw1cCOrCtNndgxM6s7XRl8ReVRtTXM6Cpilo7e9PeXlp3aJ0DJ8oa1LLD9SUitWoxRtTZ3JP+3WM96pswFI3aJeT7rcDydmUJ6vszBBnwcXkzTZkytNl9XhsRbQ4NpAK8i7bts0rIUMi9iUiZitSj8ZhUFLGrCEiSOTK3dRtbtatNkkwdW7AGX2lSmb9bNKLO5kz9Y7CcA7POfYFnUFLMuk7VtqnFOY5Zp6MAAADAilW4VU/ZgbqnPAE7b9llt1dPvqjjknTxY73w7nEVfBLXs74yx54M4FwyYHNw9x1WMDSwrPLFN7Vv8s2A7d2l7xZb/393cVAbFq4EdDIz2VcC+oULTgDdJ1mqOqbj135Rj99k6ujr7+uBG6/Ts2fiumfj/cl9/+rJ9NLcy2Y6phfW3qGnnAzxC+6BAXfpu8XrdfT1I9r9wcIcd+RuyQLA5vnf65fHfr1UmwOw6hnaQOWIeXBKUFpBgFkDwMlASCwZrJmyS0BHKwPKtsZ61Dq+KA1fnZwgUo+pUKUr62tHm11y280KYGWdDxbLwCqH7hHrsbL67Ky9ZNBXVgBuy6Nt2uIunW6OqHPQKa8uqaRWu/yVdRaAOWPKKA3qQE0lppX+nmnKtIOGpmsu3aneZjtQagWGvOs2NTUjT/ayFahUYADSyir0NccOeo271p9qU0wnVKYdvqZO9VpB+MCAyMyAOptjSuQ6OCVSawc6sgtV1Cp6qEfHTLvss3u5WI9VTvdR3/bcweVB18AZn77mZlfQxgr4Sk7Z3x4NFdqB5YB/N6bal8oQtOZCjsjsbVanZ3BJjAy+ZWMf1xI7kBcUhJ1NbEBDCUPR4gwLmSMamtAsZdHtCgChsrQS8MsixzZfWZzscVPHDg3IqK3VeLPdD7t4SkA7g8EeDerMMmQMu7Kxk5UsfANMEsM93uAvc4kDAACsfNMj2m1n/M4t6/U1Hb9wg25b977GFNHjV5/UC5+6X08V228veAawq8S0Xf5YkivI6wvgTo9o9wfByxW+c1z7zq/T40sdlAwKgCfbKb36wXlN22WeC9dt0UOf/Fov6GO94MnClnThiHafl+ZfUnt+Zj55X1KBPefvepWtPe8r+S1J6/XAtSe1+/X3mBN4CS1ZABgAFoxpypSVjTZkv8TD6rmwy59Kmmru0fa2Ws975xLSBv8iWQIhiWGnlONsc2peudIzeX1BsYgUCltBMyM8yw22acqUlMihLOa5oQ51FtRqV9qcr1YgUnUNzBW86EwN+fqq9ExQFyc46hpEkZgxJTkBVyt46c28d0sPJnoHaFhB3qmJDCWDJVd2uVM2fEyJwirfYBFTiemIopWmhpLnYkzjE06paENbdjRoS9SXxRuTlMhUptr/glV+tjXgXJ8aGpBR3eYNNMR61DcRUVFJcDQ0MRFTyJ+RvCAMbXm0Ifgtf1lbKXUc23IrNT3V26zW8VrtKrCCfKGQJJmaGjO03R1YDtivnmujE4zeYSgk1+ASAjfLaqq3wwre1uV5E2OOqLPHCiAHT90QU1/HgBKhKq2cohwrsc1LZ6rXHkgUiSjkH3gkyan6scE353im64Y3YCxfBRdn4ImpXifjONZjVXpwB39dgwoBAACwQtmZv6+ePKJf2C95ShjbxlyBPWuO2Pc0s/Y63aP3rdduu0OadAKTKf6AYNn6fLNXDavE9DvH7blpbb6sWk/J6msKgpe76R59/fwRPTN916Jn0o6dP6Ld5z+tsmtm/6yVOfyannn9PT1wm6FC3a/HT7+oZ/VFKzDvlIV2gthnPpxHy1yB8fNH7JLYx7TP/u/u96xP7Xv90yrUDYFrKLjti3rg9WM6fuOD3qxxdzvtl2qCVoBFQwAYwMrjLmMs2Q+emtVHEDgHdtnUsog0U6aWqKnOQyPaPJebnKxlWRHEk8nrzvhMfsKeI7Qkoqn+ESUimR+iJibHlCiJqGgiNSdjJhuiVVLHgKYqynzvGNpSbah1KKYtpfP4YrCklQq2M64kKVSlaOGAzpXm1z+FwoY0ZiqRnJvTtRJfJmtQCWjrNTcjVWI5+5fylA0vKnVtd6xHrYOyS4zHdK7ZPhdjY5oKlSnqzna2S1z3NTdb7S1V7hnAkhRxz5HtNM0JZHo/OjVuWnOaDzXLXYAgMdyhvomASgWe7+oMimlWUWWVTLkysQOEKhsUnenIXKI944JV2vVom1pymevY83lpqndA0YZaqbtH1nGsDfhshr7DDhKGQqZ6hyOzlgnHUnDOO3e5/rlJBvQyZbU7fZP/3Eibb9wq5b4QZ4V/wFPm310GmdoMSa79m+eO8R6P9IF7aX1xbEAnZEgJUwmZrn4x5hpsZA8WCtAEUMYAACAASURBVLy/AYArQIbrKv9WXi7+qXnyv9fCQuB4rHRWINKRqQS0ocdvskobW+7Sd9fPaPcHBQHlfr3lkBfUrBnAwaw5gV/U0WvmX/LZzx1AdwLe06df1NgfZ1sy9R0WP1PWUM2dWyT7uDzwiRVofki/tgLOn/md9s1ID925Ti9MBj24sdZRdu2n9cIHI3pm8rxvXuXzqVLcmk/gH/kgAAxg5YvUantJs/pyyIi84pkxnSur1fbwgIZmZAXTH7UCC+ckKTamKZma6uhRqM0bNLQeClapJZpcmY4d6tG5QkmLUKZ2dXHNVxrwbnKO0B2Gjh3qyBygMUfUOyhFG2pVVOCddzRYRKUlPRoavjX9wX6kTEU9AzqWNt8r5sydIW8/AC+yErolSUU7anWuuUPHZvuHrnlWicIy74Nz41aFdFZD3TGpcnn+oRyqaNB2c0SdzfaDrVCZa17jiKKVA+rsHVF0Oqai6lr7dSNV4tqTATw2hwxgez11VerssPefmTnTrGiHlYWberiQmmN3e0lHMgvbzykbnXxYZ46oczCi7Q23aqhb2vGooSFXkCQRi0kRXxZtnrJWr/DNz219vzzmT3U9lCyqblA03qG+WAMDppaTc0yCgpz2bz6Iu0KEEwjMdA45weHAAKx/IJ0jYwWK3KfdCJ66IDdZ2wyrLLZq1VI7ZvcNGeaetzmVctznSCKg5Hx6BrDzP9Z0IdFaQ339ZWnnqnUOuvrNjgEZtW0EfwFceTJdV7FMAqbmwTLieFzRMs1zK8mfprAY20vPAM7ECljv+4OpmpsW9t8hnjmAs7Q1yW7n9OmTGtPHye9QuG6LHpI0/Z5VFtriDqyuX9B2569A3y12XRMDMoCxtAgAA8CVxNiq7RVKmy+yaEebimTq2KGYVBJR0YSUmmtOssqNmiqqjkgakSSN93bILGvQDvVYGYaxMU2FblVUmFUyAGaoqESacs0RuqWuSic6BjRV4R81bupY90AqCFhRq+ghX2ZkAOvYxtSXNseofXxjPRkDY5grq2xp+gPwiLY3mOrs6JCCgsD2+RAKGQqV2fO7xu3osWHISAxoKlQ1z4BI9kCBW6iyQbuKTZkyVGrYQZmxMu1qa7PnAI54vl+ookpFzT0aClWlSoJm3cAcMoAl66Fag9TZ0ayhnDMqrODvueo27YpIU70BH0mWPm5Tyw4rE85a9KwSIfegCWsgxXgspvEee47htKBbanvLNidmQGDdylQe0+aGBqm7Q+dkB/SXoj3IwC5vnClr1zBkyDf3tRnTiYShzfZJaWW1Z8meiPWoc9Cc+/QYxq0KJdzzlsseGGb1BYsq3zZfSYytVuWDmDOe3nqgmjBNhQz3AQouAS3NMQPYNKXKKhXJN2DHydIuqVWLfR/R2mMq2tBGNg8AAMAqMn36Re177+O018dyLeUcNM9tUDB0oeSZASxJKtyqxz0v3KCCBc4G9phlDuDC2+53ZV7bb5/OMDfzvEtAz1dqvt+y9b7973xkueZaBgFgACuQaSphGKkH6rEe+0EoTwznIzUPYZnOTYy5Xm9W/4e36PeFzlyWW7WjskO9sh4iJoal5BxxiZiVvRpepi9xuTJjOpEwlRiKaUtUrgCYqWOHBlTqDhAZ1v4dcj/8d4J3JbWu+UudzEjKn18WXNlPgcfCFcQ8UdmgXRWySiSrSrva2uxzoUcqTt3IhwoMKTZgBRyrtyrkelif6zN2c8a0M/TnOPLaNU1kqKJBLRVpLyclM2gTAxqKbQ3+/rEe9Y1LUxMxSbHgDGD1qHU6qOyrMx+ooVAipr7mjhzKhlkZyNkk4qbkz7j2vJ76tkXRKg11DGhzQ5u2p23X9ft0f/dIrXbFO9TZPLA0Qa2MJXPzzBzG4oiNaUoRbc9YvSGiaKWhTtd0AFNDVsB4i11efWrMypLN9BuYGreCc3M+54ytipYMqG8opi07InKu7aHKhkUvY5l3m694pqa6OzRUmGFAgc+cMoDTBg2arutWrX3dckrZRxQi+AsAALDqeIO7mUpAZ7DYGcAXPtS0rsv8/h9GtPuMNRFx4TrXvXKG5TzzHV8T0XcXoo1zUbjVF/R1zc279nN66NoMy910jx6Xqel5bfy8Tl9cr3sKJSs6f15jH32sghsNSb+zP3OXvltsBXiPe5Zdr4eS54Spo6/HpPUP2sH3VBsf+sOL2j054/oslgIBYAArj2FqqLmDOUQWjDNXp5Gc07PP94nCL/1HNUSUzPpwZ5CEwoYSPT0aKqlVy6MRTfU2q3VQKqqtTdvSlcqat7dK0eketXZIClXZ7wTM4ylvhp5TErOots0bXJLscmOG+pqb1cp8icsmVQazLT1IUmh4gvu72iI6dqhDrTO1anHPxRsb0FBhlVrMHrV2xCQZCoU61JowFK2MaKh/RAlDMkMB5bz9PPOQGYpG5945JibHlAiVZd+Wu4xt21aFzBF1dgSdizH19Vuvbd/hnNPOHMKugEJQVvCgKSd4vd2zXau06XxKxZozphVk976aVu1AUiow1j2iInc7XX1iS0A7QhUNaim290tAxudUT7NaszUydOvcvxhWgOA5pp2BAqGKBm2faU4NlAg4d4ICec4gAEnSRI9a0+aonj2DvmhHg6KHOtRqN29JyzHn2eYrmzXYJdTbPGtFECmPOYADtrVF1nWv055bvaXCsPrC5mbKdwMAAKwS0+8d0761n9Pjt81jJYuYAWxlJ9+gsmve1L7XpcfvdGfMOoFKpTJQfcs9sC6ufa8f95Qm9s53vLysdkoPbHxQT92Uei2jCzHte30epZanZzS29jo94Pz9xxkdv7heXy+U9M5c2v1rHb92ix4PaEThbffrqekR7T75WsB5gcVCABjACsQcIgsmMHhhaEPI/XA6ou1Re/7Pklq1tDkBS6ekrDfwZc3/Zy1PZqpkBZSkaN1WbTG2qmi4Q52DGeZAdQlV/pU2j/0fdqZNtsCuXQJy2Mo0DNnZpdamXYHAUJXccUBn/khrW1UEjufBO+elt9Ry+kCI1AP0FFPH+qXtj0YkRdTS5pRdTh37InWos8OUSuw5disa1JKpQfnMQ+aU9HR/r9os5539+aLatlTZZ3u7U73N6mw+q+1ttTImx1Klbt39TZsrk92ZK7i5WYmS+xWdflFDCfk+F/z9EsMdam02s2S/2t8lWqWhDn/ALKLtO3zrN2M6kYgoaiU/usoq20Ho3mZ1No9ZwWszx7KnrsC/P0AzlzmAF4xngEByY94+KVN5Ysyfe87wLDLPpRvUh3iF5jEPby7rtz6W73yHweufz9zBsPafepvV2mO/4LvmS9bAgl2zrCeU7doieftxd/8ZqVVLm1WhoS/MvR8AAMDKZWrmYpayznnylpNer4fmtW5TYx/dkMwknT79ovb5ylIHKVxXqns+kh7YuFU1N0k10yPandNyAWWXc5TKKvZ95yzZ0VbgPL0EdOGnbtD0efccwP52RvKeZ/fVD97XAwURjb1+RC9clArXSlr3RenkEe2+YLWpUK/pmcmYrJqR63XPTUoLDhfedr9VSnt6RLvPp7Kvk+1Ky3LGYlsT/cZ3Li13IwDk5+c/PZTXcpcuXdLNN92Q93ZPnTqlz372s3kvv1q99dZb7JcViOO2NNjPuFwlB0OU1GpXwYB6VWtlsMV61NqjtOxDK0OuigDpCkVfhLninFmZOG5Lg/2MueKcWZk4bkuHfb0ycdwAZPPWW29p06ZNeS//+3fe15o1a/JalgxgAAAAXLG8mYeRVIZchkzNWTPkAAAAAAAAgGV21XI3AAAAAAAAAAAAAACwMAgAAwAAAAAAAAAAAMAqQQAYAAAAAAAAAAAAAFYJAsAAAAAAAAAAAAAAsEoQAAYAAAAAAAAAAACAVYIAMAAAAAAAAAAAAACsEgSAAQAAAAAAAAAAAGCVIAAMAAAAAAAAAAAAAKsEAWAAAAAAAAAAAAAAWCUIAAMAAAAAAAAAAADAKkEAGAAAAAAAAAAAAABWCQLAAAAAAAAAAAAAALBKrIl+4zuXlrsRAPLz858eymu5S5cu6eabbsh7u6dOncp7WQAAAAAAAAAAgCvBpk2b8l729++8rzVr1uS17Nq8twrgijafTmu1OnXqFPtlBeK4LQ32M4DLAX0R5opzZmXiuC0N9jPminNmZeK4LR329crEcQOQzXIm01ECGgAAAAAAAAAAAABWCQLAAAAAAAAAAAAAALBKEAAGAAAAAAAAAAAAgFWCADAAAAAAAAAAAAAArBIEgAEAAAAAAAAAAABglSAADAAAAAAAAAAAAACrBAFgAAAAAAAAAAAAAFglCAADAAAAAAAAAAAAwCpBABgAAAAAAAAAAAAAVgkCwAAAAAAAAAAAAACwShAABgAAAAAAAAAAAIBVggAwAAAAAAAAAAAAAKwSBIABAACwZMzBdh0cjC93MwAAAAAAAIBVa+1yNwAA8jbRpb1dE8k/i+sPqK5kGduzYsQ1/GS7zn4ltb8mDzep+0TQZ8OqbmxURdj92oS6m0ZVdqBexZpQd1OXJjNsiWPiNXm4SWNl1j7JvM8l475G7akMB7/pYg6267DqAz9rDrbr4HSN9u/0H4D044/lYw626+DLQcFQ728v27FOEx/SwfajMp2/N9d7zoPM23TxLZOp7Tm3ad6s87Z/w+zt8rL6qPgcflPu383k4Sb1F+a2rGcdLyug7wxq21Hd6nxuokt7x8qzf7/4kA62n1H1gXoVp62uS3tf2qg9j0Vl5NxaLAvf/UvQ7837Oy1RneeY27+H5I88/Vrtv8bM5XrsWdaoyXBOxTX8ZJf017Od5+ky9R3zaTPk60Oy359Jqf3rvjfJum76lzSec9b+HWe+/7L5r9GSjM0l0okJz2t+Qb+HycNN6tZcr4ur0ex9ov83kXavPVu/7D9uGfvGoOZ5l83Yt+VyHxDI/W+zzNudU5sBAFhIZwb08Hsb9PRdqSvVuVPPq+WTP/O8prdfUcsZ6ZHSe7XB/dobH+gb5VX6gmelM/qX8V/qjVu+qb/duBCNtNb3/MW5LbXhxi+rdVOBJOs7/Uj3Jv+WZH33eMK70LWl3u89z7ZuuPHLekSvqOXdC9YLa29Xa3IfTuqHo7/V7bdv09f0ilreeEPnnNV4Pif95rXn9KM/el/DykcAGMDKNNGlvV1S3YED6Q/BMYuwKv66RgfbuzTpelCQ/jDCCk6k/nQeSjjvNcl6KH1AdZL1kOFn0k4eLOSkeOcBe1/a7AdPqQdS/odZkjbXq05dwQ9qfQ+NjMp6VT/Zru6J4IdMk11N2ut+IYeAHxZHesDf99sL4n9Q6VlhjfYcOJD1d5h1kMFEl/aOeV/KNdhrDrarv6DRPueyBSDatfdl/2v+IJerPV1xVTce0P7k5nMN7Frr7G5qV3fBbMGkCfW/HFdxfdYoSPBDVpsVtAurrl7q/tmQirP1hxOjmjTKVR2WpLiGX5pQ8VfqszVQCke18752HR6Mq3hJAu9YeBPq9ty/WOfyXlcQJ3keHWhUsewgz5NDyQf35mCXXi1v1H77HDAH23WwvV1yDSboVr32H7DP5Yku7e1qUncOAdXJw03qPlejPQeiMuzr0MHDYe/1Idn/hFU91+9u9wnGff638m8zbCU1qn6pXQcHG7Wn0ro/U3xI3eMlqnOfKy/HPfd8xTvrNdbUruFZB60giHFfo3aqS4cVlnMdkbq0N2iQnx2A23Mgmh7s2xnw+VkG7RXvPKC6w03a26Qr+j5u1j7Rdc+wvzJsB0bd9wWz9ctxDf9sVHc3HrDXZ/eNT2r2gKodhA3XH9CeEtl9m//35rrn31w+x+/uDBYqUZl3w/m3GQCAhbaxVNvGf6mHX1My8Llh0zY98tpzajkVsgKmZwb0cFx6pLwqY/Dx3KnnU0FOR/w5Pewa314ezjcgXKCvlX5TXwva5gcFWYOi3nb9Ug+PWv+34cYvq/XT8gZazwzo4ffyaV+68vA3te3j5/UjubZ30ym1nJGswO85fanc3+qQtY9PPa+WTz6T/E7nTj2vH/0xpHK9oR+d2uQNYmNFIwAMYAWaUHdXXNWNjQR/58o3Ery7qV3VjY2uhwC5ZvSkB2rM8VGpvJ4HCml8gdwTTdrrzkxwHqRvrtf+A+7gT1gVjx1QhS+wPnl4jtvratLBgCAZmVWXv7P97dp7wp2p2669o67sjYBMDitjtWTW36H5clAA1iXgAWTwMumvFSdPYzsA4W/fubC0IaxwYU0yKBHMlfV7ID345A1iBwyY8PMPepA8+9AcPKpJo8Z6QJuxPV2a3Fyj6rgkX9OTWV92W/erS3tdQTu/ybEJGeU11nsTR622B7XR106jslF7snxNXO5KVOc+n1WiuvoS7e0a1eTOEhUnByKk7nGKq2tktI9qMh5VRTj9HDAq61U92q5Xx+OqqAxLJfXa79lEveo2N6l7bEIqyZ5h3n8irOpG55wNq+IrJepPts11njdu1MH20dy/djJ7vVG3PtmuV9N2S55thktYFY/V62zTUU1WOvdoYWk01U8b9zVq/wF/v1uiuvpR7e2fUEXZaObBRZrQwaajCs6uvLLFp+MKl4U1ebg9FWT0m+jS3pcWftvWgEI7uDc4t4oVq8VsfWLy+u7sm3BU1ZuPuvqX2frlsCoea3S9bw2mfdXVL2cy2X9U5ub61L1FSY2qDVd/nawGckB1/U3qnsP3dqqU7K8/qr1d/nfzbzMAAAuvQF8rLdUbo7/Vv7wtvfHGuJL/kvgoFTCVpB+NPifJH8h9X/98alKtm7bp6eQnFzoDOH8b7Hb95rXn9Kt1VnusbODL1YxGP5C2bbT+xWAFsG/QI+VV+oIm9cPRX+qHZ5Z/v2JhEAAGsPJ4sqYwJ2E760BKlvMrDkvzmY3TW6bSFQy6gjMRvOxArp1NICfwGh/SwaajMo0a7Tkwt8C5N3vXvc/LXduTnAwGFfBjuZwFB1bDqq5uVJ2dEZRrBm64MLdjPdcMYKOyUfsrc1p1Bqnzf2dhuw6rRtXq0t6mcHDWrzt72EzPpEofwOA677OVSc44yMUJumXKirHbE9ivWQ/eXy1v1P6drpWW1Gt/eEgHm7rS2zLRpe4TYVVX29n+L01Y30mZy6yag+3a6y7dTSnH1SkeV1xh3e0+P8Mluts46goYLNa2z8hUWIZ7EyXlKlaXxiak4hK7L5Ck+NDc1h2Oas8BSYpreMEajHROICt4UIz7euPpR5MB+BLt947bsVACOosJjZ0o0a2F7daUAaUTOtg0qrvnGCRPmxrEqNGex9LvozNN41DsZJgiTXw6Lm0Ie87d4rISyTW4ZZG2LPOcZJR7OnQVl4fVPzohszIqwxV8zlayPUjxTjtjOdOYDQAALivF+tty+6p7i/fq6w6cepwZUMt7knRB5979rf7lzB/0q7irhLHkywAO2UHMZfD2K/rnj0L6xl3Wn+c+uSB9ajkakoMz43r+6j/T07fYZZ8/cu+3Yv1teUj/Mv6cHn5vvqWqcTkgAAxgxTFn4tKGcsUPN+ngrHPUIZhT6szaZ7MGgJPlHieSgZhJuwR09X0Z5tEaC1rRFWxiVJNSqrSck4ltHrUzatwylMJVQOnoLMzBo1bAKmjOYXcQmWD9ssoYjJ3o0t7+fOaCm91cM4CzzVmdvqz7fHICuSXJ0ormjPWOFVS2ysl3p52DwdnD3SdyyDyzg2VOwMojPqFXVa6dvuUnD3e5fp8+00d1sGlCZtDvxF2KO8s+7W5qcgVbrICvk0JsDnZZWc7WtJ0ZuYPwTqa35zpoNcjTn5DpvxLY58Nmu88PCsLOZuKo+s2wqkszLBQfUv8JzVLe3L6/Msr9ye3LI8c2w+aq8GJdU6yXk32AL4A7ebhJY4HLhX2l/DGr6TOKGxtVXVmv4sF27W237qr725vUb3/EuK9RewpkByHd0yNY99XF9QdUJtf9QJZs4fQBWXaw350tb1+brthrgKdPDArCzsbXLweY7LcGcRZnXW1cZ00pfJkMxMytzQAALLRJ/XDUzvhdO7f5ZX/zXkKFn7pd0x9Jj9x+vf45/hm1ln/TfncpM4Bn9KPR53Qu49y9k/rhG2+oMPxNT/C58NMFksali2+oZfSN1BvXLu8Mu9Mfvy/JmfM3pPK1iWTmdUpI267/rR4e/wNzAq9wBIABrDjx6bh0oktj9Qdc89F2pc9RhwzsMqaSJpu6VOcpO2w9qLjVv0hJfXBGiKxMBKuUY/a5Ma90k2NWZGeyq0l77Tla61z7LOyU1dwpdTdZ9W/cQbeDTUdVfF+N4i+nSngHcoJUE106+LJU3Zj6TQQFGq1yngv5TTEX8em4VGiV//NmfpSo7kC5iruOarg6Q3ZK4OABKXB+XV/wcq4ZwFL2YKIZj8sIhz3LWueva55wZ9ueUo12oHeiS3ubujIORvDOS+p9vb/Q/12ssrV7A0rHTvYfVfgrvvmRJ7rUfaJExZuDo6/mCavctL+k5+ThJnvO0lnm7XV9fu9YvfYUWg+mDUOS4pocDavOneUVcFw9+36iy9oXO8My5BoQQobeijR5uN0KVPx1nvcv8SEdtKcRCB4YYQ84Mmq0cm6RVmKbl5ld4cWqFpHirRjiGyBSFrycUVkjNXVpkvu53BSW6+5zXeqfiKouGZwNmLs3eYlxXfdccwBPznfg5AlXtYw8qsusGrP2ibObrV82B9vVfUJZqoZcflZimwEAq4Wd+XtmQA+/bb90ZkAPxxPej33kyuRde7taSzdp+o/X6PZ10rQk3XKvvhF/Tg+PjnuX880BrIxB2nm4eIO+UX6vpsd/qYdHf6ttt2/T125x3pzRv4yPS3bJaiujVpJCeuQuSWe0wHMAW4Hv5y9Kij9nl9L+pVrs/z78rvWplvFrtEE3BK6hcNO92jb+S/3qlm/qaXfw/MyAHn77ek/A1z8nMlYeAsAAVqbN9a5AhH+eJmRmlz8tL5Gmy7W/Oq6DTw7p7rkM5cpaXhWB4kPqdwJMZVaZ14ODce3UUU1urlGdpMnpuFWOzpUCWLzzgPZXe+cAVqVdwjtbwN2Vldjf3i555nnOvZwwlkqJ6pzS7H6bu9Q/Hg/+rQVUPkjOz7lIUROn9KQ7IGm9Jisz1/XZZLa6b+7xdFbGe/Agk9RD9LTMdztwW+dP55WsOfZealf3RFDg1PvRyTFrTnmj386Ic33X7hOZg+XFOw9ov+IafrIp+9zDkn2sDmi/pMnDR1XdWC/9rEvOnJ3pn83wgNZ+sG0YcR0eLOE3vKI5WYD5z6eaLAWbqYqDcy3wn1Npv0nrN7gQZ5O/WkDWwSZBMrUZeZk1AziQPSdwljnM4ZYadGTOHPWWZ04G4MOqvm++v7CAst6b65NTDxTfV6P4qOt+8Qo0a584q9n65dQx8A+KC+778miCT1rJ7zl/t8xtxgLKcF3l38rLxV1pQWLu+uXG8UCAjVWewGOmEtAbSrdJb7+iX9l/f+GuUpWPntOXAso8nzv1vFo++bPFKVm89nptUIG+UPpNfe3MgB5+4zk9H3cCzQX6Wuk3kx/9wl3fTM5T/JvXntMP131TT5e61rWxyjWPcT4K9LXSL0t29vO2j5/Xj3SvHtEr+pHuVetNp9RyRnqk9DN6fvRcxnWUX3+Nnn9vQD8cTWjU817Ck63snYsZKxEBYAC4ksQndLa8XnUFR9U/LSvz4zErIHFWsssUxzXZ3iXjgLcEbDKwVJ1cmYaf7NLZDZIKl/RbrDiT/Uel+xpVNj1hPXAtqdee8JAOtoeteb/sAHH1TtnzP2bi/8eTU4rbEbYCSy9JdQfqNdZ0VLfagaYx6rVchqyyhGEd1d6mgOzTzfXaX1ai7pcmFC9PfzuIURCWRuNWOU/fe96Hk7OUgHbKvdtBmOT6XWWb9262slkPvuyaxzfo5HXPPe5av3MuF9dnekDmOt89WWyu73tfY4Zlw6r46xodbG/XcGOjKuJd2usqe+9WvLNRknvuvdScvnWb25MlPLPJ+lDVV8rT2l4e86C6Hi4Wf6VR1TPt6p6gTOuK5BzLoCBneKMMnQlczF1G1Pk9Zzr3nKBBYAA28DepLPPFh3Vrjg/p5jJNgV/WNiMvs2YAZ1JSr7qxdk3GozygzUV4o4xzcWlntgzgLuveO/+NpOa6lx3EL7Pme5YkFUS1s7z9iq2IlLlPDMvIdA9sbEwNfMnWL0vyTmmRft+Sqe+71ZD1byw/35zEmaSX/J6L7G3GAsp0XcUySZ9KBsuJ44GFFlSu2HbtEmx+Y5We3mhl4bacCql1k1IZuUE+8mUo2zbc+GW1bipY1KbOboP+trwq9WdABjBWPgLAAFac4rIS6aXgAAdmEY6qrlJp80wW7zygYsU1/OSEtLlExSck60bdeYIS1+RoXMVfKZE0JEkaO9yueHmjdqrLKhs4MapJY6OqBa+4TNVoZ2VYcae+ov2QKVxvzYnqBIiTD2bcD6TShJPZiv2FjdpTcNTO6gmrv+moUhmFdrDZ/nvycGouuvh0XOEynuheHsK6tbpedcly9v6s7hLtL5HMwdGMa/AoscpGux/ap7KCvQ8nk2WVc8gW8v57pUR1Bxo1/GS7Dp7I46Gik+GXNYvFO9jB80DX/v1otiBROKo9jdLB9ib15/zwM/XQfk+JNHk44COLXWo5oAS0cV+jqqdHdXdjo/Szdp2V9VC4LngNuKzZ5Y0znf/hsMLyzWEdn9CrZlh3u37TWefDnuhKy9TPSXijDHPUG/SbGNWkwlr0S0a+bUZW+WUA28vag2OScgxYXdmc63hN8hWn6srOwBFSdhWJDfWqk2S655I3MqdamIPtgRUtjMpG1R1u0t7D+WbArkyz9YnhwrDM0QmZlanr9uTYhLSh3P57ln7ZmT5nzpUJrOCzZ35m+99Uc5uTOB/5thkAgEX29itqeeMNpeWm+gOlGUs5h/RIxgzgBW1pFlbWr1Me2f3/kuzv+IEKr01ICmlUGxYn1vX9TwAAIABJREFUMzkvqQB6ebhY1hzNv9Xtt29LfYe3X1FL/DNqvWzajPkgAAxg5SkpV3FXl6v85YS6uyayZIIhF6n5rsp19sSo6/UmvfThLXp7Q732l0hSVDvva9dhWcEXc1CS4hp+aUIyJ6zjstyD2C4rYVXstEaEW/eyE+puH9XdjQesh1TZytguhviQ+k9I5okm7bUDefuXZsvws4M61WEnk8cuBRz3lf3OxYST4Vqv6vuO6mD/hCrsh5jx6biMwvS5n9OCv651ZO1LnSyZzfXaU35UB5uaAoM2aWUL/dzzFdpSmX9BI8XdpRkP5JCV5swjGpZhTqi7qT2HcmNWhlU25kzc9dB4EWR8WJtn5jAuLxOjVjZWxuBMiarvC+vgS0MyS+xgXb/1e7POXTt4cF/mc3lybMI3VUaOwlFVbz6q7mT/YV3bl+L+Ku82w8OaVz7z+5OHm9R/QpLCqnaN2Atezj8QJ7f5zq80TtDWuK9RhuKy9ps90rKrSZOSjPusP5PXYmeeWsWlxgPaH7YGHKVnv6dfQ2cbvFW884AVBG66UrI+Z+8TjcoaFb9sz9NcIvteOKzqRrvDma1fdu7XGuceSC2urpHRflTD1SX2ff9R9ZslqlvsKgfzaDMAAIvOF9zNVAI62DJnAGdx7tTzann3gjXnb3mVzr32nH61rkpPa8Cau3jB5idO6I2LIX1po6RT1t+jH1xQ4S0FzgtKzr2syWQJbYs7gJ6av/hrt0jJQlS33KtH3nleD4+eCwy2Y2UhAAxgBbIeaHQ3pUbJUy5wPpy5oZyR8xPq9n1iw71NanQySOxgu7O/jYKwzK4u9W+u1/7HSjR5uEl7X+ZBYWauzOqJLu3tsuYfdW4BzfFRmRtqvA9rnIzAzfnPcV2884DCg+3a225lWO0psQN0TU3zmCsN82GOj8rcXC7zySa7TKT92wtHtecrXZ75FwMfzrszRTfXa79zXlXWq/rJdu19skZ7HiuReS6su6t9pWPdD49dc0ZLUneWc8IqsegOwJZof+mQDrZbJaH3u0qKZixbOJcMWt+casX1B+yBKJmlAs9WEDmZJRsfsrOB53fNCAqoT2YoUZ2UJZMLVyKrjLqfM5DCqGxU3XST9/ft+z16MgUd7pLtAQMscpmTsHhno9V/2M1b0vurPNsMKXkvt6FExS+366Aatcc9mKUkNYivYmfQcjWqHrWXSx5vSjbmwvsbCWfYZ3ENPxmXypUa5HXggOcaaFXjSV/urGmXYHdVv9ifNmjQW6a9eOcB7S/r0t6cBj6tDtn6REMlqmusse5VJAXPP5mlX7YH3/S3N6VNCzFrHxmOak/9Ge1NLruUfVqebQYAYLFcfEMtb1yjbbffO4+VXA4ZwG4zyRLQG278sp4uT2XEJLOcnTmPz9iBYM2zBPSZcxpde722OX9/ck6/uhjSNzZKejv31Zw79Yp+df2X1RrwuGLDpm16+syAHn5t8jLKXkY+CAADWKF4KLUgXAHd/a6HV7ca7ocgJaqrHtLBJrs02gEnsOueVyr10MqaA8tavptSjpnFh3SwS6o70KhiT5aNk5HgBObd+3dC3SesgEDqQWG96saadLBJklGj6oDnOe55FfcfSH3ACtBZ27nSygVeDuLTUnV1VBXhsDWnrmQdQ8l+WG+XhjQlK1vLFcQdm8iSKRpWxWON0pPtVgDJqNEee9HUPMD+4LF3wIY52K69T8Z965/QmFyB5uTmotpzoERmPCzFcyxVnY0n6Jtrtq/ze1Haee5tpxUcMwfbtbcpnmUfWoqra9Tf7n+onJ6xP5c5gBeMLzhub8xbPprBHZefknrtz+H2JfNcut55QIMY85iHN5f1Wx/Ld77D4PXPZ+5gyMr222D/3nfa1/Ws87xLUljV3y7Xq6rRnp1RGYrKONyUDP5nXe4KCSrOR1oVDKPGDrpFteexbEumrmfOctbl3/ub86zfdZ1PyrGvWfkWoM+adV/Nc37XufT7C7V+5qQFAFxmzn38/gJmwNp85aStksZLrSC9BHQmTiB4nn7z3vvatrFUo+PPWYHntZJuvFd67Tk9/JGka0u1QZP64ei4rCc0IX3pFqUFhzds2qZWyQpMxxPWazeWpub/3Vilp+ffXCyzNdFvfOfScjcCQH5+/tNDeS136dIl3XzTDXlv99SpU9q0aVPey69W7JeVieO2NNjPK5tVojpDkDMgSzf9c95SomSfYLnQF2GuOGdWJo7b0mA/Y644Z1YmjtvSYV+vTBw3ANnMt4/4/Tvva82aNXktSwYwAAAAsgouTWnLKcuEqg0AAAAAAADAUrlquRsAAAAAAAAAAAAAAFgYBIABAAAAAAAAAAAAYJUgAAwAAAAAAAAAAAAAqwQBYAAAAAAAAAAAAABYJQgAAwAAAAAAAAAAAMAqQQAYAAAAAAAAAAAAAFYJAsAAAAAAAAAAAAAAsEoQAAYAAAAAAAAAAACAVYIAMAAAAAAAAAAAAACsEgSAAQAAAAAAAAAAAGCVIAAMAAAAAAAAAAAAAKsEAWAAAAAAAAAAAAAAWCXWRL/xnUvL3QgA+fn5Tw/ltdylS5d080035L3dU6dO5b0sAAAAAAAAAADAlWDTpk15L/v7d97XmjVr8lp2bd5bBXBF++xnP7vcTbjsvPXWW+yXFYjjtjTYzwAuB/RFmCvOmZWJ47Y02M+YK86ZlYnjtnTY1ysTxw1ANm+99daybZsS0AAAAAAAAAAAAACwShAABgAAAAAAAAAAAIBVggAwAAAAAAAAAAAAAKwSBIABAAAAAAAAAAAAYJUgAAwAAAAAAAAAAAAAqwQBYAAAAAAAAAAAAABYJQgAAwAAAAAAAAAAAMAqQQAYAAAAAAAAAAAAAFYJAsAAAAAAAAAAAAAAsEoQAAYAAAAAAAAAAACAVYIAMAAAAAAAAAAAAACsEgSAAQAAAAAAAAAAAGCVIAAMAACAJZMY7lDnsLnczQAAAAAAAABWrbXL3QAAmJuY+pp7NBX4XkTb22pVtMQtWnlMHTvUoXPVbdoesV6Z6m1W30TQZw1FGxq0xXC/FlNf85hK22pVlPV4SEW1qW3A2s/jpdY+ybzPpVBlg3ZVGMFvuiSGO9Sr2sDPJoY71DlTpZYd/gOQfvyxfBLDHeocDAqGen972Y51GnNEnR0DSjh/l9R6zoPM23TxLZOp7Tm3ad6s83aocPZ2eVl9lDmH35T7dzPV26yhgtyW9axjUAF9Z1DbBrTB+VysR63jZdm/nzmizo6zigZd62I9au2/Vbse3apQzq3Fsoj1qLUnlvo74Pfm/Z3672/s30PyR55+rfZfY+ZyPfYsG6rKcE6ZOnaoR6qb7TxPl6nvmE+bIV8fkv3+TErtX/e9SdZ107+k8Zyz9u848/2XzX+NlhQqiUgTMc9rfkG/h6neZvVprtfF1Wj2PtH/m0i7156tX/Yft4x9Y1DzvMtm7NtyuQ8I5P63WebtzqnNAAAspOkR7f6gQE/dcVfqpdMvat8f7/C8pneOa9+M9NCd96jQ/dqZD/X14q2627NSU0dfP6bTNz6o7xZqAVjre+Hi3JYqXLdFj99m3VNMn35Rz+qLyb+tF0e0+/x570LXRLzfe55tLVy3RQ/p19r33sfWC2s/p8eT+/A1PTN5UrdtvF81Oq59Z97UtLMaz+ekV08e0bMXva9h5SMADGCFiWh7W5vvNesf/SfKqgj+5sTQlroqdXb0aMr1oCD9YYQVnEj96TyUcN5rlnM8tkvWQ4ZuaQcPFnJStKPN3pc2+8FT6oGU/2GWpJJabVdP8INa30OjUEWtooc61BcLfsg01dOsVvcLOQT8sDjSA/6+314Q/4NKzwqrtKutLevvMOsgg1iPWse9L+Ua7E0Md2go3GCfc9kCEB1qHfS/lmEQT6xHrT2mog1takluPtfArrXOvuYO9YVnCybFNDRoqqg2axQk+CGrzQraGdpeK/V1j6goW38YG9NUqExRQ5JMHeuPqai6NlsDJWOrdlR2qHfYVNGSBN6x8GLq65G2t7XZ55B1Lre6gjjJ86itQUWygzyHRpIP7hPDPTpR1qAW+xxIDHeos6NDcg0m6FOtWtrscznWo9aeZvXlEFCd6m1W33SVdrVtVci+DnX2Gt7rQ7L/MRSd63e3+4RQpf+t/NsMW6RK0f4OdQ43aFeFfb9sjqhvMqLt7nNl0PTc8xXtqNV4c4eOzTpoBUFClQ3aoR71ypBzHZF61Bo0yM8OwO1q25oe7NsR8PlZBu0V7WjT9t5mtTbrir6Pm7VPdN0ztFQYdmDUfV8wW79s6lj3mDY3tNnrs/vGQ5o9oGoHYY3aNu2KyO7b/L831z1/Sdkcv7szWCiiUu+G828zAAALrTCiB14/pt0nlQx8Ft52vx46eUT7Tq+3AqbTI9p9XnqoeGvG4OP06RdTQU7H+SPa7Yqvlq3PNyBsqObOB1UTtM2PwlmDot52HdPuSev/Ctdt0eOfkjfQOj2i3R/k0750Zesf1AOfvKhn5dreZ36nfTOSFfid0T3FBb6l1lv7+PSL2vfHdcnvNH36RT17cb3K9KaePf15bxAbKxoBYAArX2xAQ4nUwy1k4RsJ3tfcoWhDg+shQK4ZPemBmsTkmFRWywOFNL5A7kSzWt2ZCc6D9JJatbS5gz+Gtjzapi2+wPpU7xy319OszoAgGZlVl79zQx1qnXBn6naodcyVvRGQyWFlrEZm/R0mBoMCsC4BDyCDl0l/rSh5GqcP2JnqbdbQtCEVGjIKqmbpt11Zv23pwSdvEDtgwISff9CD5NmHieEBTYWqrAe0GdvTo6mSKkVNSb6mJ7O+7La2qEetrqCd39R4TKGyKuu92IDV9qA2+toZqmjQrixfE5e7iLa7z2dFtL02otaeMU3tiKgoORChITVAK1qlUMeYpsyt2mKknwOhilpFxzp0YtLUlgpDitSqxbOJWm0vaVbfeEyKZM8wH5owFG1wzllDW6ojGkq2zXWeN9yqzo6x3L92Mnu9QRsOdehE2m7Js81wMbTl0Vqdax7QVIVzj2ZIY6l+OlTZoJY2f78b0fbaMbUOxbSldCzz4CLF1Nk8oODsyiubOWPKKDU01duRCjL6xXrU2r/w27YGFNrBveG5VaxYLWbrE5PXd2ffGFsVLRlw9S+z9cuGtjza4HrfGkx7wtUvZzI1NKBESW3q3iJSpWjI1V8nq4G0aftQs/rm8L2dKiUttQNq7fG/m3+bAQBYeIZq7ozo9ORJHX1HOn0mpuS/JC6kAqaS9OzkEUn+QO77+sXp1/T4bffrqeQnFzoDOH+FdrtePXlEx6+32mNlA1+uTI19JD1QYAXjrQD2DXqoeKvu1mt6ZvKYnple/v2KhUEAGMAKZ2VNhSobyP7NhWFnHUjJcn5FhjSf2Ti9ZSpdwaArOBPByw7k2tkEcgKv5og6mweUCFVpV9vcAufe7F33Pi9zbU9yMhgU5inP5Sw4sGooGm3QdjsjKNcMXKMgt2M91wzgUEWDWipyWnUGqfN/R0GHelWlqHrU2mxkKN3vyh5OpGdSpQ9gcJ332cokZxzk4gTdMmXF2O0J7NecKhQNatnhWmmkVi3GiDqbe9LbEutR34ShaNTO9u+PWd9JmcusJoY71Oou3U0px9XJNGXK0Gb3+WlEtDk04AoYLNa2zyohQyH3JiJlKlKPxmNSUcTuCyTJHJnbuo2t2tUmSaaOLViDkc4JZAUPinFfbzz9aDIAH1GLv9CORAnorGIan4hoQ0GHNWVAcUydzWPaPMcgedrUIKEq7Xo0/T460zQORU6GKdKYM6ZUaHjO3aLSiOQa3LJIW1ZiWgqVeTp0FZUZGhqLKVGxVSFX8DlbyfYgRTvsjOVMYzYAALis3KXvFttlj2/ylj92B049pke07wNJ+ljT753U0en3dPy8q4Sx5MsAXm8HMZfBO8f1iwvr9fU7rD+n//ixdPVyNCQH0zG9sPYOPXWTXfb5gnu/3aXvFq/X0dePaPcH8y1VjcsBAWAAKxvZv3lySp1ZD/JmDQAnyz3GkoGYKbsEdLQywzxa40EruoLFxjQlpUrLOZnYiQE7o8Yt83zWaaWjs0gMD1gBq6A5h91BZIL1yypjMDbWo9ahfOaCm91cM4CzzVmdvqz7fHICuZFkacVE3HrHCipb5eT70s7B4OzhvokcMs/sYJkTsPIwYzqhMu3wLT/V2+P6ffrMDKizOaZE0O/EXYo7yz7ta252BVusgK+TQpwY7rGynK1pOzNyB+GdTG+zt1mdnuMS8/QnZPqvBPb5UGL3+UFB2NnEBjSUMBQtzrCQOaKhCc1S3lxKxE0pVOZPbl8eObYZNleFF+uaYr2c7AN8Adyp3maNBy5n+Er5Y1YzZ2WGblW0olZFwx1q7bDuqoc6mjVkfyRU2aBdYdlBSPf0CNZ9dVFtm0rluh/Iki2cPiDLDva7s+Xta9MVew3w9IlBQdjZ+PrlAFND1iDOoqyrNXUuIRmXyUDM3NoMAMBCe03PTNoZv2vnNr/sqx+cV8HVn9PMBemhjdfpF+fX6fHiB+13/3/27i8mrvvO//8rX3m3aZM02XjOAHY3WblapQxjE1ZKV7mw7A5gqqZRo1xAwF9WP2mzUVa2iL+iEhcOQgj7AilINgpq1fZmiwyxpY2y6mYVhz8F+aLqRlqCmYFEVaxNGscwZ9ymm2Sbppbyu/icM3POmTN/GLBh4Pm4sRnmzHzmzDmfc/i8P+/3505mAKf1s9SrWi24du87+un136pm79O+4HPNXzoX3Vu/1ZnUb3O/uDtYlvnOWvviU0k1zpq/e9W452Y28zpnr5786ns6+e4nrAlc5QgAA6hiZP9WxiljKmmlf1LtvrLDZqCiLrhJrDM8I0QmE8GUciy+NuZut7JkIjsrk/0adNZobffsM8stq9khXeo3xXC8Qbex/mnVN7fInsmV8A7lBqmWJzU2IyV6ciN/YYFGU85zMz8p1sNes6UaU/7Pn/kRU/tQo+onp3UlUSA7JXTygBS6vm4geLneDGCpeDAxY9uKWJZvW3P8etYJd9/bV6rRCfQuT2qwf7LgZAT/uqT+x2drgp/FlK0dDCkduzI7Las1sD7y8qQuJWOqj4dHXzNJc50JlvRcudjvrFlaYt1ez/MHlzp1osYMTEcikmRrZdFSuzfLK+R79e375UmzLzosReSZEEKGXlVauThqAhVdFUZp7HmNOcsIhE+McCYcRVpUPfN8qrHNW8yp8GKqReT4K4YEJogcDN8ucrRF6p/UCvdz5alp1KHVSc0uH1F7NjgbsnZv9hLjue551gBe2ejEyaSnWkYF1WV2jJJ9Ymml+uXM3KguJVWkasj2U41tBgDsFE7m7+q8Tv7BeWh1Xidv3vQ/7XNPJu+ev9aLj/yN1m59RQ/dI61J0gOP6fs3X9XJVODv9sAawCoYpN2AW/fq+w3f1tq7V3Qy9Z6e3P+E2h5wf2nr8rvLklOy2mTUStJePftNSava5DWATeD7F7ck3XzVKaV9RWecf09+Yp515t2vqFb3hr5CzUPf1pPvXtFb9z+tl72R3dV5nfzD13wB3+CayKg+BIABVC97WVczlg4VynhBCKf8aWNMWmvUQMLW2Pl5HVrPVK6i5VURyp7XrBtgOmjKvI7N2erQtFbiLWqXtLJmm3J0nhTA+o4hDST8awDrqFPCu1jA3ZOVODs6KvnWeS6/nDDulJja3dLsQfFJzabs8HMtpARwdn3O2xQ1cUtPegOS5jGZzFzPc7PZ6oG1x/OZjPfwSSa5QfS8zHcncNseTOeVzBp7U6O6tBwWOPU/dWXJNmuhzzoZcZ7PeilZOFhe3zGkAdm6cr6/+NrDkvNdDWlA0srFaSV6OqWJSblrduY/t8AArTOwHYnYujgX4xyuam4WYOXrqWZLwRaq4uBeC4LHVN45ac7BzTiagtUCik42CVOozahIyQzgUM6awEXWMIdXbtJRJj3tL8+cDcBbSjRv9AwLKesd78wuPVDf3CJ70XO/uAuV7BNLKtUv576D4KS48L6vgiYE5JX8XvdnK9xmbKIC11X+Vt4q3koLEmvXbzW+D4SoPeILPBYqAV37yBPSx2/pLefnR78ZU2NqTY+FlHle/eB1nfnzN29PyeI9X1OtLD36yNNqW53Xyeuv6hc33UCzpbZHns4+9dFvPp1dp/jt917VT+95Wi8/4v1QRzzrGFfCUtsjhyUn+/nJL17Xz/RtPav/1M/0bb349f/WmTXp2Ufu0y9ShbI9LDV+9Sv6xWfz+mnqZm49ZknSTV+2sn8tZlQjAsAAqlYmtahMpJEyVuthL+tGY6fao9OaXZPJ/HjBBCRuSE6ZYlsro5OKDPlLwGYDS4nsi+nK+UndqJW0tdVLtr2V2WmpuUcH15bNgGusUyeseY2NWmbdLydAnOiQs/5jIcE/ntxS3C7LBJampPahTi31T6vOCTQtccO2DZmyhJamNdgfkn0a79TAwZguTS3Lbsz/dZhI1JIWbVPOM/A7/+BkiRLQbrl3JwiTfX1P2ebBuMlmHZvxrOMbdvB61x73vL57LNd3Fhog8xzvviw2z+ctWAHC0uGuFo2NjupKT48O25Ma9JS996rv6JHkXXsvt6Zve3w0W8KzmKKDqoFSnub9KlgH1TO4WN/ao0R6VJeWKdNaldzvMizIae1TRB+FbuYtI+qez4WOPTdoEBqADT0nVWS9eEt1Zd5rrWeZgqCibUZFSmYAFxLrVPvSqFbsIwzQlsPap8iqLXUUywCeNPfelb9Jbq17OUH8g2a9Z0lS9Ig6Gkc1dtHalct6FO4TLUUK3QNH9uUmvhTrlyX5l7TIv28p1PfVRWT+xgoKrElcSH7J7/Uo3mZsokLXVWyR/KVksJX4PrDZwsoVO+6+A29fe0Qv15os3DMf7NWLDymXkRvm80CGsvsy9x3Wiw9t9Y12jf6pwXP9CskARvUjAAygStlaWbQVaYzt2lnuFbGOqP2o8taZrO8YUr1sXTm/LMVjqk9K5kbdHUEx+7u+NSZpXpK0dHFUdmOPOjRpygYuL2olsk8Jwc9WRi3qOGrJdusrOoNMVqdZE9UNEGcHZrwDUnmsbLbibE2PTkSnnaweS7P908plFDrBZufnlYu5tejsNVvWwa2+0YRhqS7RqfYOKTyrO6aBmJSZWyz4Cj4xUzbaO2ifywr2D05myyqXkS3kj+vG1D7UoyvnRzWWrGBQ0c3wK5rF4p/s4BvQdc4flQoSWUd0okcaG+3XbNmDn7lB+xMxaeViyFNud6nlkBLQkeYeJdYWdainR5oY1Q2ZQeH28FfAtuaUNy50/FuWLAXWsHYrnnjO6aLrYS9P5mXql8Xap0hm0R/0W17Uiizd9ktGpW1GUZVlADvbOpNjssoMWO1u7nW8JfuIW3WlI3SGlFNForZT7ZIy3rXkI/sKvktmbjS0okXkaI/aL/Zr8GKlGbDVqVSfaNVYyiwuK3M0d91eWVqWahudn0v0y+7yOeuuTGCCz771mbN/w97uTrXSNgMAcJt9/JbOXP+tVoOPBwOlBUs579WzBTOAN7WlRZisX7c8svf/kpzP+L+qufumpL1aVM3tyUyuSC6A3rj3WzJrNL+nh/Y/kfsMH7+lMzfv04vbps3YCALAAKoT5Z83XW69q0bdSC56Hu/X1P8+qN/XdmogJklH1NE8qosywZfMnOSux6zMsilLGt2iD7EtWTrcYWbUmaG/ZV0aXdShniEzSFWsjO3tYM9rNillkv0adAJ5A3fmnRHk9GMJy83kcUoB24Gy3+VYdjNcO5VontbY7LIOO4OY9pqtSE3+2s95wV/PaxQNlLpZMvFOnWic1lh/f2jQJq9sYZB3vUJHLvMvbKa4tzTjUBlZae46opYimWVd6h8to9yYybAqJpO2PYPGt0HBwdoKM4exvSwvmmysgsGZmBLNlsam5pWJOcG6WXO+mWPXCR40Fz6WV5bMBIt1B1KtI0rEp3Up23+Ya3vhTPvNU3Gb4WPWlS/8+5WL/ZpNSpKlhGfGXvh2wYk45a13vtu4QdtIc48ismX2mzPTcrJfK5IizebH7LXYXadWttQzpAHLTDjKz37Pv4aWmrxV3zFkgsD9uyXrs3SfGDnaovoZZ53mmJx7YUuJHqfDKdUvu/drPesPpNYnWhQZndaVRMy575/WbCam9ttd5WADbQYA4LYLBHcLlYAOt8UZwEWsfvC6znzyJ7Pmb8MRrb73qt6654he1rxZu3jT1ie+qQ9u7dVjtZI+MD8v/vFPqrnfkvTfznOctZf1TraEtuENoOfWL257QMpG5R94TM/+z+s6mVoLDbajuhAABlCd7I+UkaUI8d9N4K4N5c6cX9alwDNq//7/qcfNIJlc9g1QRaKWMpOTmo13auCFmFYu9mtwhoHCwjyZ1cuTGpw064+6A3SZ1KIytS3+wRo3IzAeq3ggr75jSNbcqAZHTYbViZgToOvv38BaadiITGpRmXijMuf7nTKRzrlnHdGJ1knf+ouhg/PeTNF4pwbc4+popxLnRzV4vkUnXogps2rpUCJQOtY7eOxZM1qSLhU5JkyJRW8ANqaBhnmNjZqS0AOekqIFyxauJ4M2sKZafeeQMxGlsFzg2QSRs1my9ryTDVzBuqTeJoUE1FcKlKjOKpLJhd3IlFEPcidSRI72qH2t339+B85HX6agy1uyPWSCRTlrEtZ39Jj+w2neHS3HXGGbIWXv5Wpjqp8Z1Zh6dMI7mSWWm8R3uCNsuxYlFp3tst83JRvL4T9HrAL7zNaV87bUqNwkr6Eh3zXQVOPJ3+5GxinB7ql+MZA3adBfpr2+Y0gDByc1WNbEp52hWJ8YUUztPS3mXkVS+PqTRfplZ/LN7Gh/3rIQJftI64hOdH6kwey2d7JPq7DNAADcLrd+qzPXv6In9z+2gRfZDhnAXna2BHTtfYf1sidRKZvl7K55vOoEgrXBEtCra1rc8zUsBrRiAAAgAElEQVQ96f785zW9dWuvvl8r6eN1vMwH/6m3vnpYL4YE3msfekIvr87r5HvvbKPsZVSCADCA6hTr1ABjUhvnCegOeAav6iLeQZCY2hPzGut3SqMNuYFd77pSuUErswaW2f4SpRwLs+c1Nim1D/Wo3pdl42YkuIF57/5d1qWkCQjkBgo71b7Ur7F+SZEWJULuH73rKg4M5Z5gAnTmfXZbucDtwF6TEokjOmxZZk1dyXyHkjNY75SGzEgmW8sTxF1aLpIpaunwCz3S+VETQIq06ISzaW4d4GDw2D9hIzM3qsHzduD1l7UkT6A5+3ZHdGIopoxtSXaZpaqL8QV9y832dc8X5R3n/naa4FhmblSD/XaRfWjUJ1o0OxocVM7P2F/PGsCbJhAcd97MXz6ayR3bT5n3L4XX0vWvAxomsoF1eMt5ffO0Stc7DH/9jawdDJlsv1rnfO9wrutF13mXJEuJ/9uoq2rRiY4jiuiIIhf7s8H/otvtkqDiRuRVwYi0OEG3IzrxQrEtc9czdztz+fefc77X91zns3bN30qb0GeV3FcbXN91Pf3+Zr0+a9ICALaZ1S8+3cQMWEegnLQpaXynWfkloAtxA8Eb9PZnn+rJmpgW333VBJ73SLrv29J7r+rk55LujqlW7+inqWWZEZq9euwB5QWHax96Qi9KJjB909Tfrr0vllv/t/aIXt54c7HF7kr84B+/3OpGAKjMv/7L+Yq2+/LLL/VXD9xb8fteu3ZN3/jGNyrefqf68MMP2S9ViO/tzmA/VzdTorpAkDMkSzf/ef5SomSfYKvQF2G9OGaqE9/bncF+xnpxzFQnvrc7h31dnfjeABTz4Ycf6sCBAxVv//uPP9Vdd91V0bZkAAMAAKCo8NKUjrKyTCglCgAAAAAAANwp/2erGwAAAAAAAAAAAAAA2BwEgAEAAAAAAAAAAABghyAADAAAAAAAAAAAAAA7BAFgAAAAAAAAAAAAANghCAADAAAAAAAAAAAAwA5BABgAAAAAAAAAAAAAdggCwAAAAAAAAAAAAACwQxAABgAAAAAAAAAAAIAdggAwAAAAAAAAAAAAAOwQBIABAAAAAAAAAAAAYIcgAAwAAAAAAAAAAAAAOwQBYAAAAAAAAAAAAADYIe5K/OAfv9zqRgCozL/+y/mKtvvyyy/1Vw/cW/H7Xrt2reJtAQAAAAAAAAAAdoMDBw5UvO3vP/5Ud911V0Xb7qn4XQHsahvptHaqa9eusV+qEN/bncF+BrAd0BdhvThmqhPf253BfsZ6ccxUJ763O4d9XZ343gAUs5XJdJSABgAAAAAAAAAAAIAdggAwAAAAAAAAAAAAAOwQBIABAAAAAAAAAAAAYIcgAAwAAAAAAAAAAAAAOwQBYAAAAAAAAAAAAADYIQgAAwAAAAAAAAAAAMAOQQAYAAAAAAAAAAAAAHYIAsAAAAAAAAAAAAAAsEMQAAYAAAAAAAAAAACAHYIAMAAAAAAAAAAAAADsEASAAQAAAAAAAAAAAGCHIAAMAAAAAAAAAAAAADsEAWAAAADcMfbMiM7NpLe6GQAAAAAAAMCOtWerGwAAFUnP6tzIZdnOj9axXp1qjm5pk6pHWnMvjeij7w6rK24eSV3o08TVsOdG1drbq6O+XZvURN+CGoe71aCkJvrGlSrwTg3dufeA2c+LjWafFN7n5R/P9syILqg79Ln2zIjOrbbp7PHgF5D//WPr2DMjOvdmWDDUf+4V+67zBPpHHer2HQeF39MjsE2htpfdpg0zx+1UXel2+Zk+Kr2Oc8p73qQu9Gmqdn3XF7N/FdJ3hrXtsva5z0uO6/RiU/HPl57VuZHrah3uVkPey43r9Bv7deqHCVlltxZbIjmu0+PJ3M8h55v/PI2ry/edO+dD9iTPv1YHrzHruR77trXaChxTac29NC79Q6njPF+hvmMjbYYCfUjx+zMpt3+99yZFX5v+JY/vmHXO48L3X47gNVqSdSguXU36HgsKOx9SF/o0ofVeF3ei0n1i8JzIu9cu1S8Hv7eCfWNY8/zbFuzbyrkPCOX926zw+66rzQAAbKbr03rukzr95Fu5K9WNa69p4Iu/9T2m3/1KA9el5w8+rjrvY+9/ph80tejvfC+6pv9Y+qXef/AZ/fP+zWikeb3Xbq1vq7r7v6PBAzWSzGf6sR7P/izJfPZ0xr/RVw/6P/cG21p3/3f0vH6lgT98bh7Y87AGs/swpR8t/EYPP/yUvqdfaeD993XDfRnf86T/eucV/fjP/sdQ/QgAA6hCSU2MXJaO9epsc9T543ZEEzUMFJYnqqP/0KZzI+NKeQYK8gcjTHAi96M7KOH+rk9mUHpYXZL5Hn4uHWdgoSwNx4edfelwBp5yA1LBwSxJh7rVpfHwgdrAoJHV3K3Wl0Y0kQw/L1LjfTrtfaCMgB9uj/yAf+DcCxMcqPS9YJtODQ8XPQ+LTjJIjuv0ov+hcoO99syIpmp6nWOuWABiRKffDD4WDHJ52jOeVmvvsM5m377cwK55zYm+cq4RSU29mVZDd9EoSPggq8ME7aLq6pYmfj6rhmL9YXJBKatJrVFJSmvujaQavttdrIFSNKHjx0Z0YSatBiY9VamkJsalruFh5xgyx/JpTxAnexwN96pBTpDnpdnswL09M663m5x7IPf5IyOSZzLBhLp1dtg5lpPjOj3ep4kyAqqpC32auNGmU8MJWc516NyFqP/6kO1/ompd72d3+gTrWPBXlbcZjnibWt8Y0bmZXp1qNvdnSs9qYimuLu+x8mbad8/XcLxbi30jmis5aQVhrGO9Oq5xXVBU7nVEGtfpsEl+TgDu1HAiP9h3POT5JSbtNRwfVteFPp3u066+jyvZJ3ruGcL/dizVL6c19/MFPdo77Lye0ze+pNIBVScIG+0e1qm4nL4teL557vkPNa3zs7uTheJq9L9x5W0GAGCz7T+op5Z+qefeUTbwWXfgKT3/zisauBYxAdPr03ouLT3f1FIw+Hjj2mu5IKcr/Yqe88xvb4pWGhCu0fcOPqPvhb3nZzVFg6L+dv1Szy2Y/9Xd/x0NfkX+QOv1aT33SSXty9cUfUZP/ek1/Vie93vgmgauSybwe0N/3xRsdcTs42uvaeCLr2c/041rr+nHf46oSe/rx9cO+IPYqGoEgAFUn+SCUsoNZimaUOuhy5pYTErx3TnwUbbATPCJvhG19vZ6BgHKzejJD9TYSwtSUzcDCnkCgdyrfTrtzUxwB9IPdevssDf4E9XRHw7raCCwnrqwzvcb79O5kCAZmVXb30dTIzp91ZupO6LTC57sjZBMDpOxGi95HtpvhgVgPUIGIMO3yX+sIXsYOwGIYPtuRKW6qKK1bbl+PJQn63c4P/jkD2KHTJgICk56kHz70J65rJTVZgZoC7ZnXKlDbWpNSwo0PZv15bT1rMZ12hO0C0otJmU1tZnfJS+btoe1MdBOq7lXp4p8TGx3cXV5j2fF1dUd1+nxBaWOx9WQnYjQm5ug1doma2RBqXRCR6P5x4DV3K3WhRG9vZTW0eaoFO/WWd9bdKvrUF/p+6T0rKauRtXa6x6zUR39blxT2bZ5jvPe/To3slD+x85mr/dq30sjejtvt1TYZnhEdfSH3fqo77JSze49WlRayPXT1rFenR0O9rtxdXUv6PRUUkcbFwpPLlJS5/ouKzy7cndLr6YVbYwqdWEkF2QMSo7r9Bub/95mQqET3JvZnRWRSvWJ2et7wb8dS/XLUR39Ya/n92Yy7duefrmQ1NRl2Ye6c/cW8Ta1Wp7+OlsNZFhdU32aWMfndquUnO2+rNPjwd9W3mYAADZfjb538KDeX/iN/uN30vvvLyn7l8QfcwFTSfrxwiuSgoHcT/Vv11IaPPCUfpJ95mZnAFeuzmnXf73zin59n2mPyQberta08Jn01H7zF4MJYN+r55ta9HdK6UcLv9SPrm/9fsXmIAAMoPpE98vS9byHrVr+ki0p6mQdSNlyfg1RaSOrcfrLVHqCQbs4E8HPCeQ62QRyA6/pWZ3ruyzbatOp4fUFzv3Zu9593uR5P8nNYFAN58Z2Fh5Yjaq1tVddTkZQuRm40TL7wfVmAFvNvTrbXNZLF5A7/o/XjuiC2tSqcZ3ui4Zn/Xqzh+38TKr8CQye475YmeSCk1zcoFuhrBinPaH9mhl4f7upV2ePe1403q2z0Vmd6xvPb0tyXBNXo2ptdbL930iaz6TCZVbtmRGd9pbuppTjzpROK62oHvUen9G4HrUuewIGt+u9r8tWVJb3LeJNatC4FpNSQ9zpCyQpPbu+144mdGpYktKa27QGI58byAqfFOO93vj60WwAPq6z/nk7BiWgi0hq8Wpc+2pHzJIBB5M617egR9cZJM9bGsRq06kf5t9HF1rGocHNMEWe9Gpaqov6jt2Gxrjkmdxym95Z9g3JavJ16GpoimpqISm7OSHLE3wuVrI9TMNxJ2O50JwNAAC2lQb9c5Nz1X3Qf/X1Bk59rk9r4BNJ+lw3/vAb/cf1/9Gv054SxlIgAzjiBDG3wO9+pX/7Y0Q/+Jb58cYXn0t/uRUNKcP1Jb32F3+rnzzolH3+o3e/NeifmyL6j6VX9NwnGy1Vje2AADCA6hMsgZme1dSNNh0/TpCrfG6pMzOQVzIAnC33mMwGYlJOCejWYwXW0VoMe6FdLLmglJQrLedmYtuXnYwarwKlcBVSOroIe+ayCViFrTnsDSITrN9SBYOxyXGdnqpkLbjS1psBXGzN6vxtvceTG8iNZ0sr2mvmNyaobMrJT+Qdg+HZwxNXy8g8c4JlbsDKJ53U22pS8HKRujDuOT8DVi/rXF9Sdth54i3FXWSfTvT1eYItJuDrphDbM+Mmy9ks21mQNwjvZnqnL/TpnO97Sfr6EzL9q4FzPBxy+vywIGwpycuasqNqPVhgo/Sspq6qRHlzyV5LS1ZTMLl9a5TZZjg8FV7MNcU8nO0DAgHc1IU+LYZuFw2U8kdJq9eVtvartblbDTMjOj1i7qqnRvo05TzFOtarUzVygpDe5RHMfXVD97Aa5bkfKJItnD8hywn2e7PlnWvTrr0G+PrEsCBsKYF+OURqykzibCj6sml9ZEvRbTIRs7w2AwCw2VL60YKT8btnfevL/tcnGdX+5cNa/aP0/MP36N/SX9dg0zPOb+9kBvCafrzwim4UXLs3pR+9/75qo8/4gs+1X6mRtCTdel8DC+/nfvHVrV1hd/VPn0py1/yNqGlPJpt5nRPRU/f8Rs8t/Q9rAlc5AsAAqlJ6NS37qnewPa60RFZCWZwyppJSfePq8pUdNgMV+4KbxLvDM0JkMhFMKcfia2PudqlFE9lJjffptLNGa5dnn0XdsprHpYk+U//GG3Q713dZDcfalH4zV8I7lBukSo7r3JtSa29u5C8s0GjKeW7mJ8V6pFfTUq0p/+fP/Iira7hJDeOXNddaIDsldPKAFLq+biB4ud4MYKl4MNFOp2VFo75tzfHrWSfcfW9fqUYn0Jsc1+m+8YKTEfzrkvofn6oNfhZTtvZ0SOnY1NRlRb8bWB85Oa6Jq3E1HAqPvtpXTbnpYEnP1IU+Z83SEuv2ep5/erFbp2rNwLRlSVJaqYWourxZXiHfq2/fJ8fNvjgelSXPhBAy9KpS6sKICVT8Q4VRmvSszjnLCIRPjHAmHFltqp55PtXY5i3mVHgx1SJy/BVDAhNEGsO3s5rbpL5xpbifK09tkx69Ma6pZEJd2eBsyNq92UuM57rnWQM4tdGJk1c91TIqqC6zY5TsE0sr1S/bMyOauKoiVUO2n2psMwBgp3Ayf69P67nfOQ9dn9Zz6Yz/aX/0ZPLueViDBw9o9c936+H7pFVJevBx/SD9ip5bWPJvF1gDWAWDtBtw6179oOlxrS79Us8t/EZPPfyUvveg+8s1/cfSkuSUrDYZtZIU0fPfknRdm7wGsAl8v3ZLUvoVp5T2LzXg/PvcH8yzBpbuVp3uDX2F2gOP66mlX+rXDz6jn3iD59en9dzv7vEFfINrIqP6EAAGUHXMH7DeLDAzk37iQpIsxpKc8qdNcWm1SWdb0zr30qweXc9UrqLlVREqPaspN8DUaMq8nptJ67guK3WoTV2SUqtpU47OkwLYcHxYZ1v9awCr2SnhXSzg7slKnBoZkXzrPJdfThh3Slxdbmn2oEPjmlpKh59rISWAs+tz3qa+0C096Q1Imsdk+mTPc7PZ6oG1x/OZjPfwSSa5QfS8zHcncNsVVv0h3qbWN0Y0kQwLnPqfmlpMm7XQp5yMOM9nnbhaOFjecHxYZ5XW3Et9xdcelpzvalhnJaUuXFZrb7f083G5a3bmP7fAAK0zsG1ZaV2YiXMOVzU3C7Dy9VSzpWALVXFwrwXBYyrvnDTn4GYcTcFqAUUnm4Qp1GZUpGQGcChnTeAia5jDKzfpyF677C/PnA3AR9V6bKNnWEhZ70Pd2aUHGo61Kb3guV/chUr2iSWV6pdz30FwUlx431dBEwLySn6v+7MVbjM2UYHrKn8rbxVvpQWJteu3Gt8HQuxv8QUeC5WArjv4lPS7X+nXzs9/962Dalq4ob8PKfN849prGvjib29PyeI996hONfq7g8/oe9en9dz7r+i1tBtortH3Dj6TferffeuZ7DrF//XOK/rRfc/oJwc9r7W/xbOOcSVq9L2D35Gc7Oen/vSafqzH9bx+pR/rcQ0+cE0D16XnD35dry3cKPgaTffcrdc+mdaPFjJa8P0u48tW9q/FjGpEABhAlUkrtZCWdcx7wxhXV3dcp2/7Ok47QDqpj5q61VVzWVOrMpkfPzQBiY8kp0xxWqmRcVnD/hKw2cBSa/bFNPfSuD6qk1R7Rz9F1UlNXZaO9apxNWkGXOPdOhWd1bmRqFn3ywkQtx6Xs/5jIcE/ntxS3K6oCSy9IXUNd2ux77L2OYGmReq1bEOmLGFUl3W6LyT79FC3zjbGNfFGUumm/F+HsWqi0kLalPMM/M4/OFmiBLRb7t0JwmRf31O2+fQhk8167k3POr5hB6937XHP67vHckN3oQEyz/Huy2LzfN5jvQW2jeroP7Tp3MiI5np7dTQ9rtOesvdeDcd7JXnX3sut6dt1aCRbwrOYooOqgVKe5v0qWAfVM7jY8N1eta6NaCJJmdaq5H6XYUHO6H5Zuh66mbeMqHs+Fzr23KBBaAA29JxUkfXio9pX5iDdepYpCCraZlSkZAZwIfFudS2OKJVOMEBbjuh+WTfS0vFiGcDj5t678jfJrXUvJ4jfaNZ7liTVJHS8aUTnLkR35YTYwn1iVFahe2Brf27iS7F+WZJ/SYv8+5ZCfd8+S+ZvrKDAmsSF5Jf8Xo/ibcYmKnRdxRbJX0oGW4nvA5strFyx46t34O33t+gn+00W7sC1iAYPKJeRG+aPgQxlR93939HggZrb2tTS6vTPTS25H0MygFH9CAADwG4STairWXnrTDYcH1aD0pp7KSkdiqvhqmRu1N0RFBN4b/huXNKsJGnxwojSTb06rnFTNjC5oJS1X62CX1q22nS8Oaq0W1/RGWSKdps1Ud0AcXZgxjsglSeazVacqu3VqZrLTlZPVFN9l5XLKHSCzc7PqQu5tejSq2lFGxnR3R6i2tfara7jUnhWd1xn45I9s1DwFXzipmy0d9A+lxXsH5zMllUuI1vI//dKXF3DvZp7aUTnrlYwqOhm+BXNYvFPdvAN6Drnj0oFiaIJneqVzo30aarswc/coP2puJS6EPKU211qOaQEtHWsV62rC3q0t1f6+Yg+khkU7gp/BWxrTnnjQsd/NKqoAmtYp5N6247qUc85XXQ97OR4XqZ+WaL7ZdkL/qBfckEpRXXbLxmVthlFVZYB7GzrTI7JKjNgtbu51/G27CNu1ZXjoTOknCoSdd3qkmR715K3Cqda2DMjoRUtrOZedV3o0+kLlWbAVqdSfWK0Nip7ISm7OXfdTi0mpbom5+cS/bK7fM66KxOY4LNvfWZ3MvO61iSuRKVtBgDgNvvdrzTw/vvKy00NBkoLlnKO6PmCGcCb2tIiTNavWx7Z+39Jzmf8TLVfzUiKaEF1tyczuSK5AHpTtEFmjebf6OGHn8p9ht/9SgPpr2tw27QZG0EAGECVMWXWpsbHNXfQ/SM/rbk3TDCBS1PlcutdNemjqwuex/v0xv8+qN/VdetsXJISOn5sRBdkgi/2jJT9DuykKUu61ZPYtpWojh43M8LNvWxSEyMLerR32By/xcrY3g7pWU1dleyrfTrtBPLO3pl3RpAT1GmNupk8TingdKDsdzmSboZrt1qPXda5qaSOOoOY6dW0rNr8tZ/zgr+e1yjal7pZMoe6darpss719YUGbfLKFgZ51yt05DL/wmaKe0szDpeRleauIxqVZSc10TdSRrkxk2FVjL2W9gwa3wYFB2srzBzG9pJcMNlYBYMzcbUei+rcG7Oy406wbsqcb+49T34lFL/UorknWncgNZpQ66HLmsj2H+baXjjTfvNU3Gb4mHXlC/8+daFPU1clKapWz4y98O2CE3HKW+98t3GDttaxXllKy+w3Z6bleJ9Skqxj5sfstdhdp1ZpqXdYZ6NmwlF+9nv+NbTU5K2G48MmCNy3W7I+S/eJVnObGt501mmOy7kXjqq11+lwSvXL7v1a7/oDqQ2tbbJGLmuuNe7c91/WlB1X1+2ucrCBNgMAcNsFgruFSkCH2+IM4CJuXHtNA3/43Kz529SiG++8ol/f16KfaNqsXbxp6xNn9P6tiP5+v6Rr5ueFzz5X7YM17gPKrr2sVLaEtuENoOfWL/7eg1K2ENWDj+v5j1/Tcws3QoPtqC4EgAFUn3i3znaP6/RILqOx8rWekFsbyp05n9RE4Bl1j/ep180gGU/6Bqismqjs8XFNHerW2R/GlbrQp9NvMlBYmCezOjmu0+Nm/VH3FtBeWpBd1+YfrHEzAg9VXuK84fiwojMjOj1iMqxOxZ0AXV8f588WsZcWZB9qkv1Sn1Mm0jn3ogmd+u64b/3F0MF5b6booW6ddY+r5m61vjSi0y+16dQP47JvRPVoa6B0rHfw2LNmtCRNFDkmTIlFbwA2rrMHZ3VuxJSEPuspKVqwbOF6MmgDa6o1dA87E1EKywWeTRA5myWbnnWygStYl9TbpJCAeqpAieqsIplc2I1MGfUgdyKF1dyrrtU+//kdOB99mYIub8n2kAkW5axJ2HC81/QfTvPuaDnmCtsMKXsvVxdXw5sjOqdenfJOZonnJvEdPR62XZtaF5ztst83JRvL4T9HogX2WVpzL6WlJuUmeQ0P+66BphpP/nYf2U4Jdk/1i7N5kwb9Zdobjg/rbOO4Tpc18WlnKNYnWoqrq7fN3KtICl9/ski/7Ey+mfL+7em+RTnVSLqve/5uvZN9WoVtBgDgdrn1vgbev1tPPfz4Bl5kO2QAe61lS0DX3f8d/aQplxGTzXJ21zy+7gSCtcES0NdvaGHPPXrK/fmLG/r1rYh+sF/S78p/mRvXfqVf3/MdDYYMV9QdeEo/uT6t595JbaPsZVSCADCA6hTv1lnGpDbOE9A96xm82md5B0Hi6mqd1bk+pzTasBvY9a4rlRu0Mmtgme0nKOVYWHpW58alruFeNfiybNyMBDcw792/SU1cNQGB3EBht7oW+3SuT5LVptaQ8Rzvuopnh3NPMAE68z67rVzgdpBelVpbEzoajZo1dSXzHUrOYL1TGtKWTLaWJ4i7mCySKRrV0R/2Si+NmACS1aZTzqa5dYCDwWP/hA17ZkSnX0oHXj+pRXkCzdm3S+jUcFx2OiqlyyxVXYwv6Ftutq97vijvOPe30wTH7JkRne5LF9mHRkNrm6ZGgoPK+Rn761kDeNMEguPOm/nLRzO5Y/sp8/6l8Fq6/nVAw1gbWIe3nNc3T6t0vcPw19/I2sGQyfarc8734851veg675IUVev/16S31aZTxxOylJB1oS8b/C+63S4JKm5EXhUMq80JuiV06ofFtsxdz9ztzOXff875Xt9znc/aNX8rbUKfVXJfbXB91/X0+5v1+qxJCwDYZm786dNNzIB1BMpJm5LGd1pNfgnoQtxA8Ab91yef6qn9B7Ww9IoJPO+RdP/j0juv6Lk/SvrqQdUppR8tLMmM0ET09w8qLzhcd+ApDUomMJ3OmMfuP5hb/3d/i36y8eZii92V+ME/frnVjQBQmX/9l/MVbffll1/qrx64t+L3vXbtmg4cOFDx9jsV+6U68b3dGezn6mZKVBcIcoZk6eY/z19KlOwTbBX6IqwXx0x14nu7M9jPWC+OmerE93bnsK+rE98bgGI22kf8/uNPddddd1W0LRnAAAAAKCq8NKWjrCwTSokCAAAAAAAAd8r/2eoGAAAAAAAAAAAAAAA2BwFgAAAAAAAAAAAAANghCAADAAAAAAAAAAAAwA5BABgAAAAAAAAAAAAAdggCwAAAAAAAAAAAAACwQxAABgAAAAAAAAAAAIAdggAwAAAAAAAAAAAAAOwQBIABAAAAAAAAAAAAYIcgAAwAAAAAAAAAAAAAOwQBYAAAAAAAAAAAAADYIQgAAwAAAAAAAAAAAMAOQQAYAAAAAAAAAAAAAHaIuxI/+Mcvt7oRACrzr/9yvqLtvvzyS/3VA/dW/L7Xrl2reFsAAAAAAAAAAIDd4MCBAxVv+/uPP9Vdd91V0bZ7Kn5XALvaN77xja1uwrbz4Ycfsl+qEN/bncF+BrAd0BdhvThmqhPf253BfsZ6ccxUJ763O4d9XZ343gAU8+GHH27Ze1MCGgAAAAAAAAAAAAB2CALAAAAAAAAAAAAAALBDEAAGAAAAAAAAAAAAgB2CADAAAAAAAAAAAAAA7BAEgAEAAAAAAAAAAABghyAADAAAAAAAAAAAAAA7BAFgAAAAAAAAAAAAANghCAADAAAAAAAAAAAAwA5BABgAAAAAAAAAAAAAdggCwAAAAAAAAAAAAACwQxAABgAAAHegCBUAACAASURBVAAAAAAAAIAdggAwAAAAAAAAAAAAAOwQBIABAABwx2TmRjU2Z291MwAAAAAAAIAda89WNwAAKrI8qcHJ5eyP9Z1Dao9tYXuqiq0r50d1ozW3z1Yu9utSMuy5lhI9PTpseR9b1qX+RR0c6lS9lnWpf1IrBd6J78Vv5WK/lg6afVJ4n0uR5h6dOGqF/9IjMzeqi+oMfW5mblRjay0a6Ah+AfnfP7ZOZm5UYzNhwVD/uVfsu85jz2tsdFoZ9+d4p+84KPyeHoFtCrW97DZtmDluZ2tLt8vP9FH2Os4p73mzcrFfszXlbet7jRmF9J1hbZtWnfu85UkNLjUW/3z2vMZGP1JiqFP1eS83qcGpfTrxwhFFym4ttkTgHibsfPOfpzG1+75z53zInuT51+rgNWY912PftpGWAseUrSvnJ6WuUsd5vkJ9x0baDAX6kOL3Z1Ju/3rvTYq+Nv1LHt8x65zHhe+/HMFrtKRIPCYll32PBYWdDysX+3VJ670u7kSl+8TgOZF3r12qXw5+bwX7xrDm+bct2LeVcx8Qyvu3WeH3XVebAQDYTKvzOvlZjV7+5rdyD33wus78+Zu+x/TxWzqzJj37yGOq9T52/X/1/YYjetT3orYuv3tFH9z/tP6pVpvAvN4vbq1vq9r7DuvFh8w9xeoHr+tn+nb2Z/PgvE7evOnf6O6Y/3NvsK219x3Ws/pPnfnkT+aBPX+tF7P78B39NPWeHtr/hNr0ls5c/61W3ZfxPU96+71X9bNb/sdQ/QgAA6g+9rzGJm0leoZyg+aTo7pScrAdhqXDXS0aG53UimegIH8wwgQncj+6gxLu7/plBqWH1C6Z72VC6mBgoSz1HUPOvnQ4A0+5AangYJakeKfaNRk+UBsYNIoc7VTi/KguLYcPMq1M9mvQ+0AZAT/cHvkB/8C5FyY4UOl7wRadGBoqeh4WnWSwPKnBJf9D5QZ7M3Ojmo32OMdcsQDEqAZngo8Fg1ye9jh9/kD27csN7JrXvNQ/qkvRUsGkZc3O2KrvLBoFCR9kdZignaX2TunSxLzqi/WHy4taiTQqYUmSrStTy6pv7SzWQMk6oo7mUV2cs1V/RwLv2HzLujQptQ8NOceQOZYHPUGc7HE01KN6OUGe8/PZgfvM3KSuNvZowDkGMnOjGhsdlTyTCS6pUwNDzrG8PKnByX5dKiOgunKxX5dWW3Ri6IgiznVo7KLlvz5k+x9LifV+dqdPiDQHf1V5m+GItSgxNaqxuR6dOGruz2TP61IqpnbvsTJj++756js6tdTPfXSlIs096tCkLsqSex2RJjUYNsnPCcCdGDqSH+zrCHl+iUl79R1Dar/Yr8F+7er7uJJ9oueeYeCo5QRGvfcFpfplW1cmFnXI/dvT7RvPq3RA1QnCWp1DOhFTgb9bPff88cZ1fnZ3slBMB/1vXHmbAQDYbLUxPfnuFZ18T9nAZ+1DT+jZ917VmQ/2moDp6rxO3pSebThSMPi4+sHruSCn6+arOumJrzburTQgbKntkafVFvaef4wWDYr623VFJ1Pmf7X3HdaLfyl/oHV1Xic/q6R9+Rr3Pq0nv3hdP5Pn/b7+3zqzJpnA75oea6gJbLXX7OMPXteZP9+X/UyrH7yun93aq0b9Vj/74G/8QWxUNQLAAKrOyuy0MvHO3B/NsU61x/s1m7J1mAHx4gIzwS/1jyrR0+MZBCg3oyc/UJNJLUqNnQwo5AkEcpP9GvRmJrgD6fFODQx5gz+WDr8wpMOBwPrKxXW+32S/xkKCZGRWbX83Zkc1mPRm6o5qcNGTvRGSyWEyVmMlz8PMTFgA1iNkADJ8m/zH6rOHsROACLZv1ZJqLVk1LdmgRDhP1u9QfvDJH8QOmTARFJz0IPn2YWZuWiuRFjNAW7A9k1qJtyhhSwo0PZv15bR1QJMa9ATtglaWlhVpbDG/W542bQ9rY6CdkaM9OlHkY2K7i6ndezwrpvbOmAYnF7XSEVN9diJCT26CVqJFkdFFrdhHdNjKPwYiRzuVWBzVVfc+KNapAd9bmPukS0vLUqx4hvls0lKixz1mLR1ujWk22zbPcd6zT2Oji+V/7Gz2eo/qzo/qat5uqbDN8LB0+IVO3eif1spR9x7NkhZz/XSkuUcDQ8F+N6b2zkUNzi7r8MHFwpOLtKyx/mmFZ1fubvaaLeugpZWLo7kgY9DypAanNv+9zYRCJ7g3t76KFTtFqT4xe3139411RIn4tKd/KdUvWzr8Qo/n92Yy7VVPv1yI+3dr9t4i1qJExNNfZ6uBDKl9tl+X1vG53SolA53TGpwM/rbyNgMAsPkstT0S0wep93T5Y+mD68vK/iXxeS5gKkk/S70qKRjI/VT//sE7evGhJ/Ry9pmbnQFcuVqnXW+/96reuse0x2QDb1e2Fv8oPVljgvEmgH2vnm04okf1jn6auqKfrm79fsXmIAAMoMrYyqxKkUb/X61WjaXM4rIyR5nRXJTlZB1I2XJ+9Za0kdU4/WUqPcGgXZyJ4OcEcp1sArmBV3teY/3TykRadGJofYFzf/aud583et5PcjMYFGWUZzsLD6xaSiR61O5kBJWbgWvVlPddrzcDOHK0RwNHy3rpAnLHf0fNqC6qRQlNarDfCs/69WYPZ/IzqfInMHiO+2JlkgtOcnGDboWuIU57Qvs1M/B+tbFHAx2eF411asCa11j/ZH5blid1KWkpkXCy/aeWzWdS4TKrmblRDXpLd1PKcWeybdmydMh7fFoxHYpMewIGt+u9P1JGliLet4g1ql6TWlqW6mNOXyBJ9vz6Xts6ohNDkmTryqY1GPncQFb4pBjv9cbXj2YD8DEN+OftGJSALmJZS8mY6mpGzZIBDcsa61/UoXUGyfOWBom06MQL+ffRhZZxqHczTJHHXrOlWst37NYfjEmeyS236Z1D/m61VN9oaTb7d2su+FysZHuY+g4nY7nQnA0AALaVb+mfGpyyxw/4yx97A6c+q/M685kk/Umrn7yny6uf6K2bnhLGUiADeK8TxNwCH7+lf/98r77/TfPj6p//JP3FVjSkDKvL+sWeb+rlB5yyz59799u39E8Ne3X53Vd18rONlqrGdkAAGECVsRSplTJrIelXWAe31JkZyCsZAM6We1zOBmJWnBLQieYC62gthb3QLra8qBUpV1rOzcTOTDsZNV4FSuEqpHR0EZm5aROwCltz2BtEJli/pQoGY5cnNThbyVpwpa03A7jYmtX523qPJzeQG8uWVsykzW9MUNmUk7+UdwyGZw9fSpaReeYEy9yAlY+9rKtqVEdg+5WLk57zM2BtWmP9y8qEnSfeUtxF9uml/n5PsMUEfN1rWGZu0mQ5m2U7C/IG4d1Mb/tiv8Z838uyrz8h078aOMdD3Onzw4KwpSxPazZjKdFQYCN7XrNJlShvLmXSthRp3B53V2W2GQ5PhRdzTTEPZ/uAQAB35WK/lkK3swKl/FHS2keyI/uUONqp+rlRDY6au+rZ0X7NOk+JNPfoRFROENK7PIK5r67vHNJBee4HimQL50/IcoL93mx559q0a68Bvj4xfPJwcYF+OcTKrJnEWV/0ZW3dyEjWNpmIWV6bAQDYbO/opykn43fP+taXffuzm6r5i7/W2ufSs/u/pn+/eZ9ebHja+e2dzABO62epV7VacO3ed/TT679Vzd6nfcHnmr90Lrq3fqszqd/mfnF3sCzznbX2xaeSapw1f/eqcc/NbOZ1zl49+dX3dPLdT1gTuMoRAAZQdcyM7WldScRMEMCe18UZW6QklMspYypppX9S7b6yw2agoi64SawzPCNEJhPBlHIsvjbmbreyZCI7K5P9GnTWaG337DPLLavZIV3qN8VwvEG3sf5p1Te3yJ7JlfAO5Qaplic1NiMlenIjf2GBRlPOczM/KdbDXrOlGlP+z5/5EVP7UKPqnb4u9JwKnTwgha6vGwherjcDWCoeTMzYtiKW5dvWHL+edcLd9/aVanQCvcuTGuyfLDgZwb8uqf/x2ZrgZzFlawdDSseuzE7Lag2sj7w8qUvJmOrj4dHXTNKUmw6W9Fy52O+sWVpi3V7P8weXOnWixgxMRyKSZGtl0VK7N8sr5Hv17fvlSbMvOixF5JkQQoZeVVq5OGoCFV0VRmnseY05ywiET4xwJhxFWlQ983yqsc1bzKnwYqpF5PgrhgQmiBwM3y5ytEXqn9QK93PlqWnUodVJzS4fUXs2OBuydm/2EuO57nnWAF7Z6MTJpKdaRgXVZXaMkn1iaaX65czcqC4lVaRqyPZTjW0GAOwUTubv6rxO/sF5aHVeJ2/e9D/tc08m756/1ouP/I3Wbn1FD90jrUnSA4/p+zdf1clU4O/2wBrAKhik3YBb9+r7Dd/W2rtXdDL1np7c/4TaHnB/aevyu8uSU7LaZNRK0l49+01Jq9rkNYBN4PsXtyTdfNUppX1FZ5x/T35innXm3a+oVveGvkLNQ9/Wk+9e0Vv3P62XvZHd1Xmd/MPXfAHf4JrIqD4EgAFUn1inTjSPaiw7s96s03TpNqyrtfM45U8bY9JaowYStsbOz+vQeqZyFS2vilD2vGbdANNBU+Z1bM5Wh6a1Em9Ru6SVNdtMbvCkANZ3DGkg4V8DWEedEt7FAu6erMTZ0VHJt85z+eWEcafE1O6WZg+KT2o2ZYefayElgLPrc96mqIlbetIbkDSPyWTmep6bzVYPrD2ez2S8h08yyQ2i52W+O4Hb9mA6r2TW2Jsa1aXlsMCp/6krS7ZZC33WyYjzfNZLycLB8vqOIQ3I1pXz/cXXHpac72pIA5JWLk4r0dMpTUzKXbMz/7kFBmidge1IxNbFuRjncFVzswArX081Wwq2UBUH91oQPKbyzklzDm7G0RSsFlB0skmYQm1GRUpmAIdy1gQusoY5vHKTjjLpaX955mwA3lKieaNnWEhZ73hndumB+uYW2Yue+8VdqGSfWFKpfjn3HQQnxYX3fRU0ISCv5Pe6P1vhNmMTFbiu8rfyVvFWWpBYu36r8X0gRO0RX+CxUAno2keekD5+S285Pz/6zZgaU2t6LKTM8+oHr+vMn795e0oW7/maamXp0UeeVtvqvE5ef1W/uOkGmi21PfJ09qmPfvPp7DrFb7/3qn56z9N6+RHvhzriWce4EpbaHjksOdnPT37xun6mb+tZ/ad+pm/rxa//t86sSc8+cp9+kSqU7WGp8atf0S8+m9dPUzdz6zFLkm76spX9azGjGhEABlCVguXPMnOjUm3jrh3wKJu9rBuNnWqPTmt2TSbz4wUTkLghOWWKba2MTioy5C8Bmw0sJbIvpivnJ3WjVtLWVi/Z9lZmp6XmHh1cWzYDrrFOnbDmNTZqmXW/nABxokPO+o+FBP94cktxuywTWJqS2oc6tdQ/rTon0LTEDds2ZMoSWprWYH9I9mm8UwMHY7o0tSy7Mf/XYSJRS1q0TTnPwO/8g5MlSkC75d6dIEz29T1lmwfjJpt1bMazjm/Ywetde9zz+u6xXN9ZaIDMc7z7stg8n7e5p8C2lg53tWhsdFRXenp02J7UoKfsvVd9R48k79p7uTV92+Oj2RKexRQdVA2U8jTvV8E6qJ7BxfrWHiXSo7q0TJnWquR+l2FBTmufIvoodDNvGVH3fC507LlBg9AAbOg5qSLrxVuqK3OQbj3LFAQVbTMqUjIDuJBYp9qXRrViH2GAthzWPkVWbamjWAbwpLn3rvxNcmvdywniHzTrPUuSokfU0TiqsYvWrlzWo3CfaJYPChXZl5v4UqxfluRf0iL/vqVQ31cXkfkbKyiwJnEh+SW/16N4m7GJCl1XsUXyl5LBVuL7wGYLK1fsuPsOvH3tEb1ca7Jwz3ywVy8+pFxGbpjPAxnK7svcd1gvPrTVN9o1+qcGz/UrJAMY1Y8AMIAdwNbKoq361t032LFu1hG1H1XeOpP1HUOql60r55eleEz1ScncqLv71LuP5yVJSxdHZTf2qEOTpmzg8qJWIvuUEPxsZdSijqOWbLe+ojPIZHWaNVHdAHF2YMY7IJXHymYrztb06ER02snqsTTbP61cRqETbHZ+XrmYW4vOXrNlHdzqG00YluoSnWrvkMKzumMaiEmZucWCr+ATM2WjvYP2uaxg/+BktqxyGdlC/rhuTO1DPbpyflRjyQoGFd0Mv6JZLP7JDr4BXef8UakgkXVEJ3rkVIsot525QfsTMWnlYshTbnep5ZAS0JHmHiXWFnWop0eaGNUNmUHh9vBXwLbmlDcudPxbliwF1rC2l3U1Y+mQ55wuuh728mRepn5ZrH2KZBb9Qb/lRa3I0m2/ZFTaZhRVWQaws60zOSarzIDV7uZex1uyj7hVVzpCZ0g5VSRqO9UuKeNdSz6yr+C7ZOZGQytaRI72qP1ivwYvVpoBW51K9YlWjaXM4rIyR3PX7ZWlZc/k4RL9srt8zrorE5jgs299ZudvqvWtSVyJStsMAMBt9vFbOnP9t1oNPh4MlBYs5bxXzxbMAN7UlhZhsn7d8sje/0tyPuP/qubum5L2alE1tyczuSK5AHrj3m/JrNH8nh7a/0TuM3z8ls7cvE8vbps2YyMIAAOoPsuTuqTO7ADhysVRzdZ2amD3jHPcFrn1rhp1I7noebxfU//7oH6f3cdH1NE8qosywZfMnCTZujK1LGWWTVnS6BZ9iG3J0uEOM6PODP0t69Loog71DJlBqmJlbG8He16zSSmT7NegE8gbuDPvjCAnqJOw3EwepxSwHSj7XY5lN8O1U4nmaY3NLuuwM4hpr9mK1OSv/ZwX/PW8RtFAqZslE+/UicZpjfX3hwZt8soWBnnXK3TkMv/CZop7SzMOlZGV5q4jaimSWdal/tEyyo2ZDKtiMmn79lacKDhYW2HmMLaX5UWTjVUwOBNTotnS2NS8MjEnWDdrzjdz7DrBg+bCx/LKkplgse5AqnVEifi0LmX7D3NtL5xpv3kqbjN8zLryhX+/crFfs0lJspTwzNgL3y44Eae89c53GzdoG2nuUUS2zH5zZlpO9mtFUqTZ/Ji9Frvr1MqWeoY0YJkJR/nZ7/nX0FKTt+o7hkwQuH+3ZH2W7hMjR1tUP+Os0xyTcy9sKdHjdDil+mX3fq1n/YHU+kSLIqPTupKIOff905rNxNR+u6scbKDNAADcdoHgbqES0OG2OAO4iNUPXteZT/5k1vxtOKLV917VW/cc0cuaN2sXb9r6xDf1wa29eqxW0gfm58U//kk191uS/tt5jrP2st7JltA2vAH03PrFbQ9I2aj8A4/p2f95XSdTa6HBdlQXAsAAqk+sUwcv9mtw0vwYae7RAKUCN8BdG8qdOb+sS4Fn1P79/1OPm0EyuewboIpELWUmJzUb79TACzGtXOzX4AwDhYV5MquXJzU4adYfdQfoMqlFZWpb/IM1bkZgPFbxQF59x5CsuVENjpoMqxMxJ0DX37+BtdKwEZnUojLxRmXO9ztlIp1zzzqiE62TvvUXQwfnvZmi8U4NuMfV0U4lzo9q8HyLTrwQU2bV0qFEoHSsd/DYs2a0JF0qckyYEoveAGxMAw3zGhs1JaEHPCVFC5YtXE8GbWBNtfrOoZKTfXKBZxNEzmbJ2vPZteM3UmI2LKC+UqBEdVaRTC7sRqaMepA7kSJytEfta/3+8ztwPvoyBV3eku0hEyzKWZOwvqPH9B9O8+5oOeYK2wwpey9XG1P9zKjG1KMT3skssdwkvsMdYdu1KLHobJf9vinZWA7/OWIV2Ge2rpy3pUblJnkNDfmugaYaT/52NzJOCXZP9YuBvEmD/jLt9R1DGjg4qcGyJj7tDMX6xIhiau9pMfcqksLXnyzSLzuTb2ZH+/OWhSjZR1pHdKLzIw1mt72TfVqFbQYA4Ha59Vuduf4VPbn/sQ28yHbIAPaysyWga+87rJcbctfYbJazu+bxqhMI1gZLQK+uaXHP1/Sk+/Of1/TWrb36fq2kj9fxMh/8p9766mG9GBJ4r33oCb28Oq+T772zjbKXUQkCwACq0kbWmIOHJ6A74Bm8qot4B0Fiak/Ma6zfKY025AZ2vetK5QatzHdjtr9EKcfC7HmNTUrtQz2q92XZuBkJbmDeu3+XdSlpAgK5gcJOtS/1a6xfUqRFiZD7R++6igNDuSeYAJ15n91WLnA7sNekROKIDluWWVNXMt+h5AzWO6UhM5LJ1vIEcZeWi2SKWjr8Qo90ftQEkCItOuFsmlsHOBg89k/YyMyNavC8HXj9ZS3JE2jOvt0RnRiKKWNbkl1mqepifEHfcrN93fNFece5v50mOJaZG9Vgv11kHxr1iRbNjgYHlfMz9tezBvCmCQTHnTfzl49mcsf2E+vUQBkxtcL3Of51QMNENnSPVPr1zdMqXe8w/PW5r9sge1lXa53zvcO5rhdd512SLCX+b6OuqkUnOo4ooiOKXOzPBv+LbrdLgoobkVcFI9LiBN2O6MQLxbbMXc/c7czl33/O+V7fc53PKrOvqX6b0GeV3FcbXN91Pf3+Zr0+a9ICALaZ1S8+3cQMWEegnLQpaXynWfkloAtxA8Eb9PZnn+rJmpgW333VBJ73SLrv29J7r+rk55LujqlW7+inqWWZEZq9euwB5QWHax96Qi9KJjB909Tfrr0vllv/t/aIXt54c7HF7kr84B+/3OpGAKjMv/7L+Yq2+/LLL/VXD9xb8fteu3ZN3/jGNyrefqf68MMP2S9ViO/tzmA/VzdTorpAkDMkSzf/ef5SomSfYKvQF2G9OGaqE9/bncF+xnpxzFQnvrc7h31dnfjeABTz4Ycf6sCBAxVv//uPP9Vdd91V0bZkAAMAAKCo8NKUjrKyTCglCgAAAAAAANwp/2erGwAAAAAAAAAAAAAA2BwEgAEAAAAAAAAAAABghyAADAAAAAAAAAAAAAA7BAFgAAAAAAAAAAAAANghCAADAAAAAAAAAAAAwA5BABgAAAAAAAAAAAAAdggCwAAAAAAAAAAAAACwQxAABgAAAAAAAAAAAIAdggAwAAAAAAAAAAAAAOwQBIABAAAAAAAAAAAAYIcgAAwAAAAAAAAAAAAAOwQBYAAAAAAAAAAAAADYIe5K/OAfv9zqRgCozL/+y/mKtvvyyy/1Vw/cW/H7Xrt2reJtAQAAAAAAAAAAdoMDBw5UvO3vP/5Ud911V0Xb7qn4XQHsahvptHaqa9eusV+qEN/bncF+BrAd0BdhvThmqhPf253BfsZ6ccxUJ763O4d9XZ343gAUs5XJdJSABgAAAAAAAAAAAIAdggAwAAAAAAAAAAAAAOwQBIABAAAAAAAAAAAAYIcgAAwAAAAAAAAAAAAAOwQBYAAAAAAAAAAAAADYIQgAAwAAAAAAAAAAAMAOQQAYAAAAAAAAAAAAAHYIAsAAAAAAAAAAAAAAsEMQAAYAAAAAAAAAAACAHYIAMAAAAAAAAAAAAADsEASAAQAAAAAAAAAAAGCHIAAMAAAAAAAAAAAAADsEAWAAAADcMfbMiM7NpLe6GQAAAAAAAMCOtWerGwAA62HPjOiCunWqORr4TVITfeNKOT9Zx3pDngMjrbmXRvTRd4fVFTePpC70aeJq2HOjau3t1VHfrkxqom9BjcPdagjs96CG7tx7wOznxUazTwrv8/KP38LngxNkW23T2ePBLyD/+8fWsWdGdO7NsGCo/9wr9l3nSc/q3Mhl2e7Ph7p9x0Hh9/QIbFOo7WW3acPMcTtVV7pdfqaPSq/jnPKeN6kLfZqqXd/1xOxfhfSdYW27rH3u85LjOr3YVPzzpWd1buS6Woe71ZD3cuM6/cZ+nfphQlbZrcWWSI7r9Hgy93PI+eY/T+Pq8n3nzvmQPcnzr9XBa8x6rse+ba22AsdUWnMvjUv/UOo4z1eo79hIm6FAH1L8/kzK7V/vvUnR16Z/yeM7Zp3zuPD9lyN4jZZkHYpLV5O+x4LCzofUhT5NaL3XxZ2odJ9Y8m/FUv1y8Hsr2DeGNc+/bcG+rZz7gFDev80Kv++62gwAwGa6Pq3nPqnTT76Vu1LduPaaBr74W99j+t2vNHBdev7g46rzPvb+Z/pBU4v+zveia/qPpV/q/Qef0T/v34xGmtd77db6tqq7/zsaPFAjyXymH+vx7M+SzGdPZ/wbffWg/3NvsK11939Hz+tXGvjD5+aBPQ9rMLsPU/rRwm/08MNP6Xv6lQbef1833JfxPU/6r3de0Y//7H8M1Y8AMIAqkfuj3ToW/rv0sV6dbY46f+yOaKKGgcNwUR39hzadGxlXyjNQkD8YYYITuR/dQQn3d30yg9LD6pLMfv+5dJyBhbI0HB929qXDGXjKDUgFB7MkHepWl8bDB2oDg0ZWc7daXxrRRDL8PEiN9+m094EyAn64PfID/oFzL0xwoNL3gm06NTxc9DwsOskgOa7Ti/6Hyg322jMjmqrpdY65YgGIEZ1+M/hYMMjlac94Wq29wzqbfftyA7vmNSf6yrkmJDX1ZloN3UWjIOGDrA4TtIuqq1ua+PmsGor1h8kFpawmtUYlKa25N5Jq+G53sQZK0YSOHxvRhZm0GpjkVKWSmhiXuoaHnWPIHMunPUGc7HE03KsGOUGel2azA/f2zLjebnLuedznj4xInskEE+rW2WHnWE6O6/R4nybKCKimLvRp4kabTg0nZDnXoXMXov7rQ7b/iap1vZ+90L3cBtoMR7xNrW+M6NxMr041m/szpWc1sRRXl/dYeTPtu+drON6txb4RzZWctIIw1rFeHde4Ligq9zoijet02CQ/JwB3ajiRH+w7HvL8EpP2Go4Pq+tCn073aVffx5XsE0v+rViqX05r7ucLerR32Hk9p298SaUDqk4QNto9rFNxOX1b8Hzz3PMfalrnZ3cnC8XV6H/jytsMAMBm239QTy39Us+9o2zgs+7AU3r+nVc0cC1iAqbXp/VcWnq+qaVg8PHGtddyQU5X+hU955nf3hStNCBco+8dfEbfC3vP4gLaKwAAIABJREFUz2qKBkX97fqlnlsw/6u7/zsa/Ir8gdbr03ruk0ral68p+oye+tNr+rE87/f/s3d3sXHd97moXyl2miIfTQPPWLKAYxwXAZLDsWQG6OkJeiNLpuidm7h3AQkGNhoYKfaNcKiNKTYLGAbCokTFA/aiSGAESJoBCaNAT7NvcizRkn2xN7KzC4SWNEQKBNGGL2TJQ+0kbdLG+TLPxZohZ4ZDSqI+hlp6HsCwOB9r/WdmzZqZ9a7f7//xy3npSlIEv1fzR6P9o36keI4vfzsv/epjG4/p6uVv52u/fiSjeTtfu/xEb4jNfU0ADOx9GxVP03ns9Hze6rt67dyZrFbGN0OA6rGMHT6TpQvNpPZgHgjZVt+Z4Ev1+YxNT3cdBLjZip6tQc3apZVkdMoBhS36gtyL9cx0VyZ0DqQfnsrsXHf4U83RU3M52hesry7e4voa9SwMCMlUVu197yzPZ+Zid6XufGZWuqo3BlRyFBWrtRu+D9fODgpguww4ADn4PlsvG9nYjNsBRP/4rlaTg9VUD4xvhBKDdVX9zm0Nn3pD7AEnTPTrP+kh6XkONz5Ltn1fFPvH1cPjGWsl6Rv6RtVXe6yzaWSmK7Trt3qhmcroeHFd80wx9kFj7Btn5fh0Tu7wMNnrapno3p5Ty8RULTONlaxO1jKycSLC9OYJWmPjqcyvZLV1LEerW7eByvGpjK3M561LrRw9Xk1qU5ntWcVUJg7Xb/y9qHU+yxerGZvubLPVHH22luWNsXVt59OHsjC/cvMP+wbf5XY9ZrpUc/TUVN6pn8nq8c53tGqysrmfrpyYzuxc/363lomplcwsN3P0yMr2JxelmYX6mQyurnywta61Uj1Szeri/GbI2K/ZyMxrd37dxQmF7XDv3IPZAelG+8Qb/1a80X65mqOnpruuL06mfatrv7yd1eUzWTs8tfndojaesUrX/nqjG8hcJpbrWbqFx93pUjI7dSYzjf5rdz9mALjzHs3nnnwyb6/8MN/5cfL225ey8UviF5uBaZJ8beXVJP1B7s/zXy6v5uUnnssrG7e80xXAu3ewPa7v//Or+d5Hi/EU1cB71btZ+bfkuUPFL4YiwP5Ivjz6TD6T1Xx15Y189crwn1fuDAEwsPdVj+XkXJK08uaAq1vXWsnBas8B9pEjtaTrgCVt1XbVQbLRzm+kmtzObJy9bSq7wqAHuBKhVzvIbVcTpBO8ts5noX4ma5XxnJy7teC8t3q3+zkf7Vpf0qlgyKOO8uxlg4PVasbGpjPRrgi62Qrc6oGbe61vtQK4cnw6s8dvatHb2Nz+Jw/MZzHjGUsjM/Xq4Krf7urhta2VVFtPYOja7ndqk7ztSS6d0G27qpj2eAbu14oD72+NTmd2smuhtanMVs9nod7YOpZmI0sXqxkba1f7v9YsHlO2b7O6dm4+M92tu7VyLKdWK61U81T39lmt5anKma7A4G6t+0rWUk2lexW10YykkQvNZKTW3hckSev8rS37Bt/luFM6Qdbgk2K6P2969qMbAXwts73n7RS0gN5BMxcu1vLYgfliyoAnm1mor+SpWwzJt0wNUhnPyVNbv0dvN43DSKfClC2G91uxlbWrSWW0Z4eekdFqlleaWTt+LJWu8Hmnlu2DjEy2K5a3O2cDAPaUkfzZaPtT9xO9n77dwWmPK6/npZ8lyXu5+i8/zHeu/Gu+1+pqYZz0VQA/0g4xh+DH381/+cUj+fynij+v/uq95IPDGMhNuHIp3374k3nlE+22z7/oft5G8mejj+Q7l17Niz+73VbV7AUCYOA+N+iHNTfWaXVWHMi7YQC80e6xuRHErLZbQI+d2GYerQuDFvQAa65kNdlsLdepxF47066o6bZNK9wMaB29g7VzZ4rAatCcw90hsrB+qLYNY5uNzCzvZi64G7vVCuCd5qzeet/u7akT5NY2WiuuvVtcU4TKRTv5pS3b4ODq4aWLN1F51g7LOoFVj1Yzb2U0k333X11sdL0/+1w7k4V6M2uD3ifdrbh3eE6X6vWusKUIfDslxGvnGkWVczFt57a6Q/hOpXdrsZ6Fntel2bM/Uel/P2hvD4fb+/xBIeyNNM9kea2asSe3uVPrfJYv5gbtzZO1d1tJZbS/uH04bnLMtHV1eCk+U4qLN/YBfQHu6mI9Fwber9rXyp8bunYlrcqhjB2fysi5+czMF9+ql+frWW7fpHJiOicfTTuE7J4eofhePTI1lyPp+j6wQ7Xw1hOy2mF/d7V8+7Ppgf0M6Nkn7ua3Yt9+eYDV5eIkzpEdF9vKO2tJdY+ciHlzYwaAO201X11pV/w+dGvzy37/Z9dz4IOP59ovki8//uH8l9bH8vLoF9rX3ssK4HfztZVXc3XbuXtX89W3386B6hd6wucDv/NokkvJb97OSytvb17xu8OdYffaL3+epDPn7yMZfej6RuX1pkfy3Id/mBcv/as5ge9zAmCAB067jWmS1XojEz1th4sDFY/136U2NbgiJEUlQtHKcee5MR90qxeKZGe1Uc9Me47Wia7nrNppqzmZLNWL/jfdodtC/UxGToyndXazhfdAnZCq2cjC2WRsevPI36CgsWjneScfKbeida2VHCja//VWftQyMTeakcaZvDm2TXXKwJMHkoHz6/aFl7daAZzsHCautVqpVKs99y223655wjvr7mnV2A56m43M1BvbnozQOy9p7+XLB/ofS9G2dmZA69jV5TOpPts3P3KzkaWLtYwcHpy+rl0s2k33t/RcXay35yy9wby9XbefuTCVkweKA9OVSpK0srpSzUR3ldeA17XnuW82iudisppKuk4IUaF3X1pdnC+Cii/uMqVpnc9CexqBwSdGtE84qozn/jnP534c85C1O7wU3SI29XYM6TtB5Mjg+1WOjyf1RlZ9n7s5B0bz1NVGlpvHMrERzg6Yu3fjI6brc69rDuDV2z1x8mJXt4xddJcpjRvuE2/sRvvltXPzWbqYHbqG7D3345gBKIt25e+V1/Pij9sXXXk9L7au997sF12VvA89npeffCLXfv2hPP7R5FqSfOKz+Xzr1by4cqn3fn1zAGfbkPY2/OYj+fzoZ3Pt0ht5ceWHee7x5/K5T3SufDffuXQpabesLipqk+SRfPlTSa7kDs8BXATf3/5Nktar7Vbab+Sl9v9f/JfiVi9d+lAO5iMDl3Dgic/muUtv5Huf+EJe6Q7Pr7yeF3/84Z7At39OZO4/AmCAB0q7/eloLbk2mtmxVhZOn89Tt3Iq147tVRmodT7LnYDpSNHmdeFcK5M5k9XD45lIsnqtVbSj6yoBHJmcy+xY7xzAOd5u4b1T4N5Vlbg8P5/0zPN88+2EuVdqmei0Zu93uJHlS63B77UBLYA35ue8S6lJp/VkdyBZXJaiMrfrthvV6n1zj29VVLwPPslk8yD6lsr3dnA70V/OmxRz7L02n6XmoOC096arF1rFXOjL7Yq4rse6dHH7sHxkci6zaeXN0/Wd5x5O2q/VXGaTrC6eydj0VPKtRjpzdm697TYHaNsHtiuVVhbP1byH72udKsDdz6e60Qp2uy4Onc+C/m1qy3uyeA/eia2pv1vAjiebDLLdmNmVG1YAD9SeE3iHOczptnnS0dq7Z3rbM28E8NWMnbjdd9iAtt6HpzamHhg5MZ7WStf3xQfQDfeJN3Sj/fLma9B/Utzgfd8uhtBnS8vvW35s24+ZO2ibz1W/lYelu9NCYu76YfN6MMChZ3qCx+1aQB988rnkx9/N99p/f+ZTT2Z05Wr+aECb56uXv52XfvXJu9Oy+KEP52AezWee/EI+d+X1vPj2q/l2qxM0P5rPPfmFjZt+5lNf2Jin+Pv//Gq++tEv5JUnu5Z16JmueYx349F87smnk3b183O//Ha+ls/my/luvpbP5uWPX85LV5IvP/mxfHvl6rbLGP3wh/Ltn72er65cz0rPddd7qpV752LmfiQABu5z1VS2Cy8rh/ZGG8O9pNXMO6NTmXj0TJavpaj8OFUEEu8k7TbFrazON1KZ620BuxEsjW0sLG+ebuSdg0kO3NNHcd9ZXT6TnJjOkWvN4oBrbSonq+ezMF8t5v1qB8Rjk2nP/7id/h9PnVbcHdUiWHotmZibyoX6mTzWDpou6NeyBxVtCas5k5n6gOrTw1OZPVLL0mvNtEa3Xj1I5dFqstIq2nn2Xdd7cPIGLaA77d7bIczG8rvaNs8cLqpZF852zeM7aOPtnnu8a/mdbXlkarsDZF3be08VW9fjPTG9zX2rOfrF8SzMz+fN6ekcbTUy09X2vtvI5HSS7rn3Nuf0nTg8v9HCcyc7HlTta+VZrG8X86B2HVwceXY6Y+/OZ6mpTet9qfNaDgo5q4dSyZWBd+tuI9p5P2+37XVCg4EB7MD3ZHaYL76ax27yC9WtTFPQb8cxsys3rADeTm0qExfms9o65gDtzageSuVqK5ncqQK4UXz33v1KNue6TzvEP1LM95wkefRYJkfns7BYfSCn9dh+n3iTvxV32i8n6Z3SYuv3lu32fY9VUvzG6tc3J/F2trb8vhU7j5k7aLvPVYZk61QyDJPXgzttULvitt+9B6s/9ExeOVRU4b50+ZG8/EQ2K3IH+UVfhXLbwd97Oi8/8ehdHeqNHcyfjT6z+eeACmDufwJg4L5XPVDN2koza8c3f6yvXmgmB0cf2DPgt1U9lonj2TLP5MjkXEbSypunm8nhWkYuJsUX9c4RlFZWV1oZebaW5HyS5MLifFqj05lMo2gb2FzJauVQxkKvVtYynsnj1bQ6/RXbB5mqU8WcqJ2AeOPAzI4nL1Q3qhWXD0zn5KNn2lU91SzXz2SzorAdNrf/Xl3cnIuuda2V6hFHdPeGah4bm8rEZDK4qruW2Vqydm5l2yX0qBVto7sP2m9WBfcenNxoq3wT1UK9v1dqmZibzpun57NwcRcHFTsVfjtWsfSe7NBzQLf9/smNQqLqsZycThbm61m+6YOfmwftT9aS1cUBN7nbrZYHtICunJjO2LWVPDU9nXxrPu+kOCg8MXgJ7Gnt9sbbbf/Vaqrpm8O61cxba9U81fWe3nE+7GZjS6X+TakeSmVtpTf0a65kNdXc9Y+M3Y6ZHe2uArh93/bJMRtuMrB6sHU+x8c3Lul0XZkceIZUu4vEwalMJFnrnku+sn2pxdq5+YEdLSrHpzOxWM/M4m4rYO9PN9on3vi34g32y53pc265M0ERPvfMz9z+TXVrcxLvxm7HDAB32Y+/m5fefjtbalP7g9JtWzk/ki9vWwF8R0e6g6Lqt9MeufvfSdqP8d9y4HevJ3kkKzl4dyqTd2UzQB+tjqSYo/mHefzx5zYfw4+/m5daH8vLe2bM3A4BMHDfqxwfz8jZ9txbtbSrKas9c59yY5vzXY3mnYsrXZfX89q/fyI/PjiV2VqSHMvkifkspghf1s4lSStvvtZM1ppFW9Jhn8S2p1RzdLI4I7z4LtvM0vxKnpqeKw5S7dTG9m5onc/yxWTtYj0z7SBv9t6smX7tUGes2qnkabcCbvW1/b4ZzU6F61TGTpzJwnIzR9sHMVvXWqkc2Dr385bwt2sZO37N71TJHJ7KydEzWajXB4Y2W9oW9uuer7Bts/Jv0Jni3a0Z526iKq0zj2g1lbVmlurzN9FurKiw2snau627e4LRtgdrd1k5zN7SXCmqsbYNZ2oZO1HNwmvns1Zrh3XLxfut2Hbb4cGJ7bfl1QvFCRa3HKRWj2Xs8Jksbew/is/27Svt75xdj5kexbzy21+/uljP8sUkqWas64y9wffrPxHn5uY7f9B0QtvKielU0krxvLXPtGzUs5qkcqL4c+OzuDNPbVrJ9Fxmq8UJR1ur37d+ht7o5K2RybkiBK4/KFWfN94n3vC34o32y53va9O3HqSOjI2nMn8mb47V2t/7z2R5rZaJu93l4DbGDAB3XV+4u10L6MGGXAG8g6uXv52X/uW9Ys7f0Wdy9Z9fzfc++kxeyevF3MV3bH7i63n7N4/kjw4luVz8vfJv7+XAJx7tXJCNuZezutFCu9AdoG/OX/y5TyQbjag+8dl8+affzosrVweG7dxfBMBACdQyMT2ehfmuebbMKXILOnNDdZ63Zpb6bnHws/VMdypIGs2eA1SVR6tZazSyfHgqs6dqWV2sZ+asA4Xb66qsbjYy0yjmH+18BVy7tJK1g+O9B2s6FYGHa7s+kDcyOZfqufnMzBcVVidr7YCuXr+NudK4HWuXVrJ2eDRrp+vtNpHt9171WE4+2+iZf3HgwfnuStHDU5ntbFfHpzJ2ej4zp8dz8lQta1ereWqsr3Vs98Hjrjmjk2Rph22iaLHYHcDWMvvk+WL/e3gqs10tRbdtW3grFbR9c6qNTM21T0TZ3mbwXITIG1WyrfPtauBdzEvaPaQBgfrqNi2qN+xQycWDqGij3q9zIkXl+HQmrtV7399978eeSsGO7pbtA06wuJk5CUcmp4v9R3t497Qd8y7HTLLxXe5gLSNn57OQ6ZzsPpmltnkS39HJQfcbz9hK+34br7eWjTej9z1S3eY5a+XN061kNJsnec3N9XwGFt14tt7vnbV2C/au7hezW04a7G3TPjI5l9kjjczc1IlP5bDTPrFyU78Vd9gvt0++WZ6vb5kW4ob7yOqxnJy6kpmN+97LfdouxwwAd8tv3s5Lb38ozz3+2dtYyF6oAO727kYL6IO/93ReGd2siNmocu7MeXylHQTnNltAX7malYc+nOc6f//qar73m0fy+UNJfnzzi7l6+bv53oefzssDDlccfOK5vHLl9bz4z6t7qHqZ3RAAA/eR3rmveq8y786udAW6s10Hrx6rdB8EqWVi7HwW6u3WaHOdYLd7XqnNg1bFHFjF/Ze0ctxe63wWGsnE3HRGeqpsOhUJnWC++/ltZuliEQhsHiicysSFehbqSSrjGRtwPKd7XsXZuc0bFAFdsZ4HrV3gXtC6loyNHcvRarWYUzcpXsOkfbC+3RpyLSmqtbpC3AvNHSpFqzl6ajo5PV8ESJXxnGzfdXMe4P7wuPeEjbVz85k53epbfjMX0hU0b6zuWE7O1bLWqiatm2xVvZOe0Pdmq30775ds2c57x1l8Tqydm89MvbXDc1gYGRvP8nz/QeWtFfu3MgfwHdMXjrdX1ts+2skde09tKrM3kaltP5fuDt+F2iq3MQ/vzSy/uNluv3cNXv7tzB1Mimq/g+33+2T7c33Hed6TpJqx50fzVsZzcvJYKjmWymJ9I/zf8X4PSKh4O7Z0waiMt0O3Yzl5aqd7bn6ede5XfPz3vud6lt/1Ob/hJvc19787sM+64XN1m78zb2W/f6eW77cxAHvM1V/+/A5WwLb1tZMuWhrfa49ubQG9nU4QfJu+/7Of57lDT2bl0qtF8PxQkt/7bPLPr+bFXyT53SdzMKv56sqlFEdoHskffSJbwuGDTzyXl5MimG5dLy77vSc35/899Exeuf3hMmT7jn3+T9eHPQhgd/7h7/5mV/dbX1/P73/8I7te7+XLl/PEE0/s+v5l5Xm5P3nd7g3P8/2taFG9Tcg5oEp36+16W4mqPmFY7Iu4VbaZ+5PX7d7wPHOrbDP3J6/bveO5vj953YCd3O4+4ic//Xn27du3q/uqAAYAYEeDW1O23VSViVaiAAAAAHCv7B/2AAAAAAAAAAC4MwTAAAAAAAAAACUhAAYAAAAAAAAoCQEwAAAAAAAAQEkIgAEAAAAAAABKQgAMAAAAAAAAUBICYAAAAAAAAICSEAADAAAAAAAAlIQAGAAAAAAAAKAkBMAAAAAAAAAAJSEABgAAAAAAACgJATAAAAAAAABASew79vk/XR/2IIDd+Ye/+5td3W99fT2///GP7Hq9ly9f3vV9AQAAAAAAHgRPPPHEru/7k5/+PPv27dvVfR/a9VqBB9bt7LAAAAAAAAC4e7SABgAAAAAAACgJATAAAAAAAABASQiAAQAAAAAAAEpCAAwAAAAAAABQEgJgAAAAAAAAgJIQAAMAAAAAAACUhAAYAAAAAAAAoCQEwAAAAAAAAAAlIQAGAAAAAAAAKAkBMAAAAAAAAEBJCIABAAAAAAAASkIADAAAAAAAAFASAmAAAAAAAACAkhAAAwAAAAAAAJSEABgAAAAAAACgJATAAAAAAAAAACUhAAYAAAAAAAAoCQEwAAAAAAAAQEkIgAEAAAAAAABKQgAMAAAAAAAAUBICYAAAAAAAAICSEAADAAAAAAAAlIQAGAAAAAAAAKAkBMAAAAAAAAAAJfHQsAcA3K9aefP0fN4anc7J49Wea1YX61k+sPXyrfdvJF+cztGdbnYzmo3MXBjN7GRty1Wri/UsXWz/URnPyVPHUtm6gCzVG1k9PDVwGb3DPp+FbyWTp46l0rXe1cV6LhyZy0StmaX6So7MTWVk6527HnN7nduuqJqx6Tvw3PSPeePCZpbqZ/LYjusY8Bq1zmdh/kzWBt184/ktto3lnhv1Pp61c/NZONvqvfuJ/m2m7znqeX361rHDa1dsA7VMDHxNeq2dm8/yo9OZqA1Y/xa9j6lnW9vWzY0DAAAAAAB2SwAM7MrauUYRvp2dz8zZzctHpqaSi8naxd7LewK6ZiMzjWaSasZuaxRdIeDh0S3Xri7Ws3R1PCfnNkPJhcVqX1DYFfJdbGRmUIDXPfbqsZx8tpGZxWZmj2yupwh/k7RaaR0evcmAb7swsB28DtN2r1H1WE7OHeu/cZbqjeTZ3nB9ZKr9nGxnx8C9vcypucwOuMnauTPJF+cyW9287cKAkw42Q9lmlur1AevpfQ0qx8eTej1LU3OZqNUyMTe3w/jO9FwyMjmX2cntHmznPis73QAAAADgrvvVr3+TX/3m/fz2t+tZX1+/p+vev39fPvbh38mLK6/e0/Xu5JXRL+SnP3tv2MNIknz8ox8ylgH20liSvTUeYxns4x/9UP71336Z99+/t/u4JNm/b3/27U8+9PD+PPzw8GJYATBw61rns3g2GZueyjvzvVWka+fmszw1nbHXBlcHr52bz8K18cxOH8rC/O2EYZ0K1rlMLNezNGCMyxerGZvuhJLVHH22luXGSlYna0Xg113NOiiMbDYy02hlbGzz8s3K1WY7LG4W675YhIZj765k7WKrN0iujOeLoyv5Vqfidb6e5cO1jGwbShbjvb1wfPdu9TVaO3cmq5XxnLxB8fStWF1spHViettlVo5P5ejGX7UcOZwsXWsl2ShV7qoQHhS0F6Fx68R43+W1TEyPZ+Fb57NWG1Qtvr1BVc1b1XLkFpYJAAAAcCf96te/yXu/+m3W31/PvY9FMpQwBngwDWt/8/76+9n32335xfpvs57kg0MKgQXAwC1bXT6T6tRcEfpOt7LwrfMZOXUslTSzvDKasVPVVGpzqSzWs9TsrQKtHJ/ObJK0zt/mKGqZmCsWPLBFb+tK1lJNpTt/ro1mJI1caCYjtWaW5lfy1HTxONbOzWemfqbd0rerJfRcbwJZOT6d2ePZrJDtCY6bWWokY+1l9rZePpbZ430toC/m7lUAD2jVvNBXsZokq/P1LCfpbmd8a69RM8tnWxmZ6g5LW3lnYI/oruFd2ykobebCxWqeGtt9/+vVxeIEhNnj1eK5qNez3G4xvdkSem5wpXb1WE6euvV1bmwb21IBDAAAAAzXL3/9/tDCX4AHxXrWk/eTX/3m/Xzw4eGMQQAM3LKRybmMNBuZqTc3LusOF1e7g8aLnXa693KEydq7raQymu0jxM0AOWmHd0+ez0I7EB3ZpvVw0mkrXM3YiVqWzzYyc7EIT0curaRVSR7r3LB1JWsHR2+yirSoWH3n2blM1Ko5emr65h7odrpbNe96DuAb2776t5rHbrDcyoFtbtBqpZVqjrQamZnvbGM7zIm8Ue29OYiRya5wt3osJ+dqefN0uy35gGC/eCybFbwb7at3mvM41eK13vE2W63W6zs/HgAAAIC7ZP39CH8B7oH1JO+/P7z1C4CB3alNZbZvetS1c/NZzFRX2+d2qHmLi+5ppbtRYXtnAsuOzblhu1TGc3JuLpX29TP9RbiHpzKRRpbSDhCbjSwfnsrsWKsdHNcyMVXN8qVWjh6vZvVCM5UD430LaWV5vp63ToynOqgFdKOeme7xnLq1NsT31qDq37QD3FZXdXH/fMCtrF3tmye6u5K6dSVraWbpwlRm56aStF+v+UYqGxXTXXM3p5aJuenNwHdj/uJu1YxNt+cMbjYyU+9/cYtlzB5vz+ncfdXA16FrDuCB8yKnHQxfydjAKm8AAACAe+/99SGmEQAPmPeHmAALgIHdGRiyJUlXqNd2a+FXM8tnqxuB3upiPTPtjLRyYjoTd6hicmRyLrOTg1bfyMyF0cxud33mMpuueXLboWV3te3ya82sHa/2tDHeDJyrm22mz3bPTdtdAXxnHuNd11zJampbx9sfiDYbmWl0V4JXc/TUXNccvkWYO5Pudtq1TEx2V/ROZeRip313+/q5ua7717PUCZEHnJywebuVHJnb7vpb0VtBvv0JCs2uMWebamwAAAAAALhzBMDArqxeaKbSnlO1Y2sF8G70BmvbBrU3UHl0uzFstibuqTTu0cxMX3VwpWf+2M6ljc3bdapEq7U8lfksnq5mrTKazjS2xePomtu31Uqrcihri/XedW1UANe2mR/45gyqcN55DuDccsXx6oViDuQbjrE2lYnD9SxdaCa1Qel2LRNTtcw0VrI6WdvFY65lYno8C/Nn8uZYbXP+5W3aMq/2V13fkUrrWiami0rwt/reF6uvnc9a7VgqzUZmGq2MTU3d1poAAAAAAGAnAmBgFwa08N0w6LLbCzN3pXoolbWVrLaObVZkNleymmqOtP+uHC9a/vbYqAAeXIY7Mjmdsau9lbqri/UsH6i1A8Rqjj5by3KjlbHpHULFrvmB+4P0TqXq7dhtcH7zmrlwMRmZugvlyrXRjOQZbmGmAAAYAUlEQVRM1lrJDpM4D1BNpXP7gW2ZNyuA78y22Ff1uzHX8Jm8mVbeulZNUsvY6Eo7fO9rVQ0AAAAAAHfB/mEPALgfFS18Z+fa/02Pp5JqRg5XUzkxvXl557rKoVvL8e7IEI9l7HAry8udNtWtvPlaM5UT41sCuLVz81k4118J3Mqbp+uZWexrc91qpfLF6Tz2Wj0z9eK/pZ6q52aWGs0k3eveqpgf+Baeldb5LNTn8+agguUbKlokdz/GorV2Zw7d3SyyaP98ZFD+22r1Vt42G1m6WM3Y2EYf5CLc7R5fo/u1qeXI4VaWv3V+Yzmri42sVsZTLKKZpdPnu9bRypvfOpO1w6Nbw9XW+Sz03Lawdm7+ho9/7Vxj5+e71UqrO3ROkuaZLK81s3xtPCfHDiUpTjSYOJxk0PgAAAAAAOAOUwEM7F6nzW5lPCfnppNz81lM0pnTdSNcOzw1lPlORyanM3Z6vmcO4a2Vto2sHp7KybHikrV3O4lfEXKPtIPCjftWaxlJM0vtRHHkcC2rFxtZODCdk4+eyUyjaI09ezx58/R8Zk4PaC/cOp/li7WMTVaTxWTt7OCq6SM997mStcpoRm4pSe+8DtWMTc/1zJ88MjmX2bHzWajXs7SLCu21d1tJZXRwsF9tZbk+3xWuduY93vy7tVzPQleL6v7XZmRyLhOL9c221T1tmmuZeLaRme5WzoentlRtF22wi/bQSdqBbXtxx6cz+2T78Q9oAb3aqKd1Yjonq828tXYlrWTrNty6krXOyQ2dObEr4zk5197eW+d7Hs/J9rY0MnUfzfMMAAAAAMB9Z9+xz//p+rAHAezOP/zd3+zqfuvr6/n9j39k1+vdmF+2Lzi7M3MA3yOt81mYX8lT09M5Wm3lzdPzWe6EulsCuuL6d56dy5EL9aKatSfQ7MwnnMGXr4zmi6Mr+dbZVpJaxk608lb7eSraRw9uAd3dqvhWn9uN8PNmgt12kF8tTTBZvF5vjRbPa89czwOC4rVz81m4Nt6+vK+tc3q3jV7t7aDVyMxrhzbeCz3zL29ZX2d5W7chAAAAgLvtpz97b9hDyMc/+qG8uPLqsIex4ZXRL+yJ5yUpnhtj2WovjSXZW+MxlsH22lh26yc//Xn27du3q/sKgOE+NqwAmHutlTdPN5IvCgwBAAAA2L29EIjcsQD4f/tcXvnw9bz4g/9xW4u5rQB49Zv50umu1n7HZvL1qd1PAnZ7oVUrb3zlZBZ/tBfG0m01iy/M5o3bGM/tjaW9/p7LTmT6G8/n07tc4m0/N33bzdOnljK5y5dqt2P5QWMi8+cHX7fb8dzu89I7piG/RnfQsAJgLaAB9rxqjp6aHvYgAAAAAGAP+FT+78NP5VMfSPLe9SGOYzWLp5Ppbyy1Q6oiaPxSbi943a3rr38n+fJSvv7I5lj+8uBC/vMzw60ouf763/eFr8PwyUz+9ct5+pFhjyPt8Ld7uxmOT08t5etTvZddf/2l/Pl//+OM3/vNN9dffynz5zdD3x80JjL/lcfyV39xInvhZbsf7R/2AAAAAAAAAG7s/8zLo/9Hcu3V/NehF/eNZLKnQnEkk6dOJOf/KT8Ywmgeeeb5roBzJJ85lly+OnBes3vn+tm8spg88QfDHcbesZrF0/8zk3+9+8rWu2c1ZxZ/mKf/ZBiBayuX/vsP88Tk5zael0//h+fzxI/+Wy4N8xyP+5wAGAAAAAAAuA/8j7y08v/m/2kNexzcWCtvfO2byeR/zJ88PsRhXL+St4e4+h6r/5Q3/uCP8+QeLGm9/vrf540/eH4o1b9JNQcGbiP/ew7swefqfiEABgAAAAAAuC2tvPGPZ5Njfzj86s7rZ/OP5z+Zyf8wlDSvGMLrf5vFPJ8Xh9yCurA3gsTrV/9n8vihrDUm8qUX2v995WyGX+Q6zOrfwqenZvL44nc2qud/8P99M4+f2ouV0vcPcwADAAAAAAA7+kFjoj1H5+dy7Ssns5jnzc/Z5QeNk1n80Scz+eVhha7FvL/FfLsnMv2Nl4cXnq1+M3++mEz+dbF9DLUR9bvv5HLOZv6Fs+0Lhjcf8NrVHybnZ/P9U535d4vX7M8bh4Yyb3RHp/r3r4Y3hHal9tm8sfE6JU8cbCUj9/oEglbe2Ni/PZVLXzmZxceHM6/37VIBDAAAAAAAbOsHjYnMZyZf/8bzSaMdiAh/21az+MJE5s8PL1gsjGTyG0v5+jeW8vVv/GG+/8JEvtRYHcI4VrN4+myePjXM56LLyPPt56T4768mk8X/9FLeGFbZ7bGZTG5kicOdN7rQnn/3/3pqiO/n1Sz+p2/m8rGZrtfpk7m8+LdDeJ2qefovljL9+Dfz54214t+ZHdJ76fYIgAEAAAAAgIGuv/5S5t9+Pn81NdLzb5JcP5u/fGG2qJ78xh4JPJMkI5n86+fzxPm/v+cB2vXX/z5vJHnj9Gab4/nzSc7P5ksvTGRxyDnaI8/8x0z+wQ/z3bdMJJ0kuf5WvvujT+azTw2xVffqP+WNnMh0135l2K/Tp6eK4PcvX2/l01MLmXy7+Pf9RAtoAAAAAABgoEeeeTnTVyfabWq7//2gh8BdVYt79rm493PfPvLMy/n6M72XbVSQ79nn6d749GdOJP94Jdczsmeq56+/9d9y+Q/+OC/ulQHtERvb7DPV/KAxUXQ92BPzWd88FcAAAAAAAMC2OtVwX3rhm0nn3185m2F10d0TBlQtDs9qFntej1be+No3c/nYHw5vHuC94nqrZzu9/vrfZvFHJ/InwwjzRv4wT//om3llo5K0aJf9xOTnhvQ67YX2z0lGPpfJPzib+e42y6vfyeJQKpNbeeMrE+1OB5Xi3/fpyQsqgAEAAAAAgB19emopX59q/zG1lK8PdTR7xdnMv3B2y6VPn1rqmuf1XhjJ5J/8U770wsTmRXu6MvleeiuvvPDNXN74+0Smv/H8kALXkUx+YyaLL5zMlxaLS56YXMh/Hlpl6Vre+VHy+J8Mu7K1mqf/YiH5ysl86YXOZcOaU7uYA/jp9l/d/77f7Dv2+T9dH/YggN35h7/7m13db319Pb//8Y/c4dEAAAAAAHvZT3/23rCHkI9/9EN5ceXVYQ9jwyujX9gTz0tSPDfGstVeGkuyt8ZjLIPttbHs1k9++vPs27dvV/fVAhoAAAAAAACgJATAAAAAAAAAACUhAAYAAAAAAAAoCQEwAAAAAAAAQEkIgAEAAAAAAABKQgAMAAAAAAAAUBICYAAAAAAAAICSEAADAAAAAMADYP9+kQDAvbJ/377hrXtoawYAAAAAAO6Z/fuS4cURAA+OfdmXffsFwAAAAAAAwF30Ow/vz/79+4XAAHfRviT79u/Lhx4eXgz70NDWDAAAAAAA3DMPP/xQ1vOb/PLXyfvvr2d9ff2ern//EKvhgAfL/v378v7793YfV6x3f/bvK064efjh4cWwAmAAAAAAAHhAfPDhh/LBh4c7hldGvzDcAfT5+Ec/NOwhbDCWwfbSWJK9NR5jGexjH/6dYQ9hqLSABgAAAAAAACgJATAAAAAAAABASQiAAQAAAAAAAEpCAAwAAAAAAABQEgJgAAAAAAAAgJIQAAMAAAAAAACUhAAYAAAAAAAAoCQEwAAAAAAAAAAlIQAGAAAAAAAAKAkBMAAAAAAAAEBJCIABAAAAAAAASkIADAAAAAAAAFASAmAAAAAAAACAkhAAAwAAAAAAAJSEABgAAAAAAACgJATAAAAAAAAAACUhAAYAAAAAAAAoCQEwAAAAAAAAQEkIgAEAAAAAAABKQgAMAAAAAAAAUBICYAAAAAAAAICSEAADAAAAAAAAlIQAGAAAAAAAAKAkBMAAAAAAAAAAJSEABgAAAAAAACgJATAAAAAAAABASQiAAQAAAAAAAEpCAAwAAAAAAABQEgJgAAAAAAAAgJIQAAMAAAAAAACUhAAYHlDr6+vDHgIAAAAAAAB9bjfDEQDDA+qXv/zVsIcAAAAAAABAn9vNcATA8ID6939/TxUwAAAAAADAHrK+vp5///f3bmsZAmB4AO3bty/vryfX/9dP8t57vxQEAwAAAAAADNH6+nree++Xuf6/fpL314ssZ7ceuoPjAu4jH/jAB/Lb3yb/8i8/z2/f/21kwAAAAAAAAMOxb1/ygf0fyAceeigf+MAHbmtZAmB4QO3bty8P3YGdCAAAAAAAAHfG7VT+dgiA4QF3J3YkAAAAAAAA7A3mAAYAAAAAAAAoCQEwAAAAAAAAQEkIgAEAAAAAAABKQgAMAAAAAAAAUBICYAAAAAAAAICSEAADAAAAAAAAlIQAGAAAAAAAAKAkBMAAAAAAAAAAJSEABgAAAAAAACgJATAAAAAAAABASQiAAQAAAAAAAEpCAAwAAAAAAABQEgJgAAAAAAAAgJIQAAMAAAAAAACUhAAYAAAAAAAAoCQEwAAAAAAAAAAlIQAGAAAAAAAAKAkBMAAAAAAAAEBJCIABAAAAAAAASkIADAAAAAAAAFASAmAAAAAAAACAkhAAAwAAAAAAAJSEABgAAAAAAACgJATAAAAAAAAAACUhAAYAAAAAAAAoCQEwAAAAAAAAQEkIgAEAAAAAAABKQgAMAAAAAAAAUBICYAAAAAAAAICSEAADAAAAAAAAlIQAGAAAAAAAAKAkBMAAAAAAAAAAJSEABgAAAAAAACgJATAAAAAAAABASQiAAQAAAAAAAEpCAAwAAAAAAABQEgJgAAAAAAAAgJIQAAMAAAAAAACUhAAYAAAAAAAAoCQEwAAAAAAAAAAlIQAGAAAAAAAAKAkBMAAAAAAAAEBJCIABAAAAAAAASkIADAAAAAAAAFASAmAAAAAAAACAkhAAAwAAAAAAAJSEABgAAAAAAACgJATAAAAAAAAAACUhAAYAAAAAAAAoCQEwAAAAAAAAQEkIgAEAAAAAAABKQgAMAAAAAAAAUBICYAAAAAAAAICSEAADAAAAAAAAlIQAGAAAAAAAAKAkBMAAAAAAAAAAJSEABgAAAAAAACgJATAAAAAAAABASQiAAQAAAAAAAEpCAAwAAAAAAABQEgJgAAAAAAAAgJIQAAMAAAAAAACUhAAYAAAAAAAAoCQEwAAAAAAAAAAlIQAGAAAAAAAAKAkBMAAAAAAAAEBJCIABAAAAAAAASkIADAAAAAAAAFASAmAAAAAAAACAkhAAAwAAAAAAAJSEABgAAAAAAACgJATAAAAAAAAAACUhAAYAAAAAAAAoCQEwAAAAAAAAQEkIgAEAAAAAAABKQgAMAAAAAAAAUBICYAAAAAAAAICSEAADAAAAAAAAlIQAGAAAAAAAAKAkBMAAAAAAAAAAJSEABgAAAAAAACgJATAAAAAAAABASQiAAQAAAAAAAEpCAAwAAAAAAABQEgJgAAAAAAAAgJIQAAMAAAAAAACUhAAYAAAAAAAAoCQEwAAAAAAAAAAlIQAGAAAAAAAAKAkBMAAAAAAAAEBJCIABAAAAAAAASkIADAAAAAAAAFASAmAAAAAAAACAkhAAAwAAAAAAAJSEABgAAAAAAACgJATAAAAAAAAAACUhAAYAAAAAAAAoCQEwAAAAAAAAQEkIgAEAAAAAAABKQgAMAAAAAAAAUBICYAAAAAAAAICSEAADAAAAAAAAlIQAGAAAAAAAAKAkBMAAAAAAAAAAJSEABgAAAAAAACgJATAAAAAAAABASQiAAQAAAAAAAEpCAAwAAAAAAABQEgJgAAAAAAAAgJIQAAMAAAAAAACUhAAYAAAAAAAAoCQEwAAAAAAAAAAlIQAGAAAAAAAAKAkBMAAAAAAAAEBJCIABAAAAAAAASkIADAAAAAAAAFASAmAAAAAAAACAkhAAAwAAAAAAAJSEABgAAAAAAACgJATAAAAAAAAAACUhAAYAAAAAAAAoCQEwAAAAAAAAQEkIgAEAAAAAAABKQgAMAAAAAAAAUBICYAAAAAAAAICSEAADAAAAAAAAlIQAGAAAAAAAAKAkBMAAAAAAAAAAJSEABgAAAAAAACgJATAAAAAAAABASQiAAQAAAAAAAEpCAAwAAAAAAABQEgJgAAAAAAAAgJIQAAMAAAAAAACUhAAYAAAAAAAAoCQEwAAAAAAAAAAlIQAGAAAAAAAAKAkBMAAAAAAAAEBJCIABAAAAAAAASkIADAAAAAAAAFASAmAAAAAAAACAkhAAAwAAAAAAAJSEABgAAAAAAACgJATAAAAAAAAAACUhAAYAAAAAAAAoCQEwAAAAAAAAQEkIgAEAAAAAAABKQgAMAAAAAAAAUBICYAAAAAAAAICSEAADAAAAAAAAlIQAGAAAAAAAAKAkBMAAAAAAAAAAJSEABgAAAAAAACgJATAAAAAAAABASQiAAQAAAAAAAEpCAAwAAAAAAABQEgJgAAAAAAAAgJIQAAMAAAAAAACUhAAYAAAAAAAAoCQEwAAAAAAAAAAlIQAGAAAAAAAAKAkBMAAAAAAAAEBJCIABAAAAAAAASkIADAAAAAAAAFASAmAAAAAAAACAkhAAAwAAAAAAAJSEABgAAAAAAACgJATAAAAAAAAAACUhAAYAAAAAAAAoCQEwAAAAAAAAQEkIgAEAAAAAAABKQgAMAAAAAAAAUBICYAAAAAAAAICSEAADAAAAAAAAlIQAGAAAAAAAAKAkBMAAAAAAAAAAJSEABgAAAAAAACgJATAAAAAAAABASQiAAQAAAAAAAEpCAAwAAAAAAABQEgJgAAAAAAAAgJIQAAMAAAAAAACUhAAYAAAAAAAAoCQEwAAAAAAAAAAlIQAGAAAAAAAAKAkBMAAAAAAAAEBJCIABAAAAAAAASkIADAAAAAAAAFASAmAAAAAAAACAkhAAAwAAAAAAAPz/7dtBCQAgAARBrGYBQ9g/g4bwISwzCe6/XIQADAAAAAAAABAhAAMAAAAAAABECMAAAAAAAAAAEQIwAAAAAAAAQIQADAAAAAAAABAhAAMAAAAAAABECMAAAAAAAAAAEQIwAAAAAAAAQIQADAAAAAAAABAhAAMAAAAAAABECMAAAAAAAAAAEQIwAAAAAAAAQIQADAAAAAAAABAhAAMAAAAAAABECMAAAAAAAAAAEQIwAAAAAAAAQIQADAAAAAAAABAhAAMAAAAAAABECMAAAAAAAAAAEQIwAAAAAAAAQIQADAAAAAAAABAhAAMAAAAAAABECMAAAAAAAAAAEQIwAAAAAAAAQIQADAAAAAAAABAhAAMAAAAAAABECMAAAAAAAAAAEQIwAAAAAAAAQIQADAAAAAAAABAhAAMAAAAAAABECMAAAAAAAAAAEQIwAAAAAAAAQIQADAAAAAAAABAhAAMAAAAAAABECMAAAAAAAAAAEQIwAAAAAAAAQIQADAAAAAAAABAhAAMAAAAAAABECMAAAAAAAAAAEQIwAAAAAAAAQIQADAAAAAAAABAhAAMAAAAAAABECMAAAAAAAAAAEQIwAAAAAAAAQMSYa5/fIwAAAAAAAAB45wEMAAAAAAAAECEAAwAAAAAAAEQIwAAAAAAAAAARAjAAAAAAAABAhAAMAAAAAAAAECEAAwAAAAAAAEQIwAAAAAAAAAARAjAAAAAAAABAhAAMAAAAAAAAECEAAwAAAAAAAEQIwAAAAAAAAAARAjAAAAAAAABAhAAMAAAAAAAAECEAAwAAAAAAAEQIwAAAAAAAAAARAjAAAAAAAABAhAAMAAAAAAAAECEAAwAAAAAAAEQIwAAAAAAAAAARAjAAAAAAAABAhAAMAAAAAAAAECEAAwAAAAAAAEQIwAAAAAAAAAARAjAAAAAAAABAhAAMAAAAAAAAECEAAwAAAAAAAEQIwAAAAAAAAAARAjAAAAAAAABAhAAMAAAAAAAAECEAAwAAAAAAAEQIwAAAAAAAAAARAjAAAAAAAABAhAAMAAAAAAAAECEAAwAAAAAAAEQIwAAAAAAAAAARAjAAAAAAAABAhAAMAAAAAAAAECEAAwAAAAAAAEQIwAAAAAAAAAARAjAAAAAAAABAhAAMAAAAAAAAECEAAwAAAAAAAEQIwAAAAAAAAAARAjAAAAAAAABAhAAMAAAAAAAAECEAAwAAAAAAAEQIwAAAAAAAAAARAjAAAAAAAABAhAAMAAAAAAAAECEAAwAAAAAAAEQIwAAAAAAAAAARAjAAAAAAAABAhAAMAAAAAAAAECEAAwAAAAAAAEQIwAAAAAAAAAARAjAAAAAAAABAxAVbpllnx/8VEwAAAABJRU5ErkJggg==;" vertex="1" parent="1">
          <mxGeometry x="-960" width="1744.31" height="960.27" as="geometry" />
        </mxCell>
        <mxCell id="EXckT9lGXdtGZgZZ0evO-7" value="" style="group" vertex="1" connectable="0" parent="1">
          <mxGeometry x="827" y="30" width="480" height="210" as="geometry" />
        </mxCell>
        <mxCell id="EXckT9lGXdtGZgZZ0evO-1" value="" style="rounded=0;whiteSpace=wrap;html=1;" vertex="1" parent="EXckT9lGXdtGZgZZ0evO-7">
          <mxGeometry width="480" height="210" as="geometry" />
        </mxCell>
        <mxCell id="EXckT9lGXdtGZgZZ0evO-2" value="确定" style="rounded=1;whiteSpace=wrap;html=1;" vertex="1" parent="EXckT9lGXdtGZgZZ0evO-7">
          <mxGeometry x="170" y="134" width="120" height="60" as="geometry" />
        </mxCell>
        <mxCell id="EXckT9lGXdtGZgZZ0evO-3" value="取消" style="rounded=1;whiteSpace=wrap;html=1;" vertex="1" parent="EXckT9lGXdtGZgZZ0evO-7">
          <mxGeometry x="330" y="134" width="120" height="60" as="geometry" />
        </mxCell>
        <mxCell id="EXckT9lGXdtGZgZZ0evO-4" value="视频置顶排序" style="text;html=1;strokeColor=none;fillColor=none;align=center;verticalAlign=middle;whiteSpace=wrap;rounded=0;" vertex="1" parent="EXckT9lGXdtGZgZZ0evO-7">
          <mxGeometry x="10" y="10" width="90" height="30" as="geometry" />
        </mxCell>
        <mxCell id="EXckT9lGXdtGZgZZ0evO-5" value="" style="rounded=0;whiteSpace=wrap;html=1;" vertex="1" parent="EXckT9lGXdtGZgZZ0evO-7">
          <mxGeometry x="30" y="50" width="420" height="60" as="geometry" />
        </mxCell>
        <mxCell id="EXckT9lGXdtGZgZZ0evO-10" value="初期表示：&lt;br&gt;筛选项，置顶状态，只有超管能够看到&lt;br&gt;操作项，置顶、取消置顶，只有管理员能看到&lt;br&gt;置顶、取消置顶排他&lt;br&gt;&amp;lt;span v-if=&quot;video.topFlg === 1 &amp;amp;&amp;amp; isAdmin&quot;&amp;gt;取消置顶&amp;lt;/span&amp;gt;&lt;br&gt;&amp;lt;span v-if=&quot;video.topFlg !== 1&amp;nbsp;&amp;amp;&amp;amp; isAdmin&quot;&amp;gt;置顶&amp;lt;/span&amp;gt;&lt;br&gt;&lt;br&gt;事件：&lt;br&gt;检索按钮按下&lt;br&gt;&lt;span&gt;	&lt;/span&gt;search topFlg = 空|1|0&lt;br&gt;&lt;br&gt;置顶按钮按下&lt;br&gt;&lt;span&gt;	&lt;/span&gt;&lt;blockquote style=&quot;margin: 0 0 0 40px ; border: none ; padding: 0px&quot;&gt;开启遮罩&lt;br&gt;/vsVideo/top&lt;br&gt;关闭遮罩&lt;/blockquote&gt;&lt;span style=&quot;white-space: pre&quot;&gt;	&lt;/span&gt;&amp;nbsp; &amp;nbsp; 成功的场合、&lt;span&gt;刷新当前页面&lt;/span&gt;&lt;br&gt;&lt;blockquote style=&quot;margin: 0 0 0 40px ; border: none ; padding: 0px&quot;&gt;&lt;/blockquote&gt;&lt;span&gt;&lt;br&gt;置顶按钮按下&lt;/span&gt;&lt;br&gt;&lt;blockquote style=&quot;margin: 0 0 0 40px ; border: none ; padding: 0px&quot;&gt;&lt;blockquote style=&quot;margin: 0px 0px 0px 40px ; border: none ; padding: 0px&quot;&gt;&lt;/blockquote&gt;&lt;span&gt;开启遮罩&lt;/span&gt;&lt;br&gt;&lt;blockquote style=&quot;margin: 0px 0px 0px 40px ; border: none ; padding: 0px&quot;&gt;&lt;/blockquote&gt;&lt;span&gt;/vsVideo/unTop&lt;/span&gt;&lt;br&gt;关闭遮罩&lt;/blockquote&gt;&lt;blockquote style=&quot;margin: 0 0 0 40px ; border: none ; padding: 0px&quot;&gt;成功的场合、刷新当前页面&lt;br&gt;&lt;/blockquote&gt;" style="rounded=0;whiteSpace=wrap;html=1;align=left;" vertex="1" parent="1">
          <mxGeometry x="827" y="270" width="483" height="350" as="geometry" />
        </mxCell>
      </root>
    </mxGraphModel>
  </diagram>
</mxfile>
